<svg xmlns="http://www.w3.org/2000/svg" width="117" height="100.25" viewBox="0 0 117 100.25"><path fill-rule="evenodd" clip-rule="evenodd" fill="#fff" d="M112.065 19.866C124.27 41.01 110.39 72.018 81.16 88.894c-29.227 16.875-63.022 13.392-75.23-7.75C-6.28 60 7.605 28.99 36.833 12.113c29.23-16.874 63.023-13.393 75.232 7.752zm-59.36 56.14L49.03 64.762H29.183l-3.926 11.244h-8.152l21.66-54.063h1.924l18.995 51.11 15.73-24.096c3.493-5.355 5.246-9.917 5.246-13.645 0-4.933-2.783-7.393-8.337-7.393-1.966 0-3.815.51-5.53 1.54-1.727 1.032-2.983 2.336-3.752 3.914l-4.696-3.85c.818-2.387 2.447-4.276 4.858-5.682 2.41-1.416 5.33-2.112 8.76-2.112 5.12 0 9.122 1.182 12.005 3.542 2.895 2.374 4.334 5.715 4.334 10.04 0 4-1.912 9.046-5.75 15.134L70.57 69.46h20.9v6.546H52.707zM39.386 35.92l-8.263 23.485h15.83L39.385 35.92z"/></svg>