<svg xmlns="http://www.w3.org/2000/svg" width="125" height="29" viewBox="0 0 125 29"><path fill-rule="evenodd" clip-rule="evenodd" fill="#fff" d="M32.162 5.68c3.55 6.15-.487 15.17-8.99 20.078-8.5 4.908-18.33 3.895-21.883-2.256-3.552-6.15.487-15.17 8.99-20.078 8.5-4.91 18.33-3.896 21.882 2.255zM14.896 22.01l-1.07-3.272H8.055l-1.142 3.27h-2.37l6.3-15.725h.56l5.525 14.867 4.576-7.01c1.015-1.557 1.525-2.884 1.525-3.968 0-1.435-.81-2.15-2.425-2.15-.572 0-1.11.148-1.608.448-.502.3-.868.68-1.09 1.14l-1.367-1.12c.238-.695.71-1.245 1.413-1.654.702-.412 1.552-.614 2.55-.614 1.488 0 2.653.344 3.492 1.03.84.69 1.26 1.663 1.26 2.92 0 1.164-.556 2.632-1.672 4.403l-3.484 5.53h6.08v1.904H14.894zM11.02 10.35L8.62 17.18h4.604l-2.2-6.83zM42.644 17.488c-.25.166-.932.54-1.863.54-1.64 0-2.557-1.278-2.557-2.946 0-1.89.78-2.975 2.447-2.975.82 0 1.584.375 1.89.556l.14-2.14c-.237-.098-1.084-.445-2.35-.445-3.184 0-4.825 2.085-4.825 4.95 0 3.405 2.017 5.09 4.838 5.09.737 0 1.57-.125 2.39-.378l-.11-2.252zm.406-2.392c0 3.6 2.196 5.02 4.31 5.02 2.113 0 4.31-1.42 4.31-5.02s-2.197-5.02-4.31-5.02c-2.114 0-4.31 1.42-4.31 5.02zm2.655 0c0-1.89.53-3.156 1.64-3.156 1.1 0 1.628 1.265 1.628 3.156 0 1.92-.528 3.156-1.627 3.156h-.014c-1.1 0-1.627-1.236-1.627-3.156zm10.97 4.852h1.628l2.086-7.368h.026v7.368h2.336v-9.704H59l-1.42 6.09h-.027l-1.292-6.09h-3.85v9.704h2.28V12.58h.027l1.96 7.368zm9.596-9.704h-2.556v6.062c0 2.836 1.653 3.812 3.697 3.812s3.698-.976 3.698-3.812v-6.062H68.55v6.145c0 1.07-.235 1.807-1.14 1.807s-1.168-.737-1.14-1.808v-6.146zm10.57 9.704h3.06v-9.704h-2.28v6.688h-.027l-2.545-6.688h-3.03v9.704h2.28v-6.73h.055l2.487 6.73zm4.035 0h2.613v-9.704h-2.613v9.704zm10.47-2.46c-.25.166-.93.54-1.862.54-1.64 0-2.558-1.278-2.558-2.946 0-1.89.778-2.975 2.446-2.975.823 0 1.587.375 1.893.556l.14-2.14c-.236-.098-1.086-.445-2.352-.445-3.182 0-4.82 2.085-4.82 4.95 0 3.405 2.015 5.09 4.836 5.09.737 0 1.57-.125 2.392-.378l-.112-2.252zm6.357 2.46h2.696l-3.086-9.704h-2.877l-3.227 9.704h2.503l.627-2.058h2.85l.515 2.058zm-1-3.92h-1.92l1.042-3.81h.03l.847 3.81zm10.72 1.46c-.25.166-.932.54-1.863.54-1.64 0-2.56-1.278-2.56-2.946 0-1.89.78-2.975 2.45-2.975.82 0 1.583.375 1.888.556l.14-2.14c-.236-.098-1.084-.445-2.35-.445-3.183 0-4.823 2.085-4.823 4.95 0 2.975 1.53 4.643 3.81 4.992l-.64 1.126.36.307c.125-.056.25-.112.515-.112.36 0 .516.196.516.42 0 .36-.238.526-.766.526-.375 0-.667-.125-.918-.222l-.277.723c.39.153.945.25 1.432.25 1.113 0 1.836-.57 1.836-1.32 0-.653-.446-1.015-1.14-1.015-.196 0-.392.027-.517.055l.36-.652c.07 0 .17.014.266.014.737 0 1.57-.126 2.392-.38l-.112-2.252zm5.605-9.858c0 .25-.154.444-.375.444-.25 0-.46-.097-.78-.222-.318-.138-.624-.194-.874-.194-.876 0-1.363.932-1.363 1.82h1.113c0-.25.152-.444.375-.444.25 0 .46.097.778.236.32.125.627.18.875.18.878 0 1.365-.93 1.365-1.82h-1.113zm.75 12.318h2.697l-3.086-9.704h-2.877l-3.225 9.704h2.503l.625-2.058h2.85l.515 2.058zm-1.002-3.92h-1.917l1.043-3.81h.03l.845 3.81zm3.606-.932c0 3.6 2.197 5.02 4.31 5.02 2.113 0 4.31-1.42 4.31-5.02s-2.196-5.02-4.31-5.02c-2.113 0-4.31 1.42-4.31 5.02zm2.655 0c0-1.89.53-3.156 1.642-3.156 1.1 0 1.626 1.265 1.626 3.156 0 1.92-.527 3.156-1.626 3.156h-.015c-1.098 0-1.627-1.236-1.627-3.156z"/></svg>