<svg xmlns="http://www.w3.org/2000/svg" width="800" height="800" viewBox="0 0 800 800"><path fill="#494543" stroke="#BEBEBB" stroke-miterlimit="10" d="M49.245 49.25L749.9 750.313l.193-.192L49.438 49.056M750.106 49.065L49.036 750.2l.193.196L750.3 49.26M50.37 49.26H750.3v-.275H50.37M.898 399.806h797.538v-.278H.898M.685 548.026h797.977v-.273H.685M.705 251.583h797.957v-.275H.705M48.934 50.172v698.99h.274V49.234M251.305.883L251.3 798.84h.273L251.58.882M399.525.96V798.43h.273V.96M750.158 49.354v699.93h.28V49.353M49.23 750.396h700.863v-.275H49.23M547.69.728v797.967h.275V.728"/><path fill="#494543" stroke="#BEBEBB" stroke-miterlimit="10" d="M547.904 399.667h-.142c0 40.897-16.576 77.922-43.378 104.724S440.558 547.77 399.66 547.77s-77.922-16.575-104.724-43.377-43.378-63.825-43.378-104.723c0-40.898 16.576-77.923 43.378-104.725 26.802-26.8 63.825-43.377 104.724-43.377 40.897 0 77.922 16.576 104.724 43.377 26.802 26.802 43.378 63.826 43.378 104.725H548.044c0-81.95-66.433-148.383-148.383-148.383s-148.38 66.432-148.38 148.383c0 81.952 66.43 148.384 148.38 148.384s148.385-66.43 148.385-148.383h-.14z"/><g fill="#494543" stroke="#BEBEBB" stroke-miterlimit="10"><path d="M750.137 399.668h-.14c0 96.742-39.21 184.324-102.61 247.724-63.4 63.398-150.98 102.61-247.725 102.61-96.744 0-184.33-39.212-247.728-102.61-63.397-63.4-102.612-150.982-102.612-247.724 0-96.744 39.214-184.33 102.61-247.726 63.4-63.398 150.983-102.61 247.73-102.61 96.745 0 184.324 39.212 247.725 102.61 63.4 63.396 102.61 150.98 102.61 247.726h.278c0-193.638-156.975-350.612-350.613-350.612-193.64 0-350.612 156.974-350.612 350.612 0 193.637 156.973 350.61 350.612 350.61 193.638 0 350.613-156.974 350.613-350.61h-.138zM609.23 399.668h-.14c0 57.832-23.44 110.19-61.34 148.09-37.9 37.897-90.257 61.338-148.088 61.338-57.833 0-110.188-23.44-148.09-61.338-37.896-37.898-61.34-90.258-61.34-148.09 0-57.833 23.443-110.188 61.34-148.09 37.902-37.898 90.257-61.338 148.09-61.338 57.832 0 110.187 23.44 148.09 61.34 37.896 37.9 61.338 90.255 61.338 148.088h.275c0-115.814-93.887-209.704-209.703-209.704S189.96 283.854 189.96 399.668c0 115.814 93.886 209.703 209.702 209.703s209.703-93.888 209.703-209.702h-.136z"/></g><path fill="#494543" stroke="#BEBEBB" stroke-miterlimit="10" d="M798.428 634.407h-.234c0 45.042-18.427 85.99-48.114 115.678-29.688 29.688-70.636 48.113-115.677 48.113H164.92c-45.04 0-85.988-18.426-115.676-48.113C19.557 720.395 1.13 679.45 1.13 634.407v-469.48c0-45.042 18.427-85.99 48.115-115.677C78.933 19.563 119.88 1.136 164.92 1.136h469.482c45.04 0 85.988 18.426 115.677 48.114 29.687 29.688 48.113 70.635 48.113 115.677v469.48h.469v-469.48C798.66 74.583 724.746.667 634.402.667h-469.48C74.576.667.66 74.583.66 164.927v469.48c0 90.344 73.916 164.26 164.26 164.26h469.48c90.345 0 164.26-73.916 164.26-164.26h-.234z"/></svg>