<svg xmlns="http://www.w3.org/2000/svg" width="168.25" height="137.25" viewBox="0 0 168.25 137.25"><path fill="none" stroke="#0079FF" d="M.902 86.484l-.1-.205.2-.3-.3-.3v-.104l.1-.102.1-.504.203-.4.102-.1.3-.81.1-.2.205-.1h.1l.302.1h.303v-.503l-.1-.2-.507-.706v-.2l.2-.203.204-.098.502.2.908.3h.1l.2-.2v-.1l-.2-.303-.504-.404-.1-.102.1-.198v-.102l.2-.2.102-.403.202-.305v-.3l.1-.2v-.1l.2-.305.405-.404h.3l.305-.4.1-.2v-.305l.1-.202.806-.203.102-.2-.102-.3.1-.102h1.31l.203-.202.402-.2v-.098h.103l.2-.406.4-.605v-.4l-.098-.102.1-.305-.2-.502v-.2l.2-.102.404-.2h.1l.305-.405.3-.805v-.1l.1-.104.304-.1h.2l.1-.1.305-.807.5-.703.204-.205.2-.1.1-.103.2-.1.306-.098.504.097h.3l.506-.3 1.208.202.302-.306.203-.2.2-.507.1-.1h.706l.1.2.604.105h.404l.3-.205h.102l.103.102.1.103h.2l.202.2h.303l.302.1h.203l.1-.2.102-.203.2-.102.2.102h.105l.2-.102.3-.2.204-.1H21.154l.305.2h.1l.1-.2-.303-.304.103-.1v-.1l.302-.1.805-.103.204.103.1-.102h.102v-.1l.1-.098-.1-.406.1-.1h.102l.203-.102.3.102h.102l.098.1v.605l.102.303.708.704.2.506h.1l.2.1.306-.1.1-.102.1-.302.304-.303.2-.502h.102l.3.1.104-.1.1-.302.1-.1.1-.098h.102l.303-.104.1-.303.202-.403.2-.2.203-.1.1-.102V65.826l-.304-.2v-.1l.09-.094.3.102.405-.102.1-.1.4-.305h.305v.1l-.1.102v.103h.2l.1.1h.202v.102l.403-.2.1-.206v-.2l.304-.2.3.1h.1l.105-.2h.1v-.306h.102l.1-.1.2-.1.305-.304h.3l.1.203h.405l.1.2.505.1.1.102.102.506h.2l.203-.302.2-.104.2.104.305-.203.3.1.305-.1.2.1.2-.1h.605v-.202l.1-.1.605.1h.104l.1-.1h.303l.1.1v.2l.1.1h.304l.2.206.305-.206h.1l.102.104-.102.2.102.103.504-.302.2.102.2-.102H39.892v.2h.607l.198-.1.1.1H41l.1.2h.305v-.098l-.2-.102v-.1l.4-.305.203-.2H42l.1.2h.405v.203l.1.102h.4l.306.1h.2v.2l.2.2v.204l.304.102.2.1.305.1H44.82l.102-.1.104-.2h.1l.1.1.1.2.202.1.202.1v.104l.1.1h.102l.3-.204v.504h.206v.305l.1.1.1-.1.2-.102h.102l.104-.3.1-.103.4.2.105-.1.1.1h.1l.1-.1v-.1l-.1-.1.1-.102v-.104l.102-.098.1.1.204.103h.1v-.104l-.1-.098.1-.2v-.2l.2-.1.1-.105.103.104h.098l-.1.1.1.103h.104l.1.1.2-.1.102-.102h.203v-.1l-.104-.103.104-.2.1-.1h.102l-.102-.2h.4v.2h.205l.2-.2v-.103h.2l.206-.503h.1l.1.1v.1l.2-.1h.1v-.1l.204-.204-.203-.1-.1-.2-.1-.1.1-.102.2-.104-.1-.2.203-.1v.1l.1.102v-.304l.2-.198h.202l-.2-.104h.2l.104-.102.1-.2h.1l.2-.2h.1v.503l.102.104v-.205l.203-.1v-.2l.2-.102.1.1.102-.1h.104l-.103-.1.104-.104v-.1l.202.1v-.1h.1l.2-.2h.1l.105.098h.1v-.1l-.1-.1.1-.204h.2v.104l.1-.104h.205v-.1h-.222l.204-.102v-.2l.1.108.1-.102h.2v-.1l.2-.104v-.102h-.098v-.198l.203.1.1-.1.3-.2h.1l.205.1-.102-.202h.202l.1-.104v-.198l-.1-.2h-.1.1l-.1-.103.1-.1-.1-.103-.205-.1v-.1H56V58.785h.1v-.204l-.3-.2v-.2h-.1v-.103l-.1-.102h.1l-.1-.1.1-.102h-.1l.1-.1-.1-.1h-.105l-.1-.1h.1l-.1-.105.1-.2-.1-.1v-.198l-.1-.203-.1-.102.1-.1.1-.1.1-.1h.105l-.203-.103h.1l.103-.104-.104-.1v-.1l.204-.1v-.1l.1-.098v-.1l-.1-.103v-.1l.1-.102.2-.2.1-.203v-.2l.104-.1h.102v-.103h.2l.2-.2V53.944h-.1v-.3h.2v-.505l-.1-.2-.2-.306-.303-.3-.103-.2-.1-.2-.2-.1-.305.1-.3-.1-.2-.1h-.203l-.2.1-.506.1-.1.1h-.202l-.1-.4-.204.302-.1-.102h-.1V51.23l-.1-.1-.103-.2-.304-.105h-.1l.1-.2h.204V50.324h-.104v-.103l-.1-.104h.203v-.1h-.104v-.1l-.1-.1h.1v-.203l.104.102.1-.102v-.305l-.1-.1.3-.2h-.1v-.2.104l.2.1v.102h.1v.1l.306-.1.1.198.1-.1-.1-.1h.2v.1l.1-.1-.2-.2h.1v-.104h.102l.104-.102.2.102v-.102l-.1-.198.1-.102v-.098l-.1-.102h-.098v-.104l.3-.1v-.102l-.1-.1h.2v-.2h.204l.1.1.1-.1-.1-.105h.1l-.1-.2.1-.1h.302V47l.1-.1v.1h.104v-.1l-.104-.104-.1-.102H55.7l-.204-.1.104-.1-.104-.1h.304l.1-.103-.1-.098.1-.102v.102l.2-.102.104.203.102-.102-.102-.1.2-.1.202.1-.1-.2.1-.1v-.103h.1l-.1-.1.1-.202.1.202v-.304l.105.102v-.102l.1.102h.102v-.303.102l.1-.102.1.102h.102-.104v-.102h.1v-.1l.306.1-.102-.1.102-.104.1.104.1-.104h-.1v-.098h.1l.1-.1v.1l.102-.1h-.1v-.3h.1v.1l.204.102-.102-.102h.102v-.1l.1-.1v.1-.1l.1.102v-.102h.1l-.1-.104h.202l-.1-.1.2-.1v-.102l-.2.102v-.102h.1v-.1h-.2l.3-.1.105-.105-.105-.1-.2-.103v-.1l-.1.1-.103-.1.102-.1-.2-.1.1-.1-.1-.105-.102.104v-.104l-.103-.102.302-.1-.1-.1h-.1l-.104-.2h-.1l-.202.1.1-.203h-.1l-.1-.102h.1l.1-.1h-.1v-.1h-.1l-.1-.202h.2v-.1l-.1-.304.2-.202-.302.102v-.102l.102-.1-.2-.104v-.501h-.206v-.192h.1-.1l-.1-.102.1-.2.1-.1-.1-.102h.1v-.304l-.2-.1h-.2l.1-.1v-.305l-.1.104-.1-.103.2-.102-.102-.1h-.1.1l-.1-.2-.104.102-.1.1-.1-.1v-.2H56.5v-.207l-.1.104v-.202h-.1l-.103.1v-.1l-.1-.2-.1.1.1-.198-.1-.102v.102l-.2.2-.1-.1.1-.1-.1-.103h.1-.1v-.103h-.205v-.097l-.2.1v.103h-.1v-.304h-.2v.1l-.1-.1v-.1h-.304l.1-.1h-.1l.1-.102h-.1l.1-.104-.1-.1-.102.1-.1-.1v.1l-.1-.1.1-.1h-.203v-.202l-.1-.198-.1-.104v-.602l.1-.105.1-.2.204-.1.098-.305-.1-.4.1-.1.102-.105.2-.102.304-.5.1-.202h.1l.103-.3.1-.102v-.203l.103-.102-.104-.1.104-.2.2-.1v-.103h.1l.1-.303-.1-.296h.1l-.1-.102-.1-.1h.1l-.1-.2h-.102l.1-.102v-.1l-.1-.104h-.1l.1-.1-.1-.1.1-.1h-.1v-.1l-.104-.1.204-.102v-.1h.102l-.1-.103.1-.1v-.304l.1.103v-.102h.102v.103l.1-.102v-.103h.103v-.1l-.104-.1.105-.1v-.306H56.1l.104-.098H56.1l.205-.1v-.2.1-.1h.2v-.102l.102.102v-.102.102h.304l.1.1.202-.1h.305v-.102l.1-.1.102-.104v-.102h.098v-.1h.202v-.2l.1.1h.104l.102-.1h-.102.102l-.102-.1h.102-.102v-.103h.102-.102l.102-.202.1.1v-.1h.1v-.102h.1l.102-.1h-.1.1l.1.1-.1.2.204-.1.2.204.1.102.102-.102.1.102.103-.102.4-.305 1.41-.3 2.014-.504h.204v-.1l.102-.1v-.204l-.305-.505.105-.1-.104-.1.204-.4-.203-.505v-.304l-.3-.3-.2-.404.1-.505-.1-.198.1-.2v-.102l-.403-.1v-.103h-.1l-.2-.2-.305-.102-.4-.303v-.692l.2-.604v-.602l.3-.404.205-.2.2-.1.3-.104.203-.2v-.1l-.303-.103.204-.202h.2l.1-.4-.503-.605h-.302v-.705h-.2l-.105.1-.2.2-.2-.4.1-.1-.1-.304.3-.404.1-.302.206-.403.1-.2.1-.1-.2-.102v-.203l-.204-.1-.2-.2v-.2l.1-.102.806-.504.104-.204.5.103.604.102.404.2.404.1.4.204.305.102.4.3.203.1.2.102.3-.1h.103l.202-.102.2.1.2-.2.1-.1h.105l.2-.2h.1l.202.1.103-.1-.103-.404-.1-.1v-.102l-.2-.103.1-.3.1-.1v-.203l-.2-.104-.1-.1v-.2l-.102-.2.102-.506.1-.2.2-.504-.2-.304h-.1l-.305-.102v-.2l-.1-.2v-.2l.303-.2v-.302h.102l.3-.104.1-.1.104-.1-.104-.202.103-.203.2.103.3-.104v.103l.104.3h.302l.2.305.394.2.4.402h.104l.1.103h.1l.303.1v.2h.203v.506l.1.1h.2l-.1.3-.1.104v.1l-.1.2h.1l.1.102h.2v.2l.105.104h.4l.2-.104h.204l.1.304h.2v-.1h.1l.404.2.302-.3-.1-.305h.1v.1l.203.204h.1l.1-.105h.2l.105.203H74.235l.102-.1.1-.404.203.1.2-.3.102-.204h.1v.104h.2l.305.3-.1.405h.198l.102.2.304.1v.704l-.1.1v.606l-.504.505-.1.1v.2l-.204.105v.2l-.2.1-.102.2v.105l.102.1v.2l-.102.102v.1l-.2.1h-.203v.104h-.2l-.1.102h-.305v.2l.304.2v.305l.1.2.102-.1v.1l.1.2.403-.1-.1-.1.1-.1.103-.102.1-.1v-.204l.1-.1v-.2H75.85l.105-.305-.104-.102h.203v-.3l.2-.2.505-.104.704.402.1-.1h.102v-.1h.2l.103-.1h.102v-.204h.1v-.102h.1l.1-.1.203.1.2-.1.2.1h.506l.1-.1v.1-.1h.1v-.1h.1V14.66l.105.105v-.104H80.185v-.1h.202v-.1l.204-.3.1-.205-.1-.1.1-.2h.1v.1l.103-.302.1.102v.1l.204-.1.1-.102.1-.304h.102v-.1h.1v-.202l.1.102v-.102l.304-.304v-.1h.2l.102-.1h.203l.2.2h.1l.2-.1.205.2.3-.2h.085v.1h.1v-.1l.104-.102H83.7l.203-.1.102-.204h.1v.104h.1l.304-.205.3-.3h.1v-.2l.102-.105v-.1l.1.1h.104v-.2h.3l.103-.2.098.1.104-.2-.104-.204.104.1h.1v-.1h.302l-.1-.102v-.1l.2-.1.103-.2.1.1.102-.203.1-.102.1.103.2-.2v-.2l.204-.102.1-.203.302.104v-.095H87.84v-.1l.2-.1-.1.1.2.1.905.104h.104l.1-.105.2-.3.2-.404.104-.1v.1l.1-.1v-.2l.605-.204v-.1l.198.1v-.2h.2l-.1-.1.2-.2.105.1.1-.1h.1v-.102h.102l.3-.104v-.1h.104v-.1h.2l.1-.1h.2v-.1.1l.203-.3H92.775v-.204l-.1.1h-.1v-.2l.1.1V6.306l.1-.1h.305l-.104-.105h-.102l.093-.1-.102-.1h.102l.104-.1-.204-.1v-.1l.305.1.1-.1-.1-.102H93.47v-.102h.102l.1-.1h.305v-.1l.1.102.1-.102v-.1h.102l.203-.1V4.79l.1.104.1-.202v.1h.202v-.2h.103V4.39h.102v-.1l.2.2v-.2l.1.1.1-.1-.1-.1.1-.203h.102l.104.1.1-.1h-.1l.1-.1.1.1.1-.3h.103l.098-.1H96.403l.2-.205.102-.1v.1-.1h.2v-.1h.104v-.1l.2.1v-.2h.404l.1-.103v.102l.1-.103.102.102h.1l.1-.103.1-.102h.105v-.1l.102.1.1-.1.2-.102.202-.2.303-.1.1-.104h.202v.104l.103-.104v-.1l.1.102.1-.1h.1l.102-.102h.1l-.1-.1h.204v-.1l.3-.1.3.2.104-.1h.603l.104.2v-.1h-.103l.104-.102.102.1v-.198h.3V1.467l.1.104v.202h.105v.1h.3l.2.2h.105v-.2l.4.1v.202h-.1l.1.104.2-.104.105-.3h.1v.2l.1.1h.1l.102-.1v.1h.1v-.1h.1V2.277h.205l.1-.104v.104h.1l.1.1v-.1l.102.1.103-.203h.2v-.102H105.483h-.1l.204.1v.105l.1-.104h.1l.1.203h.102v.2-.2h.1l.105.2.1-.1.1.1v-.1h.1l.103.1v-.1l.1.1v-.1h.1l.104.1v-.1.2h.2l.102.1v-.1l.1.1.203-.1v.1h-.103l.103.102.1-.102v.1l.102-.2.2.1h.1l-.1.102h.1v.103l.1-.103.105.204h.2l.1.1-.3.404v.1l-.203.2-.2.705-.102.304-.1.1-.404.907-.102.604v.1l-.1.305v.197l.1-.1v.3h.102v.204l-.2.102.2.1h-.2.1l-.1.1h.1l-.1.1.1.102v-.102h.1v.2h.1l.102.104h.203l.603.2h.3l.102.1H108.82l.1.1h.4l.102.1.104.105v.1l-.104.102v.1h.203l.1-.1h.202v.1H110.13l.1.102.102.098.503.104.2.1h.103l.2-.1h.203l.1.2.506.3.1.103h-.1v.203l.1.2h.102l.1-.2.1.1v-.2h.204l.102-.103H113.154V9.93l-.2-.2.1-.1h.2l.103-.102-.102-.204.102-.1h.203v-.1l.1-.1h.1l.1-.1.103.1.304-.2.4-.203h.303l.2-.2.1-.1h.103l.203-.1.102.1h.2l.1-.1v-.104l.706-.1H117.088l.1-.1h.102l.202.1v-.1l.402.2h.302l.2.203h.103v-.1l.098.1.205.1.1.2.1-.1h.1l.1-.2.103.2h.104l.2-.1h.1v.1l.305.2.1-.1.302.1.1-.1.305.203h.2l.1.1.102.303v.1h.102l.1.103v-.105l.1.305h.103v-.1l.1.1.1.1h.1l.104-.1.1.1h-.1v.1l.2.1.1.204h.2v.1l.103.102.403.3.2.204.504.1.102.2.203.2.2.105v.1l.2-.1h-.102.2v.1h.105l-.104.1.204.102.1.1.1-.1.2.2v-.1l.1.2h.105-.105l.305.203.198.2.102-.2.203-.203.2.104.102.1.1.102.203.3h.102l.3.105v.2h.305l.3.2.305.405h.5v.2l-.1.404.404.1.3.2.305-.1.1.1.2.305.304-.304h.102l.1.2.1.105.405.1.1.2.102-.1.2.202.204-.2.3-.2.203.1.2-.1.1.1.202-.1v-.205h.1l.104.204h.2v.2l.1.1.102.103.2.1.203.203.1.302h.103v.303h.2l.204-.102.604-.2.502-.102.104.102h.2l.402.2.304-.102v-.2h.2l.1-.1h.203l.102-.1.2-.1.1-.306h.203l.2-.1.404-.1.102-.1h.1l3.624 3.323 1.412 1.308 1.106 1.108.406.304v.1l.3 2.115.1 1.613H145.308l.2-.104h.103l.204.203.3-.1.205-.105h.3l.3.203h.103l.303.102.2.1.203.1.1-.1.1-.3h.1l.404-.105.302-.3.303.1.3-.2h.405l.3-.305h.102v-.3l.104-.1.1-.103v-.203l.2.203h.605l.103.502h.3l.403-.102.103-.1.1.1.104-.2h.1v-.405h.2v.1l.404.205.103.2-.102.2.103.204.2.1.303-.1.102-.102h.1l-.1-.203.1-.2h.2l.2-.1h.104v.1h.1l.2.3v.104l.305.103.2.4h.1l.102-.2h.1l.204.3h.1l.102.105v.1l-.102.102.2.1v.1l.404.1-.1.205.1.2h.2l.2-.1h.306v-.2l.1-.204.2-.1.1.1.104.1.1-.1.202-.3.1.1h.102l.302.3.102.404.1.102v-.102l.2.2v-.1l.104.1h.2l.1.1.103-.1.2-.1.104.1h.1l.1.1.1-.1h.505l.2-.1.103.1.104-.1h.2l.2-.1h.1l.1.2v.1h.105v.204h.102v.1h.1v.2h.1v.103l.1-.1.305.203h.1v.4l-.203.1.103.1.1-.1v.1h.102v-.1h.202l.1-.1v.2h.103l.2-.1.1.1h.202v-.1l.203-.1v.1l-.102.203.102.102h.102l.1-.205h.1l-.1.305v-.1.198h-.1v.102l.1-.102.1.102v.1l.1.104h-.1v.102h.202l.1.1h-.1l.1.102h.203l-.1.1h.1v.1h.1v-.1h.1l.103.2h.1v.104h.104v-.104h.2v.203h.3v-.204h.504l.1.104h.102-.102l-.2.3v.102h.2l.305.303v.2l.2.102.1.198v.205h.204v.2l.1.1v.203l-.305.2v.103h-.1l-.1-.102h-.102l.102.2h.1l.1.2-.1.404-.2.102v.1l-.204.102v.104l-.302.4.102.204.1.1.1.3h-.3l-.1.102-.2.104-.105.4h-.098l-.102-.1h-.1v-.1h-.102l-.1.1v.2l-.202.1v.103l-.102.1-.1.1-.2.506-.102.2v.1l-.102.305h-.2v.202l-.102.2-.2.1-.103-.2h-.102l.102-.2-.102-.204-.1.203-.1.303-.1.203h-.103l-.203.4-.3.306-.102.1h-.1v.2h-.104l.105.1h.1v.305h.102V37.437h-.2l-.305-.1-.1-.1v.1h-.2l-.305-.2h-.102l-.1.1v.1l-.1-.1-.1.1h-.204l-.2.404v.103l-.102.2-.1.504-.202.4v.204l.104.103.1.1-.1.2v.305l-.205.1-.2.505-.2.1.2.1.2.1h.403l.102.103.2-.102.204.102v.202l.102.1v.2l.1.103-.1.1v.104h-.2v.1l-.105.102v.3l-.1.205h-.202l-.1-.204-.202.205h-.102l-.1.1-.2-.202h-.1v-.102l-.304-.2-.102.102-.3.1h-.105l-.1.1h-.1l-.202-.1H158.02l-.103-.1v-.102h-.3l-.205.102v.304l-.2.4-.2.504-.304.3h-.102l-.1.406v.2l-.3.604v.305h.2v.103l-.1.604-.204.3.104.505.3.1v.188l-.2.198.102.303-.102.1h-.1v.206l.1.1v.2l.3.203-.4.1-.204.3h-.1v.2h-.2v.204l.2.102-.2.198.102.102v.403l-.406.2.305.204.102.102.3-.102.203.102.2.2.506.1v.202l.2.304h.1v.2h.203v.303l-.104.2.104.103.1.1.202.505.302.2.2-.2h.303l-.102.1.102.204h-.102V53.147l.2.1.104.2.2-.2h.1l.2.305.103.2.104-.304v-.2l.1.1.1.204.2.102-.1.198.1.102.205.1.1.104v.302l.098.1h.102l.1.305.102.1.305-.1.1.2H161.346l.205.3-.102.203.102.2-.102.202.2.202.102.2-.102.2.102-.098.198.1.102.202v.102l-.5.704-.806.4v.103l.1.104.3.197.2.102v.402l-.398-.202-.2-.102h-.105l-.303-.2v-.1l-.198.1-.104-.2h-.102l-.2-.204h-.2l-.103.102-.2-.102-.102.102h-.2v-.102h-.603l-.404-.1-.1.2-.302-.302h-.302l-.2-.3h-.102l-.305.2-.3.2h-.304v.306h-.398v.2l-.103.2.102.102-.205.104v.2l-.3.1-.1.2-.102.105-.202-.105-.102.104-.1-.105-.305.202-.098-.1v-.204h-.4l-.103.102-.204-.102h-.202l.102-.3h-.102v-.1h-.1l-.2.1.1-.203-.1-.2h-.104l-.1-.103-.102.102-.1.1-.1-.1h-.1l-.306.402-.1.102-.1-.102h-.1l-.105-.202-.102.202h-.1l-.1.102 1.913 1.813.102.704-.4.103-.105-.102-.3-.1h-.405l-.102-.103h-.1v-.2l-.275-.107h-.205v-.2l-.1.1-.1-.1v.1h-.1l-.1.1-.206.2h-.1l-.1-.1h-.1v.404h-.1l-.102-.1-.2-.104-.102.104-.1.3h-.3v-.2h-.205l-.1.302h-.102l.103-.2-.302.1v.2h-.202l-.4.204v.2l-.1.102v.1l.1.102v.104h-.1v.2l.1.1-.504.404-.303.3-.1.102v.404l.1.1v.607h-.2v.403h.303l-.203.1-.2.102-.2.3.1.1 1.31.103h.403l.5.1h.103v.203l-.102.91v.3h-.1l-.102.803.102.1v.1l-.102.105-.1.1h-.1v.1l.2.102-.1.1.2-.1v.1h.1l-.1.102h.2l.204.202h.2l.1.102.505.098.1.1.103.607v.703l.202.2-.104.105.206.1v.202l-.102.1-.104.1-.1.104-.1-.104-.1.104-.2.1H148.16l-.2-.303v-.1l-.1-.1-.1-.2-.202.1h-1.209l-.203.3.104.204-.103.2h.104l-.103.1.104.103h.1l.2.303.103-.102v-.318l.198.2h.105l.303-.1.1.1.1.204v.102h.206l.2.098.1.2.102.103v.203h.1l.104.1.3.102v.1h.2v.102l.104.203h.1v.1l.102.1H149.376l.103-.1v.2h-.103l-.4.305h-.204v.2l-.1.103.203.197-.104.205.104.1h.1v.2h.302l.1.202.102-.103h.104v.205l.1-.104v.306H149.984l.102.098.104.103v.1h.1l.1.1v.205h.2l-.1.2.1.1.102.103v.204h.1v.098h.103l-.104.102.105.1v.2l-.104.105h-.098v.2l.1.1-.1.102h.1l.204.098v.305h-.205l-.2.1.103.102h.202l-.104.1v.102h.307l.102.103-.103.2h-.1l-.102.1h-.104l-.098.3v.205l.202.1-.104.1v.102l-.4.305V80.853l-.1.1v.103l.1.104v.2l.2.1-.1.103v.098l-.3.405v.102h-.505l-.305-.102-.3-.1v.2l.1.202-.1.303.1.2.1.202v.102l-.3.1v.102h-.304v.2h-.202l-.1.1h-.1l-.105.505-.1.1h-.202l-.102.206-.2.1h-.203l-.1.1-.102.3.103.106-.102.098V85.49l-.1.206.1.1-.2.102v.2l.2.1.103.202h-.102v.102l.202.1-.1.2-.102.306h-.1l.1.2v.1h-.1v.604l-.102.102-.202.203-.1-.104-.303.104v.2l-.202.3h-.1l-.1-.1-.2.1h-.405l-.102.102-.1.403-.1.098.1.202v.104l.1.2-.198.202v.305l-.102.1-.104.098v.103l-.1.305-.103.1v.2l-.1.202.1.104-.198.2h.1l-.1.1-.103.2-.104.1v.104l-.1.303-.302.2-.1-.102-.098.102v.102h-5.139v.102l-.1.1v.506l-.104.1-.1.3.1.1-.1.105h-.303v.1l-.1.102-.203.1-.102.102-.1.1h-.2l.1.204-.202.098v.1l-.104.303h.205v.104l.202.5.503.1v.909l-.1.198v.305l-.102.1.102.303V98.2h-.203l-.102.1v.102l-.2.3v.202l-.1.102-.102.1v.102l.102.1h.503l-.102.205.103.098v-.13l.102.098-.102.1-.102.102h-.1l.1.1-.2.102-.1.203-.1.102v.1l-.103.1-.104.1.104.1-.104.104h-.1l.1.103.104.3h-.104v-.1h-.198V101.5l-.102.1.102.1-.102.1h-.2l-.1.1h-.404l.1.1-.202.405.2.2-.1.1-.1.104-.203.1-.102.1.102.1-.2.1v.202l-.1.104.1.1-.1.2v-.1l-.103.1v.2l-.304-.098-.1.098-.3-.098h-.205l-.1.098-.302.104h-.302l-.102-.104-.2.203-.1.1v.1h-.102l-.102-.1-.2.1-.2.202v.102l.2.104v.1l.2.2h.102l.102.1h.202l.2.204.104.1v.1h-.205l-.1-.1V105.834l-.302.305v.1h-.203v.198l-.1.102v.1h-.4v.405h-.104l-.1.198-.102.102-.1.104v.1l-.102.1v.1h-.1l.2.405-.1.102v.2l.1.1v-.1l.1.1-.1.202.1.1-.1.1-.1.103-.2.1-.103.102-.1.102v.4l-.1.2v.105h.1l.1.1-.2.102.1.1-.1.102.1.203-.2.1v.1l-.2.1h.1l.2.1-.1.1-.1.103h-.205l-.1-.102-.1.103v.305l-.102.1v.2l-.1.203.3.103v.1l.204.3-.104.105-.2.102-.1.3h-.2l-.105.1v.1l-.1.105v.1l-.3.102v.1l.1.102-.3.202-.105.098-.302.402.103.104h.1l-.2.2.1.1h.305v.2l.1.102h.102l.1-.102H130.42l.206.102.1.104h-.1l.1.2.1-.1.1.1v.506l-.603.2v.1l-.4.1h-.306l-.3.1h-.1l-.1.206-1.01.3-.102.1-1.008.405-.704.3v.203l-.2.102h-.202l-.204.1-.4.102-.303.098-.1.1-.606.205-.604.3-.1.103-.403.203-.805.2-.506.2v.104l-.402.4-.604.2-.2.105h-.104l-.4.3h-.1l-.306.1-.198.1v.103l.1.104-.1.1-.2.3-.406.1v-.1h-.404l-.3.1v.204l-.2.102-.105-.2-.098-.304v-.102l.302-.2v-.404H117.833l-.2-.1v-.103h-.103l-.404.303-.1-.102v-.1l-.102.1h-.1l-.1-.1h-.103l-.1-.102v-.098l-.1-.104-.103.104-.1-.104-.1.104h-.204l-.3.098-.2-.098-.105-.104-.102.104h-.198l-.102-.104h-.1l-.205.104v.098l-.3.2-.402.304h-.2l-.1.104-.406.2h-.604v-.1l-.1-.1h-.102l-.1.198-.505.102-.098.1-.102-.1-.2-.102v-.303l-.103.104h-.1l-.1.2h-.103v.202h-.1v-.2l-.102.1-.202-.2h-.202v.1h-.2v.2l-.1.1v-.1l-.104-.2h-.2l-.1.102h-.305l-.202.305-.1-.106h-.1v-.1l-.202-.1h.102l-.102-.102v-.1H108.552l-.4.3H107.946l-.2.1-.2.106-.204-.105-.1.105h-.1v.098l-.103-.098v.2h-.2l-.104.1-.6.2-.205.104h-.1l-.3.1v.102h-.104l-.1.1h-.102l-.1.102-.2-.2h-.305v.1l-.402.1h-.104v.198h-.1l-.1.104v-.104l-.2-.1V123.188l-.2.102-.104-.102v.402h-.2l-.102.103-.1-.102-.1.202-.102.104h-.306l-.1.2-.2.1h-.104v-.1l-.2.1v.1l-.2.1-.1.105-.105-.103-.1.104-.1-.403v.1l-.1-.1h-.202l-.1.1v-.1l-.105.2h-.2l-.1.1-.1-.1h-.405l-.1-.1-.202.2-.1.104h-.203v-.202h-.4l-.205-.102-.1.102h-.202l-.1.203v.203l-.1-.102-.404.403-.3.1v.102l-.205.102v.1h-.2v-.1l-.303.1-.102-.1-.2.1-.1-.1h-.1l-.304.1-.102.102v.2l-.3.104v.1l-.204.2v.1l-.1-.1h-.202l-.2-.1-.203.1-.3-.2h-.102l-.203.2h-.2l-.2.1h-.105l-.1.1h-.1l-.1.1-.102.206v.1l-.2.1-.205.102H92.518l-.1-.102h-.1l-.105.102-.2.1-.1.305H91.31l-.302.2-.104.1-.4-.1H90v-.1l-.202.1-.304.1-.3.204-.204-.103-.1.104-.2.1h-.102l-.1.103-.205.1h-.1l-.2.2-.1.105v.098l.1.102-.2.2-.404.1h-.1l-.202.1h-.103l-.502.306.1.102-.1.2v.1h-.1l-.105.103-.3-.103-.505.102-.1.1h-.2l-.105.2h-.2l-.3.2h-.305l.1-.3-.1-.102-.1-.1h-.2l-.102-.102-.1-.102h-.05l-.3-.2h-.102l.1.1-.2.505-.203-.103-.4.303h-.102l-.104.1h-.1l-.402.104-.104-.104v-.1l.104-.102.302-.2-.1-.202h-.202v-.203l-.202.203h.1l-.1.102h-.2l-.202.3-.505.103-.2.1h-.104l-.2-.2.1-.1v-.102l.204-.2h-.104l.104-.204h.1l-.1-.2v-.1l-.204-.1-.3.2-.305-.1-.1.1v.102l-.1.098-.1.102.1.102v.102h.2l.104.3.2.103v.1h.1l-.3.104-.104.1-.2-.1h-.2v.1l-.1.102h-.105v.097l-.3.102-.102.1-.404.103-.1.402.2.2h.102l.303-.1.3-.1h.504-.1l.2.304v.196h.105v.2l-.104.103h-.1l-.1.202v.102l.1.1.1.1h.105v.102h-.204l-.1-.102h-.1l-.1-.2-.1-.1-.105.2h-.2l.1.504v.1l-.1.102-.2.1h-.1l-.103-.1v-.2l-.203-.103v.102l-.2-.103v.102h-.304l-.1.2h-.1V133.68h-.1l-.202.105h-.1v-.305h-.103V133.18h-.2v-.103l.1-.2h-.1l-.2.097v.104l-.2.2h-.204l-.102.103-.1.1-.2.1-.203.103v.104l-.2.1-.1.102-.304-.103-.302.2-.403-.1-.3.1-.2.2h-.204l-.2.203-.2-.1.1-.104.1-.3v-.1l-.1-.306v-.1l-.1.1-.505.102-.1-.102-.103.102-.502.203-.1.2-.105-.1h-.2v-.2H71.41l-.204.3-.3-.1-.305.1-.1.1-.3-.1-.102-.2-.104-.1v-.104h-.1v-.1h.203l-.097-.36.104-.1-.104-.1v-.2l.204-.403.2-.104v-.1h.1v-.102l.102-.1v-.1h-.302l-.1.1-.204-.297h-.1v-.104l-.1.103h-.2l-.304-.205v.102l-.2-.102v-.1h-.2l-.1-.3h-.205l-.1-.103.1-.104-.1-.1v-.1l.1-.1.205.1v-.1l.3-.1.1-.1.205.1.1-.1.1.1-.1.1h.1l.2-.1v-.204l-.1-.1-.1-.102h-.2l-.105-.1v-.102l.304-.1-.305-.305.202-.2h-.303v-.2l.303-.303v-.2l-.1.1h-.103l-.2-.1v-.103h-.2v-.2h-.504l-.1-.102-.2.102v-.2l-.504-.202.1-.1v-.205l-.2-.1h-.105v-.1l.105-.1-.104-.1h-.198l-.1.1v-.1l-.102-.102h-.303l-.2-.103v.104l-.302-.103-.1-.1h-.105v-.102l-.3-.1v-.1l.1-.305-.1-.102.1-.2h-.2l-.1-.198h-.105v-.104h-.1v-.202l-.102-.102v-.1h-.1v-.102h-.1l-.1-.102h.1l.2-.2-.1-.2.1-.102-.1-.1v-.104l.1-.1.1-.2.1.1-.1-.2.305-.203-.1-.1.2-.505-.1-.104h.4l.104-.298.4-.1.202-.2v-.105h-.2l-.102-.3-.2-.103-.204-.203-.3.106-.2-.105h-.507l-.1-.1v-.2h.1l.1.1.202-.1h.203l.3-.1v-.1l-.2-.105-.203-.2.104-.202h.1v-.102l.2.103.102-.102v-.097h.1l.104-.104.3.2h.102V120.308l-.1-.102-.102-.2h-.1l-.1-.1-.204-.306v-.2l-.2-.1.1-.202-.2-.2.1-.103h.1l.102-.1.1-.205-.1-.1v-.098l-.2-.303h-.202l-.104-.204.104-.2.2-.1v-.103l.3-.303-.1-.2h.1l.105-.1h.2v-.608l.1-.2-.1-.202v-.102l.1-.1v-.2l.605.1.2-.1v-.306l.2-.098h.104l-.104-.2.104-.103h.2v-.202l.2-.1v-.102l-.1-.1.1-.102v-.098l.102-.203v-.102l.103-.1h.102v-.1l-.205-.204-.1-.102-.102-.2.1-.1v-.2l.204-.203-.103-.1v-.2l-.1-.102V111.834h-.202l-.2-.102h-.204l-.2-.098v-.1l-.403.197v.103l-.2-.102-.102-.097.1-.1h-.1v-.102l-.1-.1h-.1l-.102-.204-.103-.1v-.507H65.667l-.1.204h-.102l-.104.1-.1.1-.2.303-.1-.2-.1-.103v.102h-.205l-.3-.2-.1-.1.1-.206h-.305l-.1.105-.1.1-.4-.1h-.205l-.1.1v.1l-.1.1h-.2v.102h-.105v.1l-.3.102-.102.103h-.1l-.1.1h-.204v.102l-.1-.102-.102.102-.2-.102-.104.102-.1-.102h-.202l-.2.102v-.102l-.1.102-.104-.102h-.102l-.1-.1h.1v-.104l-.1-.202h.1l.102-.2-.102-.2.102-.105.103-.098-.103-.102-.2-.1-.1-.2v-.105l-.102-.2h-.1l.1-.1-.2-.2v-.305l-.105-.2v-.1h-.085l-.102-.204-.2.1v-.202l.1-.1v-.1l.1-.1h-.504v.1l-.1-.2-.202-.304v-.102l-.1-.1.1-.305-.303-.3.203-.1v-.203h.2v-.104l-.304-.1-.102-.102h-.1l.1-.3-.1-.202-.1-.303-.103-.303.102-.102v-.2l.1-.302-.1-.102-.2-.1-.102-.2h-.203l-.1-.202v-.2h-.302l-.203-.202-.2-.404.2-.502.203-.404-.203-.404.203-.102.102-.3h.1l.1-.1.1-.403h.102l-.1-.2.202-.205v-.1l.102-.1.2.1h.503v-.1l.103-.1.1-.2v-.165l.102-.2v-.203l-.2-.098v-.306l-.2-.102v-.304h-.105l-.2-.4.1-.102-.1-.203v-.2h-.1l-.103-.202-.403-.1-.2-.103h-.2l-.305-.3-.302-.1-.1-.202h-.204l-.3-.203v-.1l.1-.102v-.1h-.1v-.102l.1-.104h-.1l.1-.098h-.1l.1-.102-.1-.1.1-.2h-.1v-.308l-.1-.3.2-.1-.102-.103h.1v-.302h.102v-.292l.1-.203h.1l.204-.3h.1l.2-.505v-.102l-.2-.303-.1-.2h-.1v-.302l-.104-.203h-.1l-.302-.1-.2-.4-.402-.102-.2-.2h-.203l-.2-.302h-.507l-.1-.305-.404-.2v-.304l.204-.1v-.203l-.1-.2-.205-.204-.3-.3v-.1l-.102.1-.1.1h-.204l-.2.2h-.405l-.2.1v.104h-.404l-.2.102v.3l-.3.305h-.203l-.2.1-.2-.2-.1-.105-.206-.2v-.2l-.502-.407h-.102l-.3.102-.2.1-.305-.1h-.5l-.502.203-.204-.104h-.1l-.2.305-.102.1v.305h.102l.1.102v.1l-.1.2v.402l-.102.2-.304.306h-.1l-.404-.205-.2-.3-.1-.506-.406-.3h-.1l-.1.103v.502l-.1.2-.102.2-.204.306-.3-.104-.1.303-.405.2h-.3l-.305-.1-.2-.202-.304-.098-.1-.305h-.203l-.1-.1-.1-.303-.305-.502-.2-.102-.1-.104h-.305l-.095.103.1.102-.1.5v.103l.506.502v.104l-.102.2h-.1l-.204.1h-.502l-.103-.1-.2-.2-.302-.104h-.303l-.2.104h-.404l-.4-.104-.504.104h-.2l-.506.2h-.704l-.304-.103h-.402l-.202.103-.4.4-.305.104h-.302l-.1-.104h-.305l-.505-.2h-.1l-.3.1-.405.1h-.704l-.302.206-.1.1-.105.3.104.203v.1l-.104.102-.2.2-.202.405V94.243l.202.3-.1.505.2.506v.4l-.2.405-.102.1h-.2l-.906-.605-.1-.1.1-1.715v-.3l-.1-.808-.2-.502-.1-.205-.405-.1-.2-.1h-.405l-.1.1-.404.807-.4.908-.203.2-.604.403v.1H28.4l-.2-.1-.503-.102h-.102l-.404-.603v-.2l-.1-.304-.504-.906v-.807l-.1-.2v-.507l.204-.805.2-.2h.3l.203-.1v-.404l-.1-.1h-.104l-.5-.1-.306.1-.3.198-.305.102-1.21-.102h-.3l-.406-.398-.095-.104-.202-.402-.305-.102-.4-.098-.1.098h-.305l-.4.102-.304.1v.102h-1.21l-.504-.102h-.707l-.6.102-.303.2h-.605l-.2-.102-.806-.3-.81.1-.2-.1h-.2l-.1-.103-.405-.402-.2-.1-.104-.102h-.598l-.306.103h-.1l-.1-.102-.405-.1h-.3l-.404.202-.604-.2-.4.1h-.104l-.2-.1h-.302v-.202l-.304-.102-.604-.703-.3-.102-.306-.1-.2-.102-.2.103-.204.1h-.3l-.2.102-.203.2h-.502l-.103.205-.302.4-.2.1-.203.203-.3.506h-.102l-.203.096h-.1l-.705.2-.805.203h-.2v.1l-.305.203-.4.1-.103.102-.302.3H2.716v.204l-.3.198-.204.2H1.91v.105l-.503.705-.102-.205-.2-.3.1-.1.1-.304v-.403l-.2-.504.303-.705v-.304l-.2-.3-.103-.202v-.908l-.202-.2v-.1z"/></svg>