<svg xmlns="http://www.w3.org/2000/svg" width="115.833" height="79" viewBox="0 0 115.833 79"><path fill="none" stroke="#0079FF" d="M1.52 73.428l.192-.192v-.388l.395-.197H2.3v-.19h.196l.194-.2h.39l.2-.197-.2-.385.393-.197-.193-.193.387-.2-.194-.197.194-.192h-.194l.194-.39h-.194v-.19H3.28l.192-.197V69.33l.194-.192v-.196l.194-.192v-.394l.194-.196v-.192H3.86l.195-.39-.194-.19.195-.202v-.388H5.227V66.6l.194-.19-.193-.197.39-.393.587-.39.194-.192.194.192H7.182l.39-.58.386.388.587-.39v-.2l.197-.192.776-.39h.2l.584-.388.587.39.388-.197.387-.393.397-.196.387-.384h.583l.19.192-.19.39h.19v.2h.202v.192l.583-.192h.194l.192-.2.196-.39.2-.192h.583v.192h.782l1.368-.58.192.19-.192.197h.192V62.7l.583-.39h.395v.196l.39-.196.388-.782h.393v-.389h-.393l.192-.2-.192-.193v-.196l.192-.39h.396l-.195-.19.582-.59h.59l.194-.193h-.196v-.196h.195l.386-.19.197-.193v-.397h.192l.2-.192v-.388l-.392-.39-.39-.393.193-.196-.192-.19h-.194l-.195-.197v-.39h-.2l-.193.197-.196-.394H19.864l-.2.196-.58-.393-.39.195v.196l-.194-.392h-.396l-.192-.192-.196.192-.192-.39-.39.197-.2-.197v.389l-.194-.192v.192l.194.393h-.389v-.585h-.192l.192-.39h-.388l-.393-.196h-.195v.195l-.39.192v.197l.194.192v.196h-.194l-.194-.196h-.394l-.39.196-.193.196h-.196l-.194.197-.395-.197-.192-.196h-.195l.195.196-.583.778h-.194l-.192-.192h-.589l.192.192h-.192v-.192l.39-.39h-.389l-.39-.393-.392.197-.196-.393-.39.782h-.195l-.194-.39-.202-.196v.196l-.195.197-.388-.393-.192.196-.198-.196h-.192v-.778l.192-.59-.192-.19-.2.19-.195-.19-.583.19v-.39l.196-.19-.195-.39-.192-.2h-.198l-.2-.197H6.4v-.581h-.194l-.192-.192.192-.397v-.192l-.192-.778-.396-.393-.39-.39H4.84l-.397-.192h-.776l.194-.397.195-.192h.195l.192-.196h.2l.39-.192h.39l.392-.39h.197l.582.39.393-.196.39.196h.388l.195.192v-.194l.395-.39v-.19l.582-.2v-.39l.196-.197.59-.192h.193l.192.193.39-.192.195.193.588-.192v.193h.387v-.192l.397-.195v-.196l.58-.198.783-.777.194.196v-.387l.193-.394h.389l.192-.197.397.196h.776v.393h.397l.192-.2.39-.39.194.196h.785l.19.19.197-.19h.387l.2-.39v.192l.195-.192h.389l.193.192v-.192l.196.782.19-.2.202.2.195-.2.387-.193v-.197l.39-.192v.193h.2l.39-.192.19-.388H22.205l.195-.2.193-.39.195.196.194-.196h.388v-.778l.2.196.388-.196v-.394l.39.192v.2l.194-.2h.192v-.385h.2l.78-.197v-.192h.59l.388.39.192-.197h.195l.193-.19h.2v-.197l.583-.192h.194l.395-.202 1.165-.39.2-.19h.388v-.39l.197.192v-.192h.192l.196-.2.393.2.39-.2.388-.197h.392l.78-.58h.392v.19l.196.198h-.196l.39.192v.196h.196l.192.2.39-.59H35.473l.192-.196h.39l.2.39v.195l.192-.196v-.39h.39v-.19h.387l.393.387.197-.197v.39h.192v-.39h.196l.192-.384h.197l.196-.2v.583l.39.196.196.192.192-.192.98-.197.19-.385h.197l.192.192v.19H42.297l.785-.383.192-.2h.39l.78-.586.583-.39v-.19l.397-.202h.192l.196.2h.385l.197-.2.2.2.39.193.582-.193h.393l.196-.2.192.2.196-.2.192.2v.193l.197.197h.196l.196.192h.192l.196-.193v.192l.192.196.782-.586h.197v.197l.39.192H51.858v.785l-.586.384v.196l.192.59.2.39.39-.197v-.395l.582-.196h.782v.195l.786-.196.39-.582.19-.192-.19-.2v-.197l.384-.193.59-.197h.196l.774-.582h.2l.39-.2 1.17-.39.778-.774v-.2l.98-.39 1.56-.39.78-.392.193-.197 1.172-.58 1.175-.398.192-.192.59-.192.773-.197.396-.192h.388l.39-.196v-.393l1.362-.582 1.953-.786.196-.192 1.952-.582.197-.397h.19l.582-.192h.59l.777-.197v-.192l1.17-.39V28.348l-.192-.19-.196.19-.192-.384h.192l-.192-.2-.397-.198h-.579l-.192.197h-.195l-.192-.197v-.39h-.589l-.196-.19.39-.39h-.193l-.196-.2.584-.78.2-.19.582-.394-.192-.196v-.192l.58-.196v-.192l.193-.2v-.198l.2-.192h.39l.196-.58.385-.198.2-.2-.393-.583v-.193l-.58-.196.19-.393v-.388l.197-.192v-.59l.192-.196.192.196h.397l.192-.196.197-.192-.39-.197h-.196l.39-.192v-.192l.39-.195-.193-.393.192-.197-.192-.192.39-.197-.197-.192h-.192v-.2l.192-.39v-.778l.196-.197.196-.198.39-.192.196-.196.192-.192-.192-.197.192-.393-.192-.192v.192l-.197-.192v-.39l.197-.196-.39-.782h.192v-.192l.197-.196v-.192l.192-.2.196-.198.193-.385h.2v-.79h.778v-.192l.193-.197v-.384h.394V10.2l.585-.59V9.03l.192.19h.397v-.19l-.2-.193-.39-.397h-.387l-.196-.192h-.197l-.39-.39v-.192l-.388-.2v-.198l.39-.39.388-.19.197.19h.196v-.19l.192-.198.39-.393.196.2h.586l.586-.2.192-.192h.397l.582.192.192-.192.59.192v-.39l.196-.19v.19l.192-.388-.192-.193.192-.2v-.39l.39-.192-.197-.196.196-.193.395-.197.196-.2.193-.193-.39-.39.39-.78-.192-.198h.782l.193-.193h.39l.196-.192-.196-.196.197-.193h.193l.393-.2.196.392.39.195.192.192V2l.393.196.197-.197-.197.396h.39l.196-.2h.782v.2h.39v.39l.19-.197.197.195v.389l-.182.585.196.388v.196l.394-.196.39.196h-.193l-.197.582v.2h.196l-.196.582-.2.196h-.193l.192.585.396.196v.778h.192v.393h-.192v.39l-.196.192.39.195-.193.2h-.197v.193l.196.39v.388h-.196V9.61h-.2V10h.2v.2h.196l-.397.778v.192h.781v.2l-.384.197v.192h.385v-.193h.39l.197.192h.2v.196l.192-.197h.195v.196l.385.192v.192H95l.582.397.59-.2.196.392.39.195v.192l.19.197.193-.39.202.39.585-.197.39.39v-.387h.19l.202.197H99.29v.393l.39.192.393.197.196.19h.39l.388-.388h.2v-.192l.193.192.193-.192.196.192h.387v-.192l.192.192h.2l.777.197h.192l.2.19h.196v.197l.192-.196.39.586h.388l.2.196v-.196h.389l.192-.39h.78v.193h.198v.196h.39l.19.196h.393v.197-.198h.197v-.196.196l.192-.196-.192.196H108.652l.394-.196.192-.197h.39l.59-.193.19-.196.197.197h.192l.197.192h.192l.393.196.388.585.39-.19h.589l.192.58v.394l.195.196h.192l.196-.196v.196h.2v.192h.193v.197h.196v.388l-.196.782.196.582h-.196l-.394.98h-.196l-.39.19-.19.59-.59.778-.39.393-.193.196-.59.58-.19.783v.98l.584 1.17.196.39.39.19h.39l.2.197v-.196.196l-.397 2.146v1.175l.59 2.147.777 3.51.2.978v.782l-.396.778-.192.393-.39.192-1.17.586-.98.59-1.363.968-.782.59-1.367.58-1.17.397-1.37.587-3.9.974-1.56.39-1.56.59-1.172.582-.78.196-.582.394-1.958.97-1.363 1.17h-.39l-.388.398-.202.192v.39h.2l-.2.19.2.198-.59.393h-.19l-.783.39-.586.58-.39.398v.39l-.2.58h-.192l-.192.202h-.39l-.39.192-.393.777-.196.202-.192.39h-.196l-.193-.39-.397.192-.385.39-.196.39-.39 1.17-.2.393v1.56l.396 1.56.192.39h.58v.196l.398.585.39.39h.388l.192-.192-.192-.197h.394v-.193l.39.192.19-.193v-.393l.198.2v-.2l.192.2-.192.192.385.192-.19.197h-.193l-.197.39v-.197h-.192l.192.39-.192-.193-.196.192h-.192l-.2-.192-.39.192-.192.397V61.914l-.39-.196v.196l-.78.192-.39.786v.581l.192-.196-.192.196v.2l-.197.193h-.2l-.19.196v-.196h-.197l-.385.39-.197.195-.2.587v.39l.2.39h.198v.195l.192.196.192-.196.196-.196v.196l-.196.196h.388l-.192.196-.196-.196-.192.196h.192l-.192.192v.197h.192v.589l-.192-.397-.59-.192.2-.197-.393-.192-.97-.393-6.053-.388-2.15-.197H70.603l-.39.197-.58-.197h-3.513l-1.173.197-.196.192v.393h-.387l-.59-.196-2.73.197-1.753.196-1.368.192-.974-.192h-1.17l-.39.192h-.398l-.192.197-.192-.197h-.197l-.193.197v-.197h.192l-.394-.39-.778-.195h-.782l-.197-.196v-.192h-.583l.39-.197v-.39l.19.197h.198l-.197.192h.389l.2-.192v-.39h-.392l-.197-.2h-.192l-.197.2-.193-.393.39-.197v-.192l-.39-.195.192-.192h.196l.192.192.197-.394.192-.388.397-.39-.196-.19v-.197l.39-.394.58-.388-.388-.192-.192-.197.39-.393v-.196l.19-.192.98-.582v-.589l-.192-.195v-.192l.192-.192-.192-.195.192-.2h-.389v-.193l-.193.192-.2-.192h-.197l-.582-.196-.192.196H52.456l.192.394-.193-.2-.197.2v.196l-.192.192-.197.192-.392-.192-.192-.192-.39.192v.192h-.388l-.98.196v.192l-.19.197h-.394l-.197.2h-.192l.192.193-.39.192h-.19.19l-.58.39v.196l-.202.193h.2l-.392.59v.192l.192.196.2-.195v.196l.193.193.39.397.195.192.192.58.197-.19-.197-.582-.192-.196v-.2h-.39l-.196-.39.197-.192.192.192h.196v-.192l.39-.39.195-.2h.197l.39.397H50.31l-.2-.198.2-.2h.193l.192-.192v.192l.197-.192h.192v.192l-.192.2-.39.39v.192l.193.39h.197l-.197.2-.192-.2-.192.396-.2-.397h-.39l-.196-.192-.39.193-.392.397.197.192.196-.192v.192l.197.196-.197-.196h-.196v.196l.196.192h.585l-.39.192.193.196h-.585l.197.2h.197l.39-.2.19.2-.388.39.196.192.39-.192h.392v.192-.192.192h.389-.389l.192.196h.39v.394h-.39v.192-.192l.197.192-.197.39.197.196h-.389v.192l.192.196.197-.39h.39-.197l.196.193-.39.195h.193v.196h-.192l-.582.39v.197l.193.192h-1.17l-.782.396h-.778l-.393.192v.192h-.198l-.192-.192-.196-.192-.393-.2v-.197h-.388l-.192-.193-.585-.197H44.645l-.385.197-.196-.197-.2.197.2.192-.2-.193-.193.192h.193v.195l.59-.196v.195l.19-.196-.19-.193h.978l.39.192h-.39.193v.195l-.192-.196-.196.195H46.402v.2h.2l.192.193.39.192H45.43l-2.538.196-.59.192-.19.196v.192-.192h-.583l-.398.192-.192.2-.778.193-.393.195V69.705v-.19h-.587.197v-.185l-.39-.192-.392-.196h-2.146l-3.124.196-2.342.39-2.733.393-.977.39h-.389l-.192-.192v-.397H26.5l.196-.19h.192l.195-.197v-.192h.194l.393-.388.583-.2.194.2.393.39h.39l.582.19h.395l.192-.19V68.55l-.388-.193-.396-.197-.192-.192.192.193.396.196.776.393.98.39h.978l2.535-.197 1.172-.394 1.56-.192h.196l.192.192.98.394v.39l.19-.39v-.192h-.19v.192l-.198-.192-.192-.2-.197-.193h-.196l-.197-.388-.58-.196-.198-.192h-.393v-.192h-.39l-.39-.397-.19-.192-.394.192v.196l-.197-.195h-.193l-.39-.582-.2.192v-.192l-.197-.393-.97-.586v-.192l-.2.192-.193-.192v-.196h-.197l-.385-.192h-.196l-.395.192v-.192l-.196-.2.195.393-.39.196h-.385l-.194-.196.39-.192.193-.2-.195-.193h-.588l-.39.192-.196.2-.19.193.388.196-.197.39v.192h.198-.387l-.396.393h-.194l-.192-.196.192-.196-.192-.192h-.196v.192-.192h.196v-.197l.387-.192.2.192v-.192h.195v-.196h-.194l-.588.195H28.257l-.387.192H27.28l-.195.197h-.195l-.39.183-.192.196v.196h-.197l-.198.585-.39.192-.194-.192.39-.586-.195-.197.194-.196-.194-.192-.387.192-.397.196-.193.196v.195l.192.192-.193.586h-.39v.394l-.58.39-.784.388h-.195v.192l-.194-.192v.192h-.194l.194-.192h-.194l-.393.192h.192v.2l-.193.193-.197-.192v.192h-.387l.194-.394h-.194l-.977.394-.194.196-.195-.196v-.192l-.2.192v-.192h.2l.195-.59.387-.192v-.196h-.193l-.39-.385h-.2v-.2l-.192.393-.196-.192-.193.192-.197.192v.196l-.192-.196-.194.196v.192h-.2l-.196-.192.195-.39-.195-.19v.19h-.39v.193-.193l-.19.192v.195h-.198v.192l-.192-.192-.395.39v-.39h-.195v-.39l.195-.19.194-.202h.59v-.39l.192.193.195-.192v-.197l.192-.39h.195v-.195l-.387.196-.196-.196-.39.196v.196-.196l-.192-.196h.39-.198v-.196l.197-.192.192-.197h-.193v-.388l-.197.195-.192-.196h-.2l-.195.195-.195-.196h-.192l.192.195h-.192l.192.192h-.39l.197.39v-.192l.582.192-.39.196-.19.196h-.197v.195h-.192v.192l-.2-.192.2-.196-.396-.394-.39.196-.193-.39v.193h-.193v.393l-.2-.196v.196H14.4v.39l.196.196H14.4v.192l-.192.196h.39v.2h-.39l-.198.388.194.196h.39l-.39.192-.39-.39-.193.197v-.387h-.193v.192l-.2-.192h-.193l-.195.39-.39.388-.194-.196h-.589l-.582.39h-.195l-.395.2h-.192v.192l-.197.196-.387.192.193-.39v-.19H9.72l-.397.19v-.19.19-.19H9.13l-.584.19v-.19h-.193l-.2.388-.195-.196v.196l-.195-.196-.388.388v.196h-.193v.192l-.197.2.197.197h-.197l-.2.192v.58l.397.198v.2-.2l-.197.2h-.198v.389h.2l-.2.385h-.195v.195l.194.2-.388.195v.197h-.194.388l-.194.193h-.194v.39l.194.19.194.202-.194.196h.194l-.194.192H6.986v-.192h.196l.192-.196h.196l-.196-.2h.196v-.193l.192.19v-.19h.195l.194-.582h.202v.39h.582v.19h.196l-.196.193v.398h-.389v.192h-.392.2v-.192l.192.192v-.192h.197v-.196h-.197v-.2l-.393.396v-.196l-.39-.2.196.396-.195.192.195-.192h.194l-.39.39h-.19l-.197.19v-.19l-.192.19h.192l-.39.193h.39l.196-.19v.19h.193l.195-.384h.784l.58-.196-.388.39-.39.978-.586.39v.192l.587.2-.192-.2v-.192h.192l.197-.197.39-.776.587-.394v-.192l.582-.196.587-.192v-.196.196l-.2.192-.39.39v.19l-.196.398.197.192.588.196.194-.196v.196l.39-.196.59.39h-.202.2l.193.196h.194v.192l-.194.2-.192-.393H11.473l-.194.393-.195.192-.193-.192-.2.58v.198l-.584.782-.192.192H9.72l-.202.196v-.586H9.13v-.192h-.195l-.192.192v.197-.59l-.197-.193-.192.192-.2.2h-.39l.194.19-.387-.19-.195-.2v.39h-.193l-.396-.19-.583.19v.39-.19H6.01l-.196.192.197.196-.196-.196-.198-.192H5.42l-.388-.39-.59-.2h.202l-.2-.39v-.192l-.194-.388v-.2l-.583-.192v-.198l-.588.197.2-.197-.2-.192v-.196l-.39-.193.192-.197-.582-.2h-.588v-.583H1.52l-.197-.192.197-.196v-.394zm91.72-23.805v-.2h.197v.2h-.197zm-.39.197l.197-.197.192.197h-.193l.192.192h-.39v-.192zM50.114 68.355v-.196.195zm-9.172.586h.193-.192zm-17.17-.974v.192-.192zM7.374 70.5v.196h.196-.195V70.5zm23.416-4.683v-.192.192h.197v.196h-.196.197-.196v-.196zm-2.922 0v-.192h.192l-.192.192zm19.907 2.538h-.2v-.196h.2v.195zM7.182 70.5v.196-.196zm.58 3.907l-.19-.197-.197.196h.389zm-.58-1.757h.192-.192zm3.313 2.73v-.19.19zm-.776-5.46h.193-.194v.195-.196zm.97-.98h.394v.197h-.194v.192-.193.192h-.2v-.193h.2v-.196h-.2zm17.564-2.73h.194-.194zM8.742 69.136h.388-.195v.192h-.193v.195-.388zm30.64.58h.19-.19zm-16.395-1.17v.2-.2.2-.2zm23.81 0v-.192h.195v.192h-.196zm-18.543-.388v-.193.192zm21.47 0h.192-.192zm-39.23 9.76v-.197h.197-.195v.197zm-2.73-5.663v-.196h.194-.195v.197zm20.685-4.29v.19-.19zm.977-.783v-.196h.192v.196h-.193zm20.297 1.363h.192v-.192.192h-.192zm-41.766 4.3v-.197.389-.193zm2.147.39h.197v.19h-.197v.193l-.387.2-.2.197H9.13l.388-.196.395-.393h.192v-.19zm-.782-3.907v-.192h.195v-.196h.2l-.2.196v.192h-.195zm31.618 0v-.192.192zm-30.638 3.71v-.192h.192v.192h-.192zm40.982-3.903h.192v.192-.193h-.192zm-21.857-2.342h.192-.193zm-6.248 1.752v-.192l.195.192h-.196zm26.736.783h.197v.196h-.197v-.196zm-41.563.196v-.196h.192v.196-.196.196h-.192zm44.102-8.98V59.967h.192l-.192.19.192.198-.192.193zM6.985 72.062l.197-.19.192.19-.39.397v-.396zM25.33 67.58l.194-.192.39-.2.198.393-.393.19v-.19l-.195.19-.196-.192zm3.32 0v-.192l.19-.2.198-.197h.192v.195l-.192.2-.197.386-.19-.192zm20.095-4.3v.396l.197-.2v-.196h-.197zm-29.08 10.15h-.19l.19-.192-.19-.196-.39.196.192-.39-.192-.196h-.98l-.388.197.196.192-.585.58v.397h-.393l.2-.196h-.394v-.2l.195-.192.2-.39v-.19l-.2-.198-.39.39v-.39l-.388.197-.192-.197v-.192l.39-.2h.19l.196-.196h.195l.2-.192h.39l.192-.192-.192-.197.192-.19.196.19v-.39l.588-.39-.2.59h.2v.19h.195l.192-.392h.197l-.197-.197h.585v-.19h.192v-.39h-.192l.588-.192v-.196h.194v.196h.58v.192h.397v.19h.195-.781v.196h.192l.2-.196v.39h.972V71.477h.395v-.192h.195v-.2l.582-.197.196.196-.196.2-.387.192.194.197-.194.385h.386l.397-.385v.192l.192.39h.583l-.194.392h-.39l-.19.196h-.398l.196-.197-.196-.193-.192-.2-.583.2-.394.39-.192-.197h-.197l-.192.39h.192v.196l-.387.192v-.192l-.195-.196-.59.196H19.866l-.2.192z"/></svg>