<svg xmlns="http://www.w3.org/2000/svg" width="126.985" height="110.115" viewBox="0 0 126.985 110.115"><path fill="none" stroke="#0079FF" d="M5.582 48.415l.104-.64-.104-.64v-.213l.532-.854.747-.638.323-.11h.852l.642-.212.104-.105.427-.32.75-.64.957-1.28.32-.427.532-.426.43-.64.745-.428.427-.212.215-.215.318-.213.32-.43v-.53l.108-.532.21-.107h.643l.212-.105.747-1.388.108-.322-.11-.423.323-.642.428-.533.213-.64.318-.107h.535l.428-.32.213-.107 1.067-.104h.213l.106-.64.212-.32-.32-.322.107-.424.212-.217.216-.106.745-.212.212-.215.32-.425.108-.213v-.43l-.11-.746.11-.32.212-.107.32-.213h1.172l.43-.532.212-.425.317-.428 1.28-1.07.427-.213.213-.21.106-.213-.212-.217-.21-.318v-.428l.21-.32.43-.105.53-.11.534-.104.427-.107.106-.104v-.107l-.32-.745v-.322l.428-.64.428-.105.425.21h.962l.317.11.106.106.105.317.11.215.104.212h.213l.106-.212v-.32l.322-.853v-.214l-.533-.322-.43-.317L30 20.9l-.106-.318.105-.212.64-.215.534-.107.64-.533.106-.107.213-.104h.108l.108-.107-.107-.21.214-.11-.105-.213.104-.107.107-.212h.212l.217.107v.104l-.11.213v.106l.427.215h.107l.104-.104v-.323l.217-.212.318-.107.215-.428.106-.213h.213l.21.32h.323l.106-.213.424-.426.64-.32.11-.105v-.218l-.215-.317h-.106v-.213l.21-.215h.43l.105-.107.106-.423.107-.217h.322l.427.107H38l.104-.213.318-.535.642-.53h.215l.212.106.212.318.215.212.105.11.106-.11.106-.107-.105-.424.106-.107.212-.11.43-.105.428.215.317.107.106-.217v-.213l-.107-.212-.746-.32-.106-.213.107-.107.106-.104.322-.106.53.425.11.106.212-.107.105-.318h.212l.322.104h.105l.214-.104.105-.215v-.107l.428-.426V10.67l.105-.218h.64l.107-.105.105-.317.11-.535.317-.64h.107l.21.104.11.64.212.107h.211l.107-.107.215-.21h.318l.64.21.106-.105v-.222l-.106-.427v-.212l.105-.215h.105l.108.108.213.53h.317l.106-.212.11-.318.317-.534V7.78l.106-.214h.106l.105.105.32.323.213.425h.106l.216-.107.105-.212.107-.104h.744l.212-.107v-.215l-.105-.105-.32-.213V7.14H51l.106-.108.212-.213h.106l.32.212v.11l.32.425.104.105.217.11.212-.11V7.46l-.106-.32V6.82h.107l.213.107.21.215.218.318h.105l.32-.105v-.427l.107-.212.107-.107h.317l.213-.105.11-.215V5.86l.104-.32.213-.32v-.21l.107-.43.212-.212h.11l.105.105v.535l.213.104h1.066l.106-.215.21-.425.43-.105.213-.322V3.73l.106-.218.322-.105h.424V2.87l.105-.103h.215l.213.104.107.22h.216l.213-.323.105-.32.106-.105h.32l.214.53.107.11h.104l.107.107h.216l.104-.108.426-.322.216.107.21.532h.213l.216-.106h.105l.106-.104.212-.107.107-.11h.32l.213.11v.107l.106.104v.535l.103.104h.11l.212-.535h.429l.424-.21h.322l.317.316.212.105h.32V3.09l-.21-.22v-.425h.423l.105.213.216.106.746-.213.106-.213.106-.322.212-.212h.105l.108-.105.106.106.106.212.105.107h.639v.11l.106.104h.105v.317l-.105.212-.32.535v.322h.213l.212-.323.64-.317.217-.107h.105l.53.317h.217l.105-.105.106-.534v-.102h.105l.106-.107.11.107.21.428v.107h.108l.318-.108.64-.215v-.321l-.105-.32v-.213l.32-.32h.574l.108.107-.108.214-.32.427v.32l.108.106h.104l.43-.32h.105l.105.213h.107v.21l-.214.323-.106.105v.32h.106l.105.11.218.104.105-.105v-.534l.106-.322h.104l.318.11v.426l.11.105h.106l.317-.104.215-.107v-.107l.426-.212h.106l.105.108v.531h.214l.22-.106h.426l.107.107h.317v.108h.107v.105l-.106.317v.107l.217.11v.104l.106-.104.213-.217.104-.106H78l.11.213.104.322v.104l.106.104h.106l.213-.21v-.32l.103-.106h.216l.21.322.213.107h.107l.108-.106.318-.105.105-.11h.429l.212-.107.21.322.536.107h.322v-.537l.53-.317h.214v.104l-.105.317v.323l.317.317.107.107.104.11h.106l.11-.11-.11-.425v-.104h.215v.105h.104l-.105.425.104.322.212-.107.217-.215h.105l.213.215.214.107.215.213h.105v-.107l.106-.105-.105-.21-.106-.22v-.316h.638l.106-.105.318.212-.105.105-.32.104-.214.22v.103l.428.107h.107l.21.318h.108v.104h.11L86 5.54l.106-.214.106-.317.213-.22.11-.103h.104l.106.104-.107.536h.21l.213-.105h.215l.107-.106.21.107v.533l.107.107h.215l.213-.106.318.107h.216l.317-.217h.108v.218l-.208.107.105.107v.104l.213.107.11.105.212-.105h.317l.216.105v.215h-.855v.211l.217.107h.533l.32.32v.212l-.43.322.11.105h.212l.213-.105.212-.11h.11l.105.114v.53l.213.323h.213v-.105l-.106-.322.106-.107v-.106h.533v.104l-.214.535.106.105.213-.105.215-.105.318.318h.212v-.213l-.213-.215v-.214h.213l.534-.107v.106l.212.105.215.218h.108l.105-.11.107-.32.105-.103h.216l.212.104v.106l-.102.213.104.214h.32l.108-.105v-.324h.32v.105h.104l-.21.64.105.108h.21l.22-.32h.318v.212l-.105.43.105.21.107.108h.104l.11-.213V9.38h.104v-.107l.213.107.43-.107h.316l.106.213h.105v.428l.11.107.104.105h.106v.107l.317.32v.32h.215l.107-.213.105-.108.107-.11.212-.104.215.105v.11l-.106.424.21.107.213.215.322-.216.213.105h.104v.321l.107.106-.108.107v.21l.322.11.213-.11.105.217v.213l.32.213.108.215.105.105.106-.104.107-.106.213.107h.32l.213.213.32.213h.32v.105l.105.323v.104h.106l.32-.104h.107l.214.104.105.107-.106.322.105.105h.32v.536l.213.212.32.21v.431l.108.104v.105h.213l.105-.317.106-.105.11.105.105.212.424.213h.215l.105.105-.106.217.212.213-.106.104.534.105.212.216v.426l-.105.216-.217.104-.104.107.32.105.106.107.106.212-.106.32.106.106h.211l.32-.32h.107l.21.32v.105l.43-.105v.105h.106l-.106.217.106.318-.106.212v.11l.213.104.105-.215.11.11v.103l.104.105v.642h.106l.533.317h.319v.322l.21.104.106.107.215.318-.104.322.317.105.322.317-.11.217.11.212h.213l.213-.213h.106l.216.212.21.32.214.107.107.103h.215v-.32h.212l.316.108h.64l.218.213.104.107h.643l.106.213h.21l.106-.32.11-.104h.104l.107.103v.64l.105-.105h.105l-.105-.323h.105l.106-.105h.215l.212.105.107.107v.105h.105l.21.108.323-.11v-.104h-.107l-.104-.107.317-.213v.107l.212.43.11.104.105-.105.21-.216h.108l.105.105h.215l.213.32v.318l.106.11.322-.11-.11-.213-.212-.317h.104l.107-.215.215-.107v-.105l.106-.106v.107l.213.106v.107l-.107.105-.106.215v.107h.213l.21.212.217-.212.213.104h.534l.106-.104.105-.213.106-.11.217.11.213-.11v-.104l.105-.107h.105l.106.213h.214l.107.214.105.212.213-.104-.105-.107-.107-.105.107-.11h.105l.322.216h.104l.108-.105h.105l-.105-.214v-.107l.213.106.11-.107.212.106h.106-.106l-.32.105.214.11v.424h.425l-.106.105.107.108.216-.322.213.107-.107-.107v-.212h.106l.104.32h.107l.105.104.11.11.106-.11-.105-.105.106-.212h-.105l.212-.106v-.105h.106v.424l-.106.105.106.108.32-.11v.11h.108l-.108.105.215.213-.215.212-.107.218h.107l.215.104.106.318.105.107.106-.107v.531h.216l.105.214-.105.105-.11.108h-.105v-.11h-.319l-.428.11v-.215l-.214.215h-.105l-.105-.11v-.212l-.11.107h-.104l-.106.215-.105.107-.107.105.106.107-.107.104h.106l-.214.106-.104.11h-.11v.106h.11v.213h.104l.106.105h-.21l-.11.104v.217h-.108v-.217h-.317.106-.213v.322l-.108.213.108.107-.216.105v-.105h-.105l.212-.32-.107-.104-.105.105h-.107l-.104-.104v-.11l-.107.11h-.216l-.105.213v.213l.212.105h-.106v.11l-.105.105-.213-.105v.105-.105l-.107.105v.211l-.104.107h.103v.212h.107v.215l-.212-.107v.424h.104l-.104.428.212-.105v.105h-.107v.107l-.104.105-.11.107.32-.107v.212l.106-.105h.213-.106v.104h-.107v.11h-.105V31l-.212.105.104.107-.215.105.11.107h.316-.105v.215h-.106v.316l.213.107.107.11.212.104-.212.107-.107-.107v.317l-.105-.104-.107.105v.217l-.215.213.322-.107h.105v.107h-.105v.104h-.107v.106l-.104.105v.105l-.747.323h.32v.107-.107l.317-.105h.214l.107-.107h.106v.107h-.213l.107.105h-.211l.103.107v.104h-.215v.212h.11l-.11.11v.212h.11-.427l.106.213-.105.104v-.103h-.426l.107.104v.323h-.214v.105l-.105.107.106.105.106.11h-.212l-.106-.11-.105.11h-.218l-.104.104v-.215l-.213.214v-.105l-.106-.11h.105-.212v-.105l.212-.107v-.068h.106-.212l-.216.105v.322h.11v.212h.105-.105v.423l.105-.107-.105.107.105.11-.216.104.11-.215-.32.215v-.215h.106l.104-.212h-.317v-.107h-.213l.106-.104h-.21v-.108l-.22.212h.22l.103.107v.106l-.323.107h.107l-.107.11h.107l.11.104h-.11l-.318.213h.21v.104h.218-.11v.322l-.107.107h.107v.105l.11.105v.107h.104v-.213l.106-.105v.105h.106v.105l.213.107h-.106l.106.103h.215l.105.11v.107h.211l-.106.104h.317v.107l-.105.106h.215l.213.105-.428-.64h-.213l-.213-.212-.215-.21h-.106l-.106-.43h.427l.318-.105h.106v-.107h.323l.105-.105.427-.214.107.11.213-.11.21-.107.107-.214.11-.104h.212v.104h.211l.105.107h.217l.21.105.32.107h.216l.106.215v.105h.105l.104.107h-.105v.104l.212.107-.107.105v.11h.321l.107.106v.105l.106-.106v.105h.317l.322.212h.106l.212-.107.107.107v.104l.11.11v-.11.11h.104l-.214.107v.104h.532l-.318.318v.217l-.322.317-.853.957-1.813 2.667-.212.322-.107.213-.213.212-.104.215-.428.853-.43.853-.423.747-.322.745-.213.322-.64 1.492-.428.957-.212.535-.213.534-.64 1.705-.213.534-.215.534v.213l-.214.323-.107.423-.428 1.283-.318.743-.43.748-.532.964-1.17 1.492-.535.744-1.388 2.027-1.708 2.346-.106.213-.96 1.494-.427.64-.49.55-.75.852-.53.64-.748.64-.322.215-1.386 1.172-1.28 1.173-.853.64-.21.32-.535.64-.428.533-1.172.852-1.173.963-1.065.75-.962.528-1.492.855-1.493.747-1.492.852-1.068.746-.642.535-.853.852-1.492 1.598-.105.322v.426l-.322-.425-.317.107-.536.428-.533.318-.64.746-.53.64-.747 1.067-.534.962-.428 1.063-.747 1.922-.105.533-.322 1.492-.318 1.07-.75 1.705-.64 1.066-.746 1.6-.43.746-.53.747-1.174 1.492-.96.85-3.84 3.097-1.704 1.492-1.496 1.17-.425.32-1.603 1.07h-.105l-.212.106-.106-.107h-.322l-.107-.106v-.11l-.104-.32v-.21l-.107-.107-1.28-.11h-.105v-.104l.105-.107-.105-.105v-.106l-.107-.215.107-.105.105-.213-.213-.213.107-.216.105-.107v-1.064l.21-1.174.11-1.706-.32-1.602.104-1.6 1.07-1.598 1.49-.857.747.11.96-1.177-.96-.318.32-.32.11.213h-.11l.11.107h.104l-.215-.32 1.6-.746.425-.64-.105-.106.322-.322.957-.21.212-.536-1.598-1.387v.107l-.107-.107-.105-.105-.534-.107-.318-.21-.11-.43-.424.106-.105.214h-.108l-.107-.11-.105-.104-.32-.213-.215-.107-.212.107h-.105l-.213-.322h-.11l-.212.215-.317-.215-.106-.104v-.11h-.108l-.107.107-.213-.426-.21-.32v-.106l-.11-.213v-.321h-.635l-.217.104v-.105l-.106.104-.318-.21v-.108h-.216l-.106-.21-.317-.106v-.217l-.217-.105-.212-.213v-.322l-.533-.213.104-.105.11-.428-.11-.21v-.214l-.212-.11v-.104h.106l.104-.214-.21-.107v-.212l-.214-.11-.106-.212v-.32l-.215-.318-.107-.107v-.104h-.104l-.106-.107.106-.106-.213-.11v-.104l-.107-.107.106-.318h-.323l.11-.11v-.106l-.216-.423.106-.107-.105-.11.216.11.106-.11-.32-.105v-.213h-.213v-.105l-.107.105-.106-.105-.215-.107-.107.107v-.107h-.213l-.215-.11h-.106l-.105-.104-.104-.213h-.106l.107-.105-.106-.107h-.114v-.427l-.216-.107-.106.107-.317-.107-.106-.21-.215-.106v-.11l-.32-.104-.21-.107h-.216l-.213-.214v-.105h.107v-.12h.106v-.105h-.106l-.106-.107h-.428l-.104-.105h-.108v-.107h-.106l-.106-.105h-.106.106-.216l-.104.106h-.107v.107l-.21.213-.106-.107-.215.32v-.11h-.214v-.105l-.107-.107h.106l-.107-.105-.533-.213v-.215l-.213-.213-4.694-3.52.107-.213-.107-.105-.105-.11-.106-.212.21-.107v-.106.105-.105l-.104-.215-.106.11-.106-.323-.105-.107-.218-.105.107-.107-.426-.64-.106-.105-.11-.11h-.318v-.105h-.104v-.107l-.322-.105v-.212l-.114-.108v-.11h-1.387l-.212-.21h-.104l-.107-.108-.11.107h-.212l-.106-.214-.534-.107-.424.212-.217-.105-.104.105h-.32l-.105.107-.322-.427h-.104l.104-.11-.317-.212-.22-.21h.106l-.106-.105h-.106v.105h-.105l-.32-.105-.11.105h-.104v-.215h.105l-.104-.107v-.105l-.318-.105V70.6l.105-.105v-.11l-.105-.106-.322-.106-.106-.107.106-.105-.106-.105-.21-.107.104-.11h-.105v-.104l-.108-.107v-.11.104l-.215-.104-.213.104-.106.107h.106v.216l-.212.317-.105.107h-.11v.212h-.212l-.106-.107-.32-.105-.11-.107h-.21v-.105h-.212l-.32-.213v-.11h-.212l.104-.104-.104-.106h-.213v-.104l-.856-.107h-.105v-.105h-.105v-.535l-.107-.105.107-.107-.213-.214h-.322v-.105l.215-.106-.104-.105-.217-.108v-.11h.106l-.106-.104V67.4l-.21-.107-.117.107h-.106v-.107h-.11l-.105-.105h-.107v-.213h.106v-.322l.105-.213h-.213l-.212-.322v.11l-.105-.11.105-.105v-.316h-.105l-.217-.107v-.215h-.211l-.213.104h-.106v-.105l-.11-.107h-.21l-.213-.105.106-.213.107-.11v-.104l-.106-.107h-.105v-.214h-.21l-.11-.21-.32.104-.105-.105v-.322l-.213-.107-.11-.104v-.213l-.317-.11-.105.11v-.11l-.217-.105-.104-.213-.107-.107v-.215l-.105-.213h-.107v-.105H33l-.11.105-.218.103h-.105v-.107h-.213l-.108.107h-.108l-.106.105-.106.215-.106-.105-.104.213.21.105h-.105v.213l.214.217-.106.21h-.106l-.104.212.104.107-.104.11v.104h-.429V64.2l-.107-.108-.105.215h-.107l-.103-.215h-.11l.11.11h-.11v.317l-.105.104.105.107h-.318v.106l-.107.217-.322-.107.108.213-.213.104h-.535v.107l-.212.323v.104l-.317-.104-.105.104-.216.428h-.214v.107H28.2l-.215-.217-.106.11h-.213l-.105.106-.106.106-.322-.105-.318-.106-.215.107v.106l-.317-.105v-.106l-.107-.428v-.744l.107-.322.105-.107-.105-.105V64.2h-.107l.213-.43-.106-.104v-.322l.318-.426v-.215l-.117-.103-.106-.107-.106-.318-.107-.11v-.104h.107l-.212-.106v-.316h-.216v-.107h-.212l-.212-.108V61l-.107-.105h-.11l-.21.213h-.106l-.107-.426h-.106l-.215.105h-.107v-.105l.107-.217h-.107l-.105-.105-.212-.105v-.21l.212-.112v-.107h-.212l-.215-.21-.107-.212.107-.217-.213-.105-.107-.107.213-.21-.318-.108h-.427l-.106-.11-.105-.104v-.107h.104v-.105l-.212-.106h-.106l-.105.213h-.108v-.213l.11-.104-.11-.105-.107-.11-.104.11h-.106v-.11l-.105-.212v-.218l-.107-.107v.107l-.216.105-.317-.105h-.107v-.215l-.215-.107v-.105l-.106-.107h-.106v.108h-.317l-.11-.107h.11v-.104h-.217v-.213l-.106-.11v-.104h.106v-.21h-.223l-.106-.325-.105.11h-.218l-.212-.218.106-.104-.106-.105-.21-.43-.218.11-.105.212H18.7l-.106-.213-.106-.11v-.21l-.216-.106h-.424v-.104l-.106-.217.213-.106v-.317l-.106-.107-.107.212-.322-.317v-.217l-.316.107h-.106l-.216.11-.105-.11.215-.213-.11-.317-.212.104-.216-.22h.212v-.107l-.212-.212-.105-.212h-.322v-.105l.322-.11v-.104l-.11.104-.105-.105v-.11l-.212.107-.106-.107-.215.107-.213-.212v-.213h-.105l-.213-.11-.43-.104h-.318l-.105-.213.105-.32v-.106l-.322-.11-.106-.212h-.212l-.105-.105-.217-.107h-.53v-.106h-.215l-.32.425v-.107l-.105.107v-.107l-.11-.105-.212-.107-.317.107h-.32l-.106-.212h-.639l-.107.105v.213h-.213l-.215-.105h-.215v-.107h.105v-.106h-.105l-.213.212-.105.213h.105l-.105.105h-.11l-.32-.105v.213h.214v.215l-.212.104h-.21l-.22.426-.21.215v.212h-.213v.213l.106.11h-.105.106v.104l.107.213-.106.107-.105.104H7.93l-.323.22-.105.317-.213.105h-.43l-.104-.105v-.107l-.106-.105-.107.105v.107l-.216.213h-.105l-.107-.213-.212-.317-.106-.11-.11.215-.53.213-.11-.213-.107.105-.318.213v.217H4.09v-.217l.106-.105-.213-.108h-.316l-.216-.105h-.424l-.11.318-.425-.105-.428-.108-.105-.21L1.85 53l.106-.638-.106-.11-.746-.316-.32-.107-.214.106.213-.213h.745l.534-.215 1.067-.64.318-.32.216-.532.317-.32.32-.322.96-.532.322-.427z"/></svg>