<svg xmlns="http://www.w3.org/2000/svg" width="214.25" height="135" viewBox="0 0 214.25 135"><path fill="none" stroke="#0079FF" d="M2.767 70.894l-.164-.16v-.32l.164-.318.475-.64.48-.474.16-.16.955-.322.16-.16.316-.475.956-.48h.158l.16-.158 1.276-.317.636-.32h.16l.322-.637.792-.64.16-.316 1.278-.8.475-.156.64-.477.956-.32.477-.318.317-.157.48-.317.476-.48.797-.157.64-.317.475-.164.16-.157h.16l.162-.318.475-.478.16-.165 1.114-.792.16-.48.163-.158.315-.318.8-1.113.634-2.073.16-.48.795-.956h.32v-.157l.318-.16.318-.48 1.116-.793.16-.48v-.315l.48-1.118.475-.317.957-.32.16-.32.322-.316.632-1.114v-.646l-.316-.64v-.474l-.8-.638-.158-.318.317-.48.323-.636.317-.157h.157l.956.157h.48l.636-.318.157-.164.324-.475.477-.475.158-.48.16-.476.165-.642.95-.795.163-.162v-.473l.16-.64.158-.798-.16-.157-.158-.957-.32-.478-.16-.157.16-.32-.16-.8.16-.317.156-.156h.64l.48-.16h.16l.157-.318.475-.164.323-.792v-.48l.317-.476.157-.48.64-.796.316-.16H36.544l.957-.636.158-.32.16-1.114-.316-.317-.16-.477v-.795l.16-.8v-.318l-.318-.48.16-.793.796-1.755.16-.157.158-.157v-.164l.157-.16.16-.157 1.114-.64.48-.477.16-.475.796-1.277.317-.317.64-.477.316-.164v-.158l.798-1.43.318-.16.157-.64.16-.16h.158l.482-.315.475-.324 1.438-.318h.956l.636-.157.48-.16h.158l.317-.158.322-.32.317-.162.798-.63.157-.326.317-.956.477-1.113.64-1.274v-.317l.794-1.117v-.164h.478l.32-.318.476-.314v-.324H55.185l.477-.475.162-.16.633-.157.48-.32v-.16h.318l1.274-.318 1.114-.317h.16l.32-.157h.16l.476-.798.323-.32.316-.158.475-.635.164-.325H62.832l.318-.315.318-.16h.475l.323-.158.317-.16.316.16.48.157.477.16.956 1.113.48.16v.322h.476l.316.157h.164l.633-.157.956.317.64-.317h.475l.64.157.158.16h.16l.48-.16H73.342l.164.16.317.157.64.638.16.16h.316l.316.157 1.28-.157 1.272.475.317.16h.956l.482-.316.95-.16h1.115l.798.16H84.34v-.162l.48-.157.633-.16h.482l.16-.157.632.158.48.16.32.635.156.164.64.63h.477l1.912.162.48-.162.475-.317.48-.156.793.157h.164l.157.162v.637l-.322.16h-.475l-.313.315-.323 1.274v.797l.16.317v1.277l.796 1.435.16.48v.315l.638.956h.162l.795.16.317.158h.16v-.157l.957-.64.322-.316.635-1.433.64-1.277.158-.157h.64l.316.157.64.157.158.324.317.797.16 1.273v.478l-.16 2.71.16.158 1.432.956h.32l.162-.157.316-.642v-.63l-.317-.8.156-.798-.317-.475v-.639l.316-.638.318-.317.164-.16v-.158l-.164-.32.164-.48.16-.156.476-.323H104.258l.64-.157.476-.157h.157l.8.314h.48l.157.164h.476l.48-.163.635-.632.32-.16h.636l.48.16h1.116l.798-.317h.317l.798-.164.633.164h.64l.317-.164h.48l.476.164.316.317.162.157h.794l.323-.157h.157l.16-.317v-.164l-.8-.792v-.16l.16-.795-.16-.16.16-.165h.48l.16.164.314.16.48.796.16.478.157.157h.317l.158.48.48.158.317.317.48.16h.476l.64-.317.16-.48.475.163.322-.48.16-.318.158-.318v-.795l.158-.16h.157l.64.474.16.8.316.475.64.324h.158l.48-.482.16-.317v-.638l.156-.318v-.157l-.157-.16h-.16v-.482l.16-.157.318-.48h.157l.323.163.794-.32h.795l.48.157.318-.157.475-.16h.16l.795.64v.315l.325.318.156.164.317.318.317-.157h.32l.477-.48V7.64l.318-.16h.64v-.164l.316-.157h.64l.316-.318h.323l.157-.16.16-.158v.157l.475.48.322.32.16.318v.317l-.323.158v.482l.64.317.157.48h.8l.317.476h.32l.318.317.64.164.316.634.478.157h.158l.164.322v.478h.157l.16.317.316.478v.16l-.317.796h-.16l-.32.48h-.158l-.16.32v.475h-.157v.478h-.158l.16.164-.317.157.157.475v.48h.16l-.16.317.16.157-.16.16h.16l-.16.157h.16l-.16.165v.16h.16v.157l-.16.16v.158l.477.32h.32l.158.318.477.16.48.476h.316l.318.164.64.157.16.317h.156v.318l.16.32-.16.162.318.635h.163v.478l.318.16v.482l.317.157v.317l-.16.318v.32l-.157.318-.16.157v.16h-.796l-.318-.16-.16.16v.157l-.322.324.16.318h-.16l-.158.638-.16.157h-.156l-.16.474-.32.16.32.64-.32.638-.318.795.317.64.32.316h.478v.32l.16.318h.32l.16.318.318.157.156.16-.156.48v.316l-.16.162.16.478.156.478.16.32-.16.476h.16l.158.16.48.158v.164h-.317v.318l-.322.16.48.476-.158.48.157.158v.16l.317.478.16.318v-.157h.794l-.156.157v.16l-.16.157v.322l.316-.16.16.32h.158v.158l.163.317v.482l.318.316-.16.157h.16l.158.317v.164l.16.317.33.16.162.16-.162.157-.16.164.16.318-.16.318h-.157l.157.317v.164h-.157l.157.157h.16l.162.16.16-.16v.16l.316-.16h.317l.157.16.164-.16.317.16.158-.16.16.16v-.16h.32l.16-.157h.158l.158-.164.477-.16v-.158h.164v-.16h.317l.157-.158v-.157l.16-.16h.322l.635.16.157-.16.16-.165h.478l-.157.325.157.157.477.318h.32v-.16l.158.16.16.317.317-.478.157-.157.164-.157h.16l.157-.325h.474v.799l.164.158.16.325h.158l.16.157v.16h.157l-.158.158.158.157.318.16v-.16l.638-.315v.157l.32.157h.32l.316.16h.318v.321l.158.162v.317l.162.156-.32.32v.32l-.16.16.16.313.158.16.323.32v.16h-.16l-.163.157v.16l-.158.322v.156l-.16.16.16.157v.16l-.318.158v.322h-.317l-.165.16.164.318h-.165l-.315.157v.48l-.317.158-.956-.157v.317l-.16.157v.16l.16.322-.16.317V50.34h-.316l-.163.157h-.157l.157.317-.475.48v.162l-.317.157-.164.318.165.32h.317l.317.48v.156l.156.157-.157.325-.16.157h-.158l-.158.16.315.318-.158.32.317.158v.317l.32.48.16.158h.157l.16.317.157.16v.479h-.158l-.477-.322-.165.164h-.157v.157l-.16.16-.315-.16v.16h-.16l-.163.317.323.317.315.164v.157l-.475.157h-.32l-.318.16-.16-.16h-.157v.318l.157.16h.797l.317.165.475-.164.323.322.317.16.158.476h.318v.164l-.317.317-.635.156-.164.475h-.632l.158.165-.317.796.16.158-.48.32.156.318-.158-.157-.16.317-.157.157v.164l.157.157-.157.16.157.318-.317.317h-.157l.157.16h.16v.16h.157v.158l.16.16v.318h.157v.165h.163l.16.315h.314l-.157.317.157.16-.157.482v.157l.475.158v.16h.164l.158.158.476.164v-.164l.318.164h.479l.16.16v.158l.158-.157h.315l.164.158-.164.16v.157h.164l.317.157v.324l-.156.157.795.317v.32l.317-.16.16.16H158.894v.32h.318v.16l.317.158h.164l.156-.157v.318l-.48.48v.316h.48l-.32.317.48.482-.48.157v.16l.164.156h.317l.158.16.16.157v.32l-.317.16h-.16l.16-.16-.16-.156-.156.157-.323-.157-.157.157-.475.16v.157l-.323-.156-.158.157v.16l.158.158-.158.164.158.16h.323l.156.475h.318v.157l.317.16v-.16l.48.324h.317l.157-.163v.163h.158l.323.475.157-.16h.478v.16l-.16.157v.16h-.157v.157l-.317.164-.323.637v.32l.164.16-.164.157.164.475h-.322v.16h.158v.164l.164.156.16.318.474.16.16-.16.48-.157.477.158.32-.475h.476v.317h.316l.163.157.158-.318.795-.32.164-.162.156.16.8-.16.156-.156v.156l.16.48v.162l-.16.475-.157.164.317.155.316-.32h.322l.317-.317.475-.157.64.158.478-.318.48.16.157-.16.318-.156v-.164l.32-.16.317-.157.157-.157.16-.16h.32l.317-.318v-.164l.317-.156h.157l-.156.32v.16h.318v.475h.163v.48h.157l.318-.164h.158v-.47h.16l.156-.317h.48v-.16l.318.16v-.16l.32.16v.317l.16.157h.157l.317-.157.158-.16v-.157l-.158-.8h.317l.164-.317.156.16.16.314h.158l.158.16h.323v-.16h-.164l-.16-.157-.158-.156v-.16l.158-.32h.16l.163-.162v-.317h-.164v-.314l-.318-.48h.158-.797l-.475.156-.48.16h-.16l-.318-.317.16-.635.637-.164.16-.157.476-.16v-.157h.164l.156-.16v-.16h.318l.318.157.164-.157.475-.164h-.157v-.157l-.317-.16-.164-.476h-.318v-.16l-.157-.16.157-.16.158-.158v-.16l.16-.157.48.156.475-.317.322.16v.156l.16.317h-.16l-.164.32h.164l-.322.318v.16l-.157.158.315.317h.164l.316-.157.8-.16.316-.475h.316l.157-.16h-.157l.32-.32v.32h.318l.16.317-.478.317-.164.16v.157l.164.164.635-.164h.158l.164-.157h.16l.634-.478.322.16.316-.8-.16-.157h.16l.476.317h.164l.157.16.16.16h.317l.158.158.16.16-.16.475h.48l.476-.317h.318l.164-.317h.317l.156-.158.8-.16.474.16.164-.16h.16v-.16l.157-.318-.157-.16.794-.48h.162l.316-.158h.16l.637-.157.318-.318-.158-.16v-.157l.16-.164.316-.316h.157l.324-.157.156-.16h.158l.317-.157.16-.164.32.164.477-.324.48-.157.317-.158v.157h.8l.632.156.164-.157.476-.318h.956l.157-.48.316-.158.164-.16h.158l.16.16h.473l.325-.16.316-.158V65.8h.634l.324.156h.316l.317.317.323.32.157.636v.156l-.157.324.157.157h.16v.474h.316l.162.16h.16l.157.165.16.317-.16.157v.316l.477-.157.16.156.162-.157.157.156-.156.48v.636h.157l.162.16.156-.16.318.32.158-.16v-.16l.164.16.16.318h.155l.318-.64.16.322.322-.16.317.32h.316l-.317.317v.156h.156l-.157-.157h.48l.157.156h.158l.477-.635-.16-.16h.16l.157.16.32.16.16-.16h.158l.16-.16.316-.16h.32l.16.16h.158v-.16l-.16-.157v-.16l.318-.157v-.16h.16l.32.16h.317l-.157.317h.157v.48h.318l-.16-.322v-.156l.16.157v-.316l.163.16.317-.16.157.317.16-.156.157.157h.321l.16.322v-.16l.317-.16.475.32.164-.16h.474l.16.32.157-.16h.164v.317l.16.16h.158l.157.156-.157.16.317.32.32.318v.317l-.163.158h-.157v.324l-.16.157-.315.156h-.16v.16h.16l-.16.157h-.48l-.475.48.16.158h-.324l-.156.318v.16l.157.157-.156.164h.32v.316h-.32l-.317.64-.317.16v-.16h-.322l-.477.316v.16h-.156l.157-.16-.156-.156-1.116.475h-.638v-.15h-.474l-.164.157-.16.317-.157.164h-.16l-.475.156v-.156h-.164v-.164h-.157l.156-.317-.157-.157h-.478l-.314.313-.324.16-.316.32-.317.162-.478-.317-.477.317h-.164l-.632.317-.16.157v.163l-.48.317-.315-.317-.318.475h-.482l-.157-.157-.16.158-.478.317-.317.32.16.16-.16.158v.16H197.748v.317l-.16.164.16.157-.16.318h.16v.157l-.16.16v.32l-.157.158v.16l-.16.157v.481l-.157.16h.157v.158h.16l-.16.317h.16l-.16.157.16.16-.317.164.157.157-.32.16.163.314-.164.16h-.318l-.158.164h-.16v.158h-.158l-.322.16v.317l-.157.157v.32l-.16.16.16.158h.157v.475h.48l.476.164-.157.16.317.156v.16l.164.157-.164.16.48-.16v.16l.476.157v.164l.157.317v.158l.164.317h-.164l.48.164.318.316h.16l.162.157.16.16h-.48l-.8.157-.157-.156h-.318v.156l-.157.16h-.316l-.164.165h-.475l.158-.164.157-.316-.475-.16h-.317l-.48.316v-.474l.16-.16-.16-.32h-.476l-.164.32-.157.16h-.477l-.157.157v.317l-.16.16h-.163l-.158.165v.156l-.157.158-.16-.157h-.157l-.32.32-.16.155h-.475l-.317.318v-.157l-.164-.16-.16.16-.157.157h.158-.158v.481l.158.156.16.16.32-.316h.16v.317h.317-.634l-.164.158h-.317l-.157.48v.157h.157l-.317.318v.324l-.157-.16v-.467h-.323l-.158.16.158-.316h-.158l-.16.156-.314.16.475.158-.16.163h.16v.162l-.16.157v-.158h-.157v-.16l-.318-.164-.163.163.163-.32h-.32v-.16l-.317.16-.158-.16h-.16v.318l.32.163-.16.32h.16v.316h-.639v-.316l-.16-.157-.476.157-.32.317v.157l.32.16v-.16.48h.16-.16l.16.16v.158h-.64l-.157.317h-.318.16l-.16-.158-.158.314v-.314h-.478l.156-.16-.155-.157h-.318l-.48.157-.476.317-.48.638v.16l-.317.157-.157-.157-.317.157h-.16v-.155h-.163l-.317.157-.316.48v.8l.157.475.16.475h.478v.324l-.32.315.32.642v.792l-.16-.16v.323l-.318.157-.316.16-.16-.16-.157.16v-.16l-.48-.157-.318.317h-.158l-.164.157h-.158v.157h-.317v-.314h-.477v-.317l-.164-.164h-.315v-.318l-.16-.16h-.638l-.16.16-.476.157h-.16l-.16-.158.16-.317h-.478v-.157h-.317l-.16.157v-.157h-.479l-.16.157-.156-.32H175.136v-.16h-.158l-.794.16v-.16l-.32-.158h-.8l-1.273.157-1.747.48-.32.158-.16.317-.316-.158-.48.317-.16.163v.157l-.157.16h-.16l.16-.16-.16-.157-.157-.164-.48.163-.957.475-.317.157v.324h-.158l-.16.156.477-.157-.16.156-.157.317v.317l-.317.157v.164h.157l-.157.16h-.164l-.477.32v.316l.16.157.158-.157v.157h.158l-.157.163-.16.157-.316.16v.638h.158-.315l-.164.158v.16l-.16-.16.16-.157h-1.117l-.316.32-.158.155.158.16h-.318l-.157.158v.32l-.158.317v-.156l.157-.318-.158-.163-.164-.157-.16.157-.157.163v-.163h-.316v-.475l.317-.16-.158-.32-.158-.158-.48-.16h-.634v.317l-.164-.318h-.158l-.157.16h.158l.158.32v.157h-.315v.317l.158.16h-.157v.158l-.16.32h-.156l.157-.32-.474-.157-.956.157-.956.48-2.555 1.113-2.388 1.435-1.912.956-.317.317-.48.164-1.592 1.113-1.114.635-1.426 1.283v.635l-.16.16-.316.32.16.158.156.16v.158h.16l-.16.16.16.157h-.16v.164l-.157-.165-.16.164v.16h-.157l-.48.156-.635.317-.32.317-1.116.796-.956.642-.16.157v.317l-.316.157-.64.48v.16l-.634.157-3.345 2.073h-.163v.157l-.794.48-.163.318-1.115.317-.956.64-2.072 1.272-.793.64-2.867 2.228-1.597 1.595-.794.952-.158.48-.164.475h-.475V130l.157.474.16.16v.482l-.317.314-.16.64v.158h.16v.317-.156h-.317l-.48.312-.64.643-1.273.956-1.59 1.75h-.16v-.318l.317-.318 1.433-1.273-.158-.163.158-.156h-.318l-.158.157-.315-.156v.483h-.324l-.157.156-.158-.156-.317.156-.322.16-.798-.642-.158-.156-.157-.318h-.317l-.317-.156-.164-.325.48-.155.158-.318v-.317h.16l.157-.157-.317-.163-.317-.16v-.158l-.32-.317v-.157l-.318-.48v-.16l-.157-.158.157-.317-.157-.48.157-.158v-.16h-.157l-.317-.157v-.164l.158-.157h-.157v-.16l-.16-.157-.162-.16-.158-.317-.16.16v.317h-.314v.317l-.16.157v.481h-.163l-.158-.317h-.16v.157l-.314.317-.16.317-.32.32v-.32h.157v-.476h-.157l-.16.157v-.156h-.316v-.317l-.48-.48h-.16v-.158l-.315-.16-.478-.158-.164.157h-.317l-.955.634-.157.64v.316h-.317l-.163.164-.317.475-.157.16-.16.317h-.157l-.322-.318-.16-.16-.156-.158v-.317l-.16-.164v-.156h-.317v-.317l-.156-.16v-.157h-.164v-.639h.164v-.16l.317-.157.158-.324v-.313l.16-.16-.16-.157.16-.16-.16-.164v-.792h.16v.16l.157-.317h-.157l.157-.164.16-.16v-.314h-.478l.16-.16-.16-.32.16-.318.157-.16v-.474l.48-.32.158-.16.317-.158v-.317h.158v-.32l.158-.16v-.158l-.158-.16v.16h-.476v-.16l-.157-.157h-.158v-.157h-.164v-.163h-.316l-.16-.317v-.16l-.157-.157-.16-.32-.157.16-.164-.16-.16-.16-.158.16-.157-.16-.317.32h-.323v.16l-.317.156-.16.317-.316-.157h.16l-.16-.16.16-.157h-.16l.16-.16-.16-.16-.32-.16v.636l-.16-.157-.16-.16-.638.16-.317.156h-.16v-.318h-.158l-.16.317-.322.16-.157-.48-.316-.16h-.323l-.158-.316-.157-.16-.317.317-.318-.317-.164.16.322.318h-.16l-.32-.16-.8.16h-.158v.16h-.16l-.156-.16h-.478l-.32.322-.16-.32h-.316v-.16h-.317v-.32h-.164l-.318.162.16-.48h.158v-.156h-.16l-.316.157-.316-.157h-.164l-.16.157.16.16.164-.16-.164.16v.317l-.16.158-.158.32h-.16l-.158.16h-.157l-.163-.32h-.16v.16h-.316v-.16h-.17l-.16.32-.32-.16-.158-.16H94.7l-.162.16v.16h-.316v.318h-.797l-.317-.16h-.481l-.475-.48h-.164v-.16h-.16l.16-.317v-.155h-.16v-.16h-.158l.16-.48-.16-.16v-.156l.16-.162.158-.157-.317-.16h.16v-.163l-.16-.313v-.318h.16l.16-.16.163.16.157-.324.16-.157-.16-.16v-.314l-.157-.323h.157l.476-.157v-.317l.16-.157.163-.16h.156v-.322h-.157l.156-.317-.157-.16.316-.314.157-.324v-.157h-.157l-.16.32-.157-.163v-.157l.316-.478.318-.48h.157l.482-.477-.16-.157H93.9l-.157-.16h-.478v-.32h-.157l-.323-.317h-.16l-.156.16-.16-.16v-.317l-.158-.164-.164-.157.164-.317-.164-.157h-.16l.16-.16-.16-.156h-.315v-.164l-.64-.475-.16-.16.322-.157v-1.117l.318-.164-.157-.157v-.16h-.16l-.48-.313v-.16l-.16-.164-.156.164-.16-.164-.165.164v-.164l-.475-.157.16-.16h-.16l.16-.157-.478-.162h-.157v-.156l-.164-.157.165-.164H88.8v-.16l-.316-.156-.16-.16-.158-.157v-.318h-.16v-.164h-.479l.157-.157h-.157.157l.16-.162h-.16v-.156l-.157-.16h-.16v-.158l.16-.163v-.156l-.318-.16h-.16v-.157h.316v-.16h-.157v-.158l-.16-.164-.16.163-.163-.32h.483l-.16-.162v-.156h-.16v-.16l-.32.16v.156l-.318-.156h-.16v-.16l-.158-.158-.164-.16-.16-.164v-.475l-.315.317-.16-.317-.157-.157v-.317l-.16-.163h.16l.157-.16-.316-.157h.158l.317.157-.16-.157v-.157h.16l.316-.16.324-.157v-.641l-.164-.314v-.163l.164-.16-.323-.157.16-.16v-.5l.323.16h.16l-.16-.324V97.5l.16-.318-.16-.16v-.157h-.16v-.157h-.163l-.16-.164h-.158v-.317h-.157v-.16l-.317-.157v-.16l-.323-.16.164-.16v-.16h-.165v-.317l-.16-.16.16-.32.323-.318v-.157l-.16-.16.16-.32-.16-.318.16-.157-.48-.317-.158-.16.157-.164h.16l-.16-.318.16-.156v-.318l.322.16v-.798l.156-.157.16-.16h.157l.16.16h.158l-.158-.16.16-.164h-.318v-.318h-.157l-.16-.156h-.157V89.7h-.483v-.156l.482-.164.156.164.16-.164-.16-.16v-.157l-.48-.318h-.476v-.48l.16.163.157-.32v-.318l-.157-.317v-.48l-.317-.636-.16-.164.16-.314h-.16l-.163-.16v-.482l-.476-.792-.157-.157.157-.165h-.474l-.164-.16v-.157l-.16.157-.158-.314-.318-.16-.157-.156.316-.48-.16-.16-.157-.158h-.323l-.315.157-.318-.157h-.323l-.157-.157h-.16l-.158-.16v-.165h-.16l-.16-.157-.156-.16-.48.16h-.318l-.16-.16-.16-.157-.162.158-.317-.317h-.316v-.638l.16-.317v-.157h.157v-.157l-.48-.323-.316-.157h-.477l-.48-.48v-.16l.16-.16.164-.474-.164-.317v-.18l-.475-.317-.16.16v.157l.16.32-.16.16h-.318l-.163-.48h-.317l-.477-.157v.157l-.48.48-.317-.16h-.323l-.315.48h-.476l-.48-.16-.317.316-.476.16h-.482l-.316-.16-.323.16H70v-.16l-.16-.157-.64-.318-.316.157h-.318l-.157.316h-.8l-.157-.317-.318-.32v-.155l-.48-.32-.318.155h-.32l-.16.164v.475h-.16l-.158.316-.48-.157-.317.156-.477-.317h-.16l-.32.316-.318-.157-.16-.16-.158-.32-.16-.155-.32-.165-.633-.157-.323.32-.317.157-.316-.156-.48-.164-.16-.317h-.474l-.164.16-.16.157-.632 1.116-.48.16h-.32l-.157-.16-.16-.16h-.957l-.157-.157.156-.957v-.317l-.48-.16-.158-.482-.16-.156-.316-.636-.956-.64-.16-.155h-.796l-.318.156h-.162l-.317-.48h-.477l-.322.163h-.318l-1.273-.64H49.45l-.956-.316-.48-.32-.317-.16-.48-.158h-.16l-.475-.317-.16-.64h-.162l-.317-.316-.317-.16-.48.16h-.158l-.635-.16h-.322l-.633-.158-.322.157h-.316l-.64-.322h-.48l-.475.64H41l-.634.316h-.32l-.16-.157-.634.157-.16.164-.32-.164-.476-.157-.64-.478-.316-.16h-1.115l-.48.317h-.476l-.16-.317-.158-.64v-.16h-.323l-.16-.156h-.157l-.317-.16-1.755.478h-.158l-.48-.16-.317-.317-.16-.16-.158-.16-.956-.8h-.48l-.792-.475-.64-.157H27.3l-.798-.483-.317-.16h-.16l-.317.16-.157.164-.322.475-.16.474v.164l-.156.635v.16l.157.956-.64.156-.317.164-.64.317h-.16v-.8L23 70.894l-.16-.16-.637.16-.316.157-.318.317-.48-.157H19.97l-.8-.317-.316-.16H18.7l-.16-.16h-.322v.16H17.9l-.796.478h-.16l-.474-.316-.324-.16h-.157l-.636-.64-.32-.48h-.162l-.316.164-1.432.956-.956.317h-.48l-.634-.316-.64-.16-.157-.16h-.643l-.797.32-.317-.162-1.115-.795-.476-.164-1.114.164-.164.16-.318.157-.317.16v.157l-.32.16-.32.322-.317.32-.64.156-.316.482-.16-.48-.157-.476zM196.51 89.85v.162h-.16v-.16l.16-.158h-.16v.157m-3.985 8.288v-.158.158h.317l-.157.157h.157v.16l-.157.157v-.157l-.16-.16v-.157zm-23.424 2.072v-.16.16zm18.965-7.17h.16-.16zm4.143-.317h-.157l.158-.16v.16h-.157.158zm3.186-3.986v-.16.16zm-9.558 5.576v-.16.16zm.317 8.127v-.16.16zm9.083-12.11h.158v.156h-.158v-.157zm-9.72 12.11v-.16.16zm1.112-1.59h-.156v.156h-.16v.16l.48.157-.164.16.164.157h.16l.316.32.16-.32.155.157h.16l.163.164-.162.16-.16-.16V102.914h.16l-.16.163v.157l-.316.317-.477-.156-.32-.48.157-.32-.317-.474-.315.157v-.157l-.16.157h-.163l-.156-.157-.16.157h-.158v.16l-.317-.16-.163.317-.952.16h-.162l-.477.158-.475-.157-.32-.48v-.794h.157l.32-.317h.16v-.16l.317-.157h.158l-.158-.164h.158l.8-.792.315-.164v-.635h.158v-.156l.164-.164v-.317l.156-.475v-.324l.317-.157.317.157.164.164h.475v.16h.316l.164.157h.16l.157.157v.16l.16.157h.158l.156.323h.162l-.16.157v.317l-.157.317h.156v.164l-.314.157.16.16h.155l-.155.157h.318l-.16.157-.476-.158h-.317l-.32.317h.155v.17zm5.74-7.496h.157-.157zm-4.623 6.54v-.165l.162.163h-.162zM146.48 113.27h.158-.16zm48.754-24.058h.16-.16v.16l-.158-.16h.158zm-.957.325h-.157v-.164h.157v.164zm-18.165 9.714h.164-.164zm4.466 1.6v-.165h.157v-.16.324h-.157zm-32.51 12.585h.165v.157h-.164v-.157zm.165.474v-.158h.16v.157h-.16zm47.957-23.58v.156-.157h.16v-.162.318l-.16-.157zm-20.237 9.238v-.157h.16v.158h-.16zm10.04-4.94l.157-.157h.16v.158h-.317zm-11.472 6.378v-.157h.319l-.158.156v.16h-.16v-.16zm14.66-7.17l.158-.157.16.156v.16l-.16-.16-.158.16v-.16zm0 5.732l.317-.157.157-.16v.16l.64.318-.158.164-.318-.164-.32.32-.16-.32-.158-.16zm2.387-6.528v-.16l.48.16v.157l-.48.157-.476.48v-.48l-.156-.157.157-.157v-.16.16l.16.157h.158l.16-.157z"/></svg>