<?xml version="1.0" encoding="utf-8"?>
<!-- Generator: Adobe Illustrator 16.0.0, SVG Export Plug-In . SVG Version: 6.00 Build 0)  -->
<!DOCTYPE svg PUBLIC "-//W3C//DTD SVG 1.1//EN" "http://www.w3.org/Graphics/SVG/1.1/DTD/svg11.dtd">
<svg version="1.1" id="Layer_1" xmlns="http://www.w3.org/2000/svg" xmlns:xlink="http://www.w3.org/1999/xlink" x="0px" y="0px"
	 width="117px" height="100.25px" viewBox="0 0 117 100.25" enable-background="new 0 0 117 100.25" xml:space="preserve">
<path fill-rule="evenodd" clip-rule="evenodd" fill="#FFFFFF" d="M112.065,19.866c12.206,21.144-1.676,52.152-30.905,69.028
	c-29.227,16.875-63.022,13.392-75.23-7.751C-6.279,60,7.605,28.99,36.833,12.115C66.062-4.76,99.856-1.279,112.065,19.866
	L112.065,19.866z M52.706,76.006l-3.677-11.244H29.184l-3.926,11.244h-8.152l21.659-54.063h1.925l18.995,51.11l15.731-24.096
	c3.492-5.355,5.245-9.917,5.245-13.645c0-4.933-2.784-7.393-8.338-7.393c-1.966,0-3.815,0.51-5.53,1.541
	c-1.727,1.032-2.983,2.336-3.752,3.914l-4.697-3.851c0.818-2.386,2.447-4.275,4.858-5.681c2.409-1.416,5.33-2.112,8.759-2.112
	c5.12,0,9.123,1.182,12.006,3.542c2.895,2.374,4.334,5.715,4.334,10.039c0,4.002-1.913,9.047-5.752,15.135L70.57,69.459h20.901
	v6.547H60.783h-2.079H52.706L52.706,76.006z M39.386,35.921l-8.264,23.484h15.829L39.386,35.921L39.386,35.921z"/>
</svg>
