<?xml version="1.0" encoding="utf-8"?>
<!-- Generator: Adobe Illustrator 16.0.0, SVG Export Plug-In . SVG Version: 6.00 Build 0)  -->
<!DOCTYPE svg PUBLIC "-//W3C//DTD SVG 1.1//EN" "http://www.w3.org/Graphics/SVG/1.1/DTD/svg11.dtd">
<svg version="1.1" id="Layer_1" xmlns="http://www.w3.org/2000/svg" xmlns:xlink="http://www.w3.org/1999/xlink" x="0px" y="0px"
	 width="125px" height="29px" viewBox="0 0 125 29" enable-background="new 0 0 125 29" xml:space="preserve">
<path fill-rule="evenodd" clip-rule="evenodd" fill="#FFFFFF" d="M32.162,5.679c3.551,6.15-0.487,15.17-8.989,20.079
	c-8.502,4.908-18.332,3.895-21.884-2.256c-3.551-6.149,0.488-15.169,8.99-20.078C18.781-1.485,28.611-0.472,32.162,5.679
	L32.162,5.679z M14.896,22.009l-1.069-3.271H8.054l-1.142,3.271H4.541l6.3-15.726h0.561l5.525,14.867l4.576-7.009
	c1.015-1.558,1.525-2.885,1.525-3.969c0-1.435-0.81-2.15-2.425-2.15c-0.572,0-1.109,0.148-1.608,0.448
	c-0.502,0.3-0.868,0.68-1.091,1.139l-1.366-1.12c0.238-0.694,0.711-1.244,1.413-1.653c0.701-0.412,1.551-0.614,2.548-0.614
	c1.489,0,2.654,0.344,3.493,1.03c0.841,0.691,1.261,1.663,1.261,2.92c0,1.164-0.557,2.632-1.673,4.403l-3.484,5.531h6.08v1.903
	h-8.927h-0.604H14.896L14.896,22.009z M11.021,10.349L8.618,17.18h4.604L11.021,10.349L11.021,10.349z"/>
<path fill-rule="evenodd" clip-rule="evenodd" fill="#FFFFFF" d="M42.644,17.488c-0.251,0.166-0.932,0.541-1.863,0.541
	c-1.641,0-2.558-1.279-2.558-2.947c0-1.891,0.779-2.975,2.447-2.975c0.82,0,1.584,0.375,1.891,0.556l0.139-2.14
	c-0.237-0.098-1.084-0.445-2.35-0.445c-3.184,0-4.825,2.085-4.825,4.949c0,3.406,2.017,5.091,4.838,5.091
	c0.737,0,1.571-0.125,2.391-0.378L42.644,17.488L42.644,17.488z M43.05,15.096c0,3.601,2.196,5.021,4.31,5.021
	c2.113,0,4.31-1.421,4.31-5.021s-2.197-5.019-4.31-5.019C45.246,10.077,43.05,11.495,43.05,15.096L43.05,15.096z M45.705,15.096
	c0-1.891,0.529-3.156,1.641-3.156c1.099,0,1.627,1.265,1.627,3.156c0,1.92-0.528,3.156-1.627,3.156h-0.014
	C46.233,18.252,45.705,17.016,45.705,15.096L45.705,15.096z M56.676,19.948h1.627l2.086-7.368h0.027v7.368h2.336v-9.704h-3.753
	l-1.418,6.089h-0.028l-1.292-6.089h-3.851v9.704h2.28V12.58h0.027L56.676,19.948L56.676,19.948z M66.271,10.244h-2.557v6.062
	c0,2.836,1.653,3.812,3.697,3.812c2.043,0,3.697-0.976,3.697-3.812v-6.062h-2.558v6.145c0,1.07-0.235,1.808-1.14,1.808
	s-1.168-0.737-1.141-1.808V10.244L66.271,10.244z M76.84,19.948h3.059v-9.704h-2.279v6.688h-0.027l-2.545-6.688h-3.031v9.704h2.281
	v-6.729h0.055L76.84,19.948L76.84,19.948z M80.875,19.948h2.613v-9.704h-2.613V19.948L80.875,19.948z M91.346,17.488
	c-0.25,0.166-0.932,0.541-1.863,0.541c-1.641,0-2.558-1.279-2.558-2.947c0-1.891,0.778-2.975,2.446-2.975
	c0.822,0,1.586,0.375,1.892,0.556l0.14-2.14c-0.236-0.098-1.086-0.445-2.352-0.445c-3.183,0-4.822,2.085-4.822,4.949
	c0,3.406,2.016,5.091,4.837,5.091c0.737,0,1.571-0.125,2.392-0.378L91.346,17.488L91.346,17.488z M97.702,19.948h2.696l-3.086-9.704
	h-2.877l-3.227,9.704h2.503l0.626-2.058h2.851L97.702,19.948L97.702,19.948z M96.701,16.027h-1.92l1.043-3.809h0.029L96.701,16.027
	L96.701,16.027z M107.422,17.488c-0.25,0.166-0.932,0.541-1.863,0.541c-1.64,0-2.558-1.279-2.558-2.947
	c0-1.891,0.778-2.975,2.448-2.975c0.82,0,1.584,0.375,1.889,0.556l0.139-2.14c-0.235-0.098-1.083-0.445-2.348-0.445
	c-3.184,0-4.824,2.085-4.824,4.949c0,2.976,1.529,4.644,3.809,4.993l-0.64,1.126l0.361,0.307c0.125-0.056,0.251-0.112,0.515-0.112
	c0.361,0,0.516,0.195,0.516,0.418c0,0.36-0.238,0.527-0.766,0.527c-0.375,0-0.667-0.125-0.918-0.222l-0.277,0.723
	c0.389,0.153,0.945,0.251,1.432,0.251c1.113,0,1.836-0.57,1.836-1.321c0-0.653-0.446-1.015-1.141-1.015
	c-0.195,0-0.391,0.027-0.516,0.055l0.361-0.652c0.07,0,0.168,0.014,0.265,0.014c0.737,0,1.571-0.125,2.392-0.378L107.422,17.488
	L107.422,17.488z M113.027,7.63c0,0.25-0.154,0.444-0.375,0.444c-0.251,0-0.459-0.097-0.779-0.222
	c-0.319-0.138-0.625-0.194-0.875-0.194c-0.876,0-1.363,0.932-1.363,1.821h1.113c0-0.25,0.152-0.445,0.375-0.445
	c0.25,0,0.459,0.097,0.778,0.236c0.319,0.125,0.626,0.181,0.874,0.181c0.878,0,1.365-0.931,1.365-1.821H113.027L113.027,7.63z
	 M113.778,19.948h2.696l-3.086-9.704h-2.877l-3.226,9.704h2.503l0.625-2.058h2.85L113.778,19.948L113.778,19.948z M112.775,16.027
	h-1.917l1.043-3.809h0.028L112.775,16.027L112.775,16.027z M116.381,15.096c0,3.601,2.196,5.021,4.309,5.021
	c2.113,0,4.311-1.421,4.311-5.021s-2.197-5.019-4.311-5.019C118.577,10.077,116.381,11.495,116.381,15.096L116.381,15.096z
	 M119.035,15.096c0-1.891,0.529-3.156,1.642-3.156c1.099,0,1.626,1.265,1.626,3.156c0,1.92-0.527,3.156-1.626,3.156h-0.015
	C119.564,18.252,119.035,17.016,119.035,15.096L119.035,15.096z"/>
</svg>
