<?xml version="1.0" encoding="utf-8"?>
<!-- Generator: Adobe Illustrator 16.0.0, SVG Export Plug-In . SVG Version: 6.00 Build 0)  -->
<!DOCTYPE svg PUBLIC "-//W3C//DTD SVG 1.1//EN" "http://www.w3.org/Graphics/SVG/1.1/DTD/svg11.dtd">
<svg version="1.1" id="Layer_1" xmlns="http://www.w3.org/2000/svg" xmlns:xlink="http://www.w3.org/1999/xlink" x="0px" y="0px"
	 width="800px" height="800px" viewBox="0 0 800 800" enable-background="new 0 0 800 800" xml:space="preserve">
<g>
	<polyline fill="#494543" stroke="#BEBEBB" stroke-miterlimit="10" points="49.245,49.25 749.899,750.313 750.093,750.121 
		49.438,49.055 	"/>
	<polyline fill="#494543" stroke="#BEBEBB" stroke-miterlimit="10" points="750.106,49.065 49.035,750.199 49.229,750.396 
		750.301,49.261 	"/>
	<polyline fill="#494543" stroke="#BEBEBB" stroke-miterlimit="10" points="50.371,49.261 750.301,49.261 750.301,48.985 
		50.371,48.985 	"/>
	<polyline fill="#494543" stroke="#BEBEBB" stroke-miterlimit="10" points="0.898,399.806 798.436,399.806 798.436,399.528 
		0.898,399.528 	"/>
	<polyline fill="#494543" stroke="#BEBEBB" stroke-miterlimit="10" points="0.685,548.026 798.662,548.026 798.662,547.753 
		0.685,547.753 	"/>
	<polyline fill="#494543" stroke="#BEBEBB" stroke-miterlimit="10" points="0.705,251.583 798.662,251.583 798.662,251.308 
		0.705,251.308 	"/>
	<polyline fill="#494543" stroke="#BEBEBB" stroke-miterlimit="10" points="48.934,50.172 48.934,749.162 49.208,749.162 
		49.208,49.234 	"/>
	<polyline fill="#494543" stroke="#BEBEBB" stroke-miterlimit="10" points="251.305,0.883 251.299,798.839 251.573,798.839 
		251.58,0.883 	"/>
	<polyline fill="#494543" stroke="#BEBEBB" stroke-miterlimit="10" points="399.525,0.959 399.525,798.432 399.798,798.432 
		399.798,0.959 	"/>
	<polyline fill="#494543" stroke="#BEBEBB" stroke-miterlimit="10" points="750.158,49.354 750.158,749.283 750.437,749.283 
		750.437,49.354 	"/>
	<polyline fill="#494543" stroke="#BEBEBB" stroke-miterlimit="10" points="49.229,750.396 750.093,750.396 750.093,750.121 
		49.229,750.121 	"/>
	<polyline fill="#494543" stroke="#BEBEBB" stroke-miterlimit="10" points="547.69,0.728 547.69,798.695 547.965,798.695 
		547.965,0.728 	"/>
	<g>
		<path fill="#494543" stroke="#BEBEBB" stroke-miterlimit="10" d="M547.904,399.667h-0.142c0,40.897-16.576,77.922-43.378,104.724
			s-63.826,43.377-104.724,43.377s-77.922-16.575-104.724-43.377s-43.378-63.826-43.378-104.724
			c0-40.898,16.576-77.923,43.378-104.725c26.802-26.801,63.825-43.377,104.724-43.377c40.897,0,77.922,16.576,104.724,43.377
			c26.802,26.802,43.378,63.826,43.378,104.725H547.904h0.141c0-81.951-66.434-148.383-148.384-148.383
			s-148.382,66.432-148.382,148.383c0,81.952,66.432,148.384,148.382,148.384s148.384-66.432,148.384-148.384H547.904z"/>
	</g>
	<g>
		<path fill="#494543" stroke="#BEBEBB" stroke-miterlimit="10" d="M750.137,399.668h-0.139
			c0,96.742-39.212,184.324-102.611,247.724c-63.401,63.398-150.98,102.61-247.725,102.61c-96.744,0-184.329-39.212-247.728-102.61
			C88.537,583.992,49.322,496.41,49.322,399.668c0-96.744,39.214-184.329,102.611-247.726
			C215.333,88.544,302.915,49.331,399.662,49.331c96.745,0,184.324,39.213,247.725,102.611
			c63.399,63.396,102.611,150.981,102.611,247.726H750.137h0.138c0-193.638-156.975-350.612-350.613-350.612
			C206.023,49.056,49.05,206.03,49.05,399.668c0,193.637,156.973,350.611,350.612,350.611
			c193.638,0,350.613-156.975,350.613-350.611H750.137z"/>
		<path fill="#494543" stroke="#BEBEBB" stroke-miterlimit="10" d="M609.229,399.668h-0.139c0,57.832-23.441,110.191-61.339,148.09
			c-37.902,37.897-90.258,61.338-148.089,61.338c-57.833,0-110.188-23.44-148.089-61.338c-37.897-37.898-61.34-90.258-61.34-148.09
			c0-57.833,23.442-110.188,61.34-148.089c37.901-37.899,90.256-61.339,148.089-61.339c57.832,0,110.187,23.44,148.089,61.339
			c37.897,37.901,61.339,90.256,61.339,148.089H609.229h0.136c0-115.814-93.887-209.704-209.703-209.704
			c-115.816,0-209.702,93.89-209.702,209.704c0,115.814,93.886,209.703,209.702,209.703c115.816,0,209.703-93.889,209.703-209.703
			H609.229z"/>
	</g>
	<g>
		<path fill="#494543" stroke="#BEBEBB" stroke-miterlimit="10" d="M798.428,634.407h-0.234c0,45.042-18.427,85.989-48.114,115.678
			c-29.688,29.688-70.636,48.113-115.677,48.113H164.921c-45.042,0-85.989-18.426-115.677-48.113
			C19.557,720.396,1.131,679.449,1.131,634.407v-469.48c0-45.042,18.426-85.989,48.114-115.677
			C78.933,19.563,119.879,1.136,164.921,1.136h469.481c45.041,0,85.988,18.426,115.677,48.114
			c29.688,29.688,48.114,70.635,48.114,115.677v469.48H798.428h0.234v-469.48C798.66,74.583,724.746,0.668,634.402,0.667l0,0
			H164.921l0,0C74.577,0.668,0.663,74.583,0.662,164.927l0,0v469.48l0,0c0.001,90.344,73.916,164.259,164.26,164.261h469.481
			c90.344-0.002,164.258-73.917,164.26-164.261H798.428z"/>
	</g>
</g>
</svg>
