<?xml version="1.0" encoding="utf-8"?>
<!-- Generator: Adobe Illustrator 16.0.0, SVG Export Plug-In . SVG Version: 6.00 Build 0)  -->
<!DOCTYPE svg PUBLIC "-//W3C//DTD SVG 1.1//EN" "http://www.w3.org/Graphics/SVG/1.1/DTD/svg11.dtd">
<svg version="1.1" id="Layer_1" xmlns="http://www.w3.org/2000/svg" xmlns:xlink="http://www.w3.org/1999/xlink" x="0px" y="0px"
	 width="168.25px" height="137.25px" viewBox="0 0 168.25 137.25" enable-background="new 0 0 168.25 137.25" xml:space="preserve">
<path id="Minas_Gerais_1_" fill="none" stroke="#0079FF" d="M0.902,86.484l-0.101-0.205l0.2-0.299L0.701,85.68v-0.104l0.101-0.102
	l0.101-0.504l0.202-0.4l0.102-0.1l0.3-0.809l0.101-0.201l0.204-0.1h0.1l0.302,0.1h0.103h0.201V83.26v-0.303l-0.101-0.199
	L1.91,82.051V81.85l0.2-0.203l0.204-0.098l0.502,0.201l0.908,0.301h0.1l0.201-0.201v-0.1l-0.201-0.303L3.32,81.043l-0.1-0.102
	l0.1-0.199v-0.102l0.2-0.199l0.102-0.404l0.202-0.305v-0.301l0.101-0.199v-0.1l0.2-0.305l0.404-0.404h0.302l0.304-0.4l0.1-0.201
	v-0.104v-0.201l0.101-0.201l0.805-0.203l0.101-0.199L6.14,76.613l0.101-0.102h0.203h0.2H7.55l0.203-0.203l0.402-0.201V76.01h0.103
	l0.2-0.406l0.4-0.605V74.6L8.76,74.498l0.099-0.305l-0.2-0.502V73.49l0.2-0.102l0.405-0.199h0.1l0.305-0.406l0.3-0.805v-0.1
	l0.101-0.104l0.304-0.1h0.2l0.101-0.1l0.304-0.807l0.502-0.703l0.203-0.205l0.201-0.1l0.1-0.102l0.2-0.1l0.305-0.098l0.504,0.098
	h0.301l0.505-0.299l1.208,0.201l0.302-0.305l0.203-0.201l0.2-0.506l0.101-0.1h0.2h0.505l0.1,0.201l0.605,0.104h0.404l0.3-0.205
	h0.102l0.103,0.102l0.101,0.104h0.2l0.201,0.199h0.303l0.302,0.102h0.099h0.104l0.101-0.201l0.101-0.203l0.201-0.102l0.2,0.102
	h0.104l0.2-0.102l0.301-0.201l0.203-0.098h0.201h0.1l0.304,0.2h0.102l0.099-0.2l-0.303-0.305l0.103-0.1v-0.101l0.302-0.1
	l0.805-0.102l0.204,0.102l0.1-0.102h0.101v-0.1l0.1-0.099l-0.1-0.406l0.1-0.1h0.102l0.203-0.102l0.3,0.102h0.102l0.099,0.1v0.102
	v0.305v0.198l0.102,0.302l0.708,0.704l0.2,0.506h0.1l0.201,0.1l0.305-0.1l0.099-0.102l0.101-0.303l0.304-0.303l0.2-0.502h0.102
	l0.3,0.1l0.104-0.1l0.099-0.302l0.102-0.1l0.1-0.099h0.101l0.303-0.104l0.102-0.303l0.201-0.403l0.199-0.201l0.204-0.1l0.1-0.101
	v-0.104v-0.099l-0.304-0.201v-0.099L28,65.432l0.301,0.102l0.404-0.102l0.101-0.1l0.4-0.305h0.304v0.1l-0.1,0.102v0.104h0.2
	l0.101,0.1h0.201v0.102l0.403-0.201l0.101-0.205v-0.198l0.303-0.201l0.302,0.1h0.1l0.104-0.201h0.1v-0.305h0.102l0.1-0.099l0.2-0.1
	l0.305-0.305h0.3l0.101,0.203h0.404l0.1,0.201l0.505,0.099l0.1,0.102l0.102,0.506h0.199l0.204-0.303l0.201-0.104l0.2,0.104
	l0.304-0.203l0.301,0.1l0.304-0.1l0.2,0.1l0.2-0.1h0.205h0.199h0.201v-0.102v-0.099l0.101-0.1l0.604,0.1h0.104l0.099-0.1h0.303
	l0.1,0.1v0.2l0.1,0.1h0.304l0.2,0.205l0.305-0.205h0.1l0.102,0.104l-0.102,0.201l0.102,0.102l0.504-0.303l0.199,0.102l0.201-0.102
	h0.104h0.101v0.201h0.101h0.505l0.199-0.1l0.101,0.1h0.101h0.101l0.099,0.2h0.205h0.1v-0.099l-0.201-0.102v-0.1l0.401-0.305
	l0.203-0.2H41.9H42l0.101,0.2h0.404v0.203l0.1,0.102h0.401l0.305,0.1h0.2v0.2l0.2,0.201v0.203l0.303,0.102l0.201,0.099l0.304,0.102
	h0.101h0.2l0.102-0.102l0.104-0.2h0.099l0.101,0.102l0.101,0.2l0.201,0.1l0.202,0.099v0.104l0.101,0.101h0.101l0.3-0.205v0.104v0.2
	v0.201h0.102h0.104v0.304l0.1,0.1l0.101-0.1l0.2-0.102h0.101l0.104-0.302l0.1-0.102l0.401,0.201l0.104-0.1l0.1,0.1h0.102l0.099-0.1
	v-0.102l-0.099-0.1l0.099-0.101v-0.104l0.102-0.099l0.1,0.099l0.204,0.104h0.1v-0.104l-0.1-0.099l0.1-0.201v-0.2l0.201-0.1
	l0.1-0.104l0.102,0.104h0.099l-0.099,0.1l0.099,0.102h0.104l0.101,0.099l0.2-0.099l0.101-0.102h0.203v-0.1l-0.104-0.104l0.104-0.201
	l0.101-0.099h0.101l-0.101-0.201h0.4v0.201h0.102h0.103l0.201-0.201v-0.102h0.1h0.1l0.205-0.503h0.1l0.1,0.1v0.099l0.201-0.099
	h0.101v-0.1l0.203-0.205l-0.203-0.1l-0.101-0.2l-0.101-0.1l0.101-0.102l0.199-0.104l-0.099-0.2l0.203-0.1v0.1l0.101,0.102v-0.102
	v-0.1v-0.102l0.2-0.198h0.101h0.1l-0.2-0.104h0.2l0.104-0.102l0.101-0.201h0.1l0.201-0.2h0.1v0.101v0.301v0.102l0.101,0.104v-0.104
	v-0.102l0.203-0.1v-0.201l0.201-0.101l0.1,0.101l0.101-0.101h0.104l-0.104-0.1l0.104-0.104v-0.1l0.201,0.1v-0.1h0.099l0.201-0.2
	h0.101l0.104,0.099h0.101v-0.099l-0.101-0.102l0.101-0.203h0.2v0.104l0.1-0.104h0.204v-0.1H54.69l0.204-0.102v-0.2L54.995,61
	l0.1-0.102h0.2v-0.1l0.2-0.104v-0.102h-0.099v-0.198l0.203,0.099l0.1-0.099l0.302-0.201H56.1l0.205,0.1l-0.102-0.201h0.102h0.1
	l0.101-0.104v-0.198l-0.101-0.201h-0.1h0.1l-0.1-0.102l0.1-0.099l-0.1-0.104L56.1,59.185v-0.1h-0.099v-0.201v-0.099H56.1v-0.205
	l-0.3-0.201v-0.198h-0.101v-0.104l-0.1-0.102h0.1l-0.1-0.1l0.1-0.102h-0.1l0.1-0.099l-0.1-0.102h-0.104l-0.099-0.1h0.099
	l-0.099-0.104l0.099-0.201l-0.099-0.099V56.97v-0.1l-0.102-0.203l-0.1-0.102l0.1-0.099l0.102-0.102l0.099-0.1H55.6l-0.203-0.102
	h0.099l0.104-0.104l-0.104-0.099v-0.1l0.204-0.102v-0.1L55.8,55.56v-0.099l-0.101-0.104v-0.1l0.101-0.102l0.201-0.201l0.099-0.202
	v-0.201l0.104-0.1h0.102v-0.102h0.2l0.2-0.2v-0.104v-0.1h-0.1v-0.102v-0.198h0.2v-0.305v-0.2l-0.101-0.201l-0.2-0.305l-0.302-0.3
	L56.1,52.134l-0.099-0.2L55.8,51.833l-0.305,0.102l-0.3-0.102l-0.2-0.1h-0.203l-0.201,0.1l-0.505,0.102l-0.1,0.099h-0.102h-0.099
	l-0.102-0.401l-0.203,0.303l-0.101-0.102h-0.1v-0.1v-0.304v-0.201l-0.1-0.1l-0.102-0.2l-0.304-0.104h-0.1l0.1-0.201h0.204v-0.2v-0.1
	h-0.104v-0.102l-0.101-0.104h0.204v-0.1h-0.104v-0.1l-0.101-0.101h0.101v-0.1v-0.102l0.104,0.102l0.1-0.102v-0.305l-0.1-0.099
	l0.301-0.201h-0.1V48.81v0.104l0.199,0.1v0.102h0.101v0.1l0.305-0.1l0.099,0.198l0.102-0.099l-0.102-0.1h0.201v0.1l0.101-0.1
	l-0.2-0.201h0.1V48.81h0.101l0.104-0.102l0.199,0.102v-0.102l-0.099-0.198l0.099-0.102V48.31l-0.099-0.102H54.29v-0.104l0.301-0.1
	v-0.102l-0.102-0.1h0.201v-0.099v-0.102h0.204l0.101,0.102l0.1-0.102l-0.1-0.104h0.1l-0.1-0.201l0.1-0.1h0.101h0.201v-0.102V47
	l0.099-0.1V47H55.6v-0.1l-0.104-0.104l-0.099-0.102h0.099H55.6h0.1l-0.204-0.1l0.104-0.101l-0.104-0.1H55.8l0.101-0.102L55.8,46.192
	L55.9,46.09v0.102L56.1,46.09l0.104,0.203l0.102-0.102l-0.102-0.102l0.201-0.099l0.201,0.099l-0.101-0.2l0.101-0.1v-0.102h0.1
	l-0.1-0.1l0.1-0.202l0.101,0.202v-0.304l0.104,0.102v-0.102l0.1,0.102h0.101v-0.303v0.102l0.101-0.102l0.1,0.102h0.101H57.31v-0.102
	h0.101v-0.1l0.305,0.1l-0.102-0.1l0.102-0.104l0.099,0.104l0.101-0.104h-0.101V44.78h0.101l0.101-0.099v0.099l0.101-0.099h-0.101
	v-0.3h0.101v0.099l0.204,0.102l-0.102-0.102h0.102v-0.099l0.099-0.102v0.102V44.28l0.102,0.102V44.28h0.1l-0.1-0.104h0.1h0.101
	l-0.101-0.1l0.201-0.1v-0.102l-0.201,0.102v-0.102h0.101v-0.099h-0.2l0.301-0.102l0.104-0.104l-0.104-0.1l-0.201-0.102v-0.1
	l-0.1,0.1l-0.102-0.1l0.102-0.099l-0.2-0.102l0.099-0.1l-0.099-0.104l-0.102,0.104v-0.104l-0.103-0.102l0.303-0.1l-0.099-0.101
	h-0.102l-0.103-0.199h-0.101l-0.201,0.1l0.101-0.203h-0.101l-0.099-0.102h0.099l0.101-0.099h-0.101v-0.102h-0.099l-0.102-0.201h0.2
	v-0.1l-0.099-0.304l0.199-0.201l-0.301,0.102v-0.102l0.102-0.1l-0.201-0.104v-0.099v-0.102v-0.1v-0.102v-0.099H57.31V40.25h0.101
	H57.31l-0.1-0.102l0.1-0.201l0.101-0.099l-0.101-0.102h0.101v-0.104v-0.199l-0.2-0.102h-0.101h-0.101l0.101-0.099v-0.305
	l-0.101,0.104l-0.1-0.104l0.2-0.102l-0.101-0.1h-0.1h0.1l-0.1-0.2l-0.104,0.102l-0.101,0.099l-0.1-0.099v-0.201h-0.101v-0.102
	v-0.104l-0.101,0.104v-0.202h-0.1l-0.102,0.099v-0.099L56.1,37.933l-0.099,0.1l0.099-0.199l-0.099-0.102v0.102L55.8,38.033
	l-0.101-0.1l0.101-0.1l-0.101-0.102H55.8h-0.101v-0.104h-0.204V37.53l-0.2,0.099v0.104h-0.1v-0.104v-0.2h-0.2v0.102l-0.101-0.102
	v-0.1h-0.103h-0.201l0.1-0.1h-0.1l0.1-0.101h-0.1l0.1-0.104l-0.1-0.099l-0.102,0.099l-0.099-0.099v0.099l-0.101-0.099l0.101-0.102
	h-0.204v-0.201l-0.101-0.198l-0.1-0.104v-0.102v-0.201v-0.3l0.1-0.104l0.101-0.201l0.204-0.099l0.099-0.305l-0.099-0.401l0.099-0.1
	l0.102-0.104l0.201-0.102l0.303-0.501l0.101-0.202h0.1l0.102-0.301l0.099-0.101v-0.203l0.104-0.102l-0.104-0.1l0.104-0.2l0.2-0.1
	v-0.104H55.9l0.101-0.303L55.9,31.788h0.101L55.9,31.686l-0.101-0.1H55.9l-0.101-0.2h-0.101l0.101-0.102v-0.1l-0.101-0.104h-0.1
	l0.1-0.1l-0.1-0.101l0.1-0.1h-0.1V30.68l-0.104-0.1l0.204-0.102v-0.101H55.8l-0.101-0.102l0.101-0.1v-0.102v-0.1v-0.102l0.101,0.102
	v-0.102h0.101v0.102l0.099-0.102v-0.104h0.104v-0.099l-0.104-0.1l0.104-0.102v-0.1v-0.101v-0.104H56.1l0.104-0.099H56.1l0.205-0.1
	v-0.2v0.099v-0.099h0.1h0.101v-0.102l0.101,0.102v-0.102v0.102h0.304l0.1,0.099l0.201-0.099h0.1h0.101h0.104v-0.102l0.1-0.1
	l0.102-0.104v-0.102h0.099v-0.1h0.101h0.101v-0.099v-0.102l0.101,0.102h0.103l0.102-0.102h-0.102h0.102l-0.102-0.1h0.102h-0.102
	v-0.102h0.102h-0.102l0.102-0.203l0.099,0.1v-0.1h0.102v-0.102h0.1l0.101-0.099h-0.101h0.101l0.101,0.099l-0.101,0.201l0.204-0.1
	l0.2,0.203l0.1,0.102l0.102-0.102l0.099,0.102l0.104-0.102l0.401-0.305l1.409-0.3l2.014-0.504h0.203v-0.101l0.102-0.1v-0.204
	l-0.305-0.505l0.104-0.1l-0.104-0.1l0.203-0.401l-0.203-0.505v-0.304l-0.3-0.301l-0.2-0.404l0.099-0.505l-0.099-0.199l0.099-0.201
	v-0.101l-0.403-0.099v-0.104h-0.101l-0.199-0.201l-0.305-0.101l-0.401-0.303v-0.201V21.21l0.2-0.604v-0.602l0.301-0.404l0.205-0.201
	l0.199-0.099l0.301-0.104l0.203-0.201v-0.1l-0.303-0.102l0.204-0.202h0.2l0.1-0.402l-0.504-0.604h-0.302v-0.705h-0.099h-0.102
	l-0.104,0.101l-0.2,0.2l-0.2-0.401l0.1-0.1l-0.1-0.304l0.301-0.404l0.1-0.302l0.205-0.403l0.099-0.201l0.101-0.1l-0.199-0.101
	v-0.203l-0.205-0.101l-0.2-0.2v-0.2l0.101-0.101l0.805-0.504l0.104-0.204l0.5,0.103l0.604,0.102l0.404,0.2l0.404,0.1l0.4,0.204
	l0.305,0.101l0.401,0.3l0.203,0.101l0.2,0.101l0.301-0.101h0.102l0.202-0.101l0.201,0.101l0.2-0.2l0.1-0.102h0.104l0.201-0.199h0.1
	l0.201,0.101l0.103-0.101l-0.103-0.404l-0.101-0.1v-0.102l-0.2-0.103l0.1-0.301l0.101-0.1v-0.102v-0.1l-0.2-0.104l-0.1-0.101v-0.2
	l-0.102-0.2l0.102-0.505l0.1-0.2l0.2-0.504l-0.2-0.304h-0.1l-0.305-0.102v-0.1v-0.1l-0.1-0.201V9.929l0.303-0.2V9.428h0.102
	l0.3-0.104l0.101-0.099l0.103-0.102l-0.103-0.201l0.103-0.203l0.201,0.104l0.301-0.104v0.104l0.103,0.301h0.302l0.2,0.304
	L69.6,9.629l0.4,0.401h0.104l0.101,0.103h0.1l0.302,0.101v0.2h0.203v0.301v0.204l0.101,0.1h0.2l-0.1,0.301l-0.101,0.104v0.1
	l-0.101,0.201h0.101l0.101,0.101h0.2v0.2l0.104,0.104h0.401l0.199-0.104h0.204l0.101,0.304h0.2v-0.101h0.1l0.404,0.201l0.302-0.301
	l-0.101-0.304h0.101v0.099l0.203,0.205h0.101l0.1-0.104h0.201l0.104,0.203h0.099h0.201l0.102-0.1l0.1-0.404l0.203,0.101l0.2-0.302
	l0.102-0.203h0.099v0.104h0.201l0.305,0.301l-0.101,0.404h0.199l0.102,0.2l0.304,0.101v0.304v0.4l-0.101,0.101v0.101v0.504
	l-0.504,0.505l-0.101,0.1v0.201l-0.203,0.104v0.2l-0.2,0.1l-0.102,0.201v0.104l0.102,0.1v0.2l-0.102,0.102v0.099l-0.2,0.102h-0.203
	v0.103h-0.201l-0.1,0.101h-0.304v0.201l0.304,0.2v0.304l0.1,0.2l0.102-0.1v0.1l0.1,0.2l0.403-0.1l-0.1-0.101l0.1-0.1l0.102-0.101
	l0.099-0.101v-0.203l0.102-0.102v-0.099v-0.101h0.304h0.101h0.099h0.201l0.104-0.304l-0.104-0.102h0.204v-0.3l0.199-0.2l0.506-0.104
	l0.704,0.403l0.101-0.1h0.101v-0.101h0.199l0.104-0.1h0.102v-0.203h0.1v-0.102h0.101l0.1-0.1l0.203,0.1l0.201-0.1l0.2,0.1h0.201
	h0.104h0.201l0.099-0.1v0.1v-0.1h0.101v-0.101h0.101v-0.1v-0.104l0.104,0.104v-0.104h0.201h0.099v-0.101h0.102h0.1v-0.101l0.204-0.3
	l0.1-0.204l-0.1-0.101l0.1-0.2h0.1v0.101l0.102-0.302l0.1,0.102v0.1l0.204-0.1l0.1-0.102l0.101-0.304h0.101v-0.1h0.1v-0.201
	l0.102,0.102v-0.102l0.303-0.304v-0.1h0.201l0.101-0.101h0.099h0.104l0.201,0.2h0.101l0.2-0.1l0.204,0.2l0.3-0.2H83.6v0.1H83.7v-0.1
	l0.104-0.101H83.7l0.203-0.101l0.102-0.203h0.099v0.104h0.101l0.304-0.205l0.302-0.3h0.1v-0.101v-0.1l0.101-0.104v-0.1l0.1,0.1
	h0.104v-0.1v-0.101h0.301l0.102-0.2l0.099,0.1l0.104-0.2l-0.104-0.203l0.104,0.1h0.101v-0.1h0.101h0.2l-0.101-0.102v-0.1l0.2-0.1
	l0.104-0.201l0.101,0.101l0.101-0.203l0.101-0.102l0.1,0.102l0.201-0.201v-0.2l0.203-0.101l0.101-0.204l0.301,0.104V9.325h0.1h0.104
	V9.226l0.2-0.102l-0.101,0.102l0.201,0.099l0.905,0.104h0.104l0.1-0.104l0.201-0.3l0.2-0.404l0.104-0.101v0.101l0.1-0.101V8.319
	l0.605-0.203v-0.1l0.199,0.1v-0.1V7.916h0.201l-0.1-0.101l0.2-0.199l0.104,0.099l0.101-0.099h0.099V7.514h0.102l0.3-0.104v-0.1
	h0.104V7.21h0.2l0.1-0.101h0.2V7.011V7.11l0.204-0.3h0.101h0.101h0.101V6.606l-0.101,0.101h-0.101V6.606V6.505l0.101,0.101V6.505
	v-0.2l0.101-0.1h0.099h0.205l-0.104-0.104h-0.102L92.967,6l-0.102-0.099h0.102l0.104-0.101l-0.205-0.101V5.6l0.305,0.101L93.271,5.6
	L93.17,5.498h0.201h0.1V5.396h0.101l0.1-0.099h0.205h0.099V5.196l0.101,0.102l0.101-0.102v-0.1h0.101l0.204-0.101V4.792l0.099,0.104
	l0.101-0.202v0.099h0.101h0.101v-0.2h0.103V4.39h0.102v-0.1l0.2,0.201V4.291l0.1,0.1l0.101-0.1l-0.101-0.1l0.101-0.204h0.101
	l0.104,0.101l0.099-0.101h-0.099l0.099-0.1l0.102,0.1l0.1-0.3h0.102l0.099-0.101h0.101h0.104l0.2-0.204l0.102-0.101v0.101V3.282
	h0.099h0.102V3.181h0.103V3.083l0.201,0.099v-0.2h0.199h0.205l0.1-0.103v0.103l0.101-0.103l0.101,0.103h0.1l0.101-0.103l0.1-0.101
	h0.104V2.677l0.101,0.101l0.1-0.101l0.201-0.101l0.201-0.2l0.303-0.1l0.101-0.104h0.101h0.1v0.104l0.104-0.104V2.073l0.099,0.101
	l0.102-0.101h0.1l0.101-0.101h0.1l-0.1-0.1h0.204V1.772l0.3-0.1l0.301,0.2l0.104-0.101h0.101h0.1h0.102h0.3l0.104,0.2v-0.1h-0.104
	l0.104-0.101l0.101,0.101V1.772v-0.1h0.301V1.571V1.467l0.1,0.104v0.201h0.104v0.101h0.3l0.201,0.2h0.104v-0.2l0.401,0.1v0.201
	h-0.101l0.101,0.104l0.2-0.104l0.104-0.301h0.099v0.2l0.101,0.101h0.101l0.101-0.101v0.101h0.1V2.073h0.1v0.101v0.104h0.104h0.102
	l0.1-0.104v0.104h0.1l0.101,0.1v-0.1l0.101,0.1l0.103-0.203h0.201V2.073h0.101h0.301h-0.101l0.204,0.101v0.104l0.1-0.104h0.101
	l0.1,0.203h0.101v0.2v-0.2h0.101l0.104,0.2l0.099-0.099l0.102,0.099V2.478h0.1l0.102,0.099V2.478l0.1,0.099V2.478h0.1l0.104,0.099
	V2.478v0.199h0.2l0.102,0.101V2.677l0.1,0.101l0.203-0.101v0.101h-0.103l0.103,0.101l0.101-0.101v0.101l0.101-0.201l0.199,0.101
	h0.102l-0.102,0.101h0.102v0.103l0.1-0.103l0.104,0.204h0.201l0.099,0.099l-0.3,0.405v0.101l-0.203,0.2l-0.2,0.704l-0.101,0.304
	l-0.101,0.101l-0.403,0.906l-0.102,0.604v0.101l-0.1,0.304v0.102V7.11l0.1-0.099v0.3h0.102v0.203l-0.201,0.102l0.201,0.099h-0.201
	h0.1l-0.1,0.101h0.1l-0.1,0.101l0.1,0.101V7.916h0.102v0.2h0.1l0.101,0.104h0.203l0.604,0.2h0.3l0.102,0.1h0.1h0.104l0.102,0.101
	h0.399l0.102,0.1l0.104,0.104v0.1l-0.104,0.102v0.1h0.203l0.101-0.1h0.201v0.1h0.1h0.104l0.099,0.102l0.102,0.099l0.503,0.104
	l0.201,0.101h0.102l0.2-0.101h0.203l0.1,0.201l0.505,0.3l0.1,0.102h-0.1v0.203l0.1,0.2h0.102l0.099-0.2l0.102,0.101v-0.201h0.203
	l0.102-0.103h0.1h0.099h0.102V9.929l-0.2-0.2l0.099-0.1h0.201l0.102-0.101l-0.102-0.204l0.102-0.099h0.203V9.125l0.101-0.1h0.1
	l0.1-0.102l0.102,0.102l0.304-0.201l0.399-0.203h0.104h0.201l0.2-0.2l0.1-0.102h0.102l0.203-0.099l0.102,0.099h0.2l0.1-0.099V8.116
	l0.706-0.1h0.102h0.302l0.1-0.101h0.102l0.202,0.101V7.916l0.402,0.2h0.302l0.201,0.203h0.102V8.22l0.099,0.099l0.205,0.102l0.1,0.2
	l0.1-0.101h0.101l0.1-0.201l0.102,0.201h0.104l0.201-0.1h0.099v0.1l0.305,0.2l0.1-0.1l0.302,0.1l0.1-0.1l0.305,0.203h0.2l0.1,0.1
	l0.102,0.303v0.099h0.102l0.101,0.104V9.325l0.1,0.305h0.102V9.529l0.1,0.101l0.102,0.1h0.099l0.104-0.1l0.1,0.1h-0.1V9.83
	l0.201,0.1l0.1,0.204h0.2v0.101l0.102,0.101l0.403,0.301l0.201,0.203l0.503,0.101l0.102,0.2l0.203,0.2l0.2,0.104v0.1l0.201-0.1
	h-0.102h0.201v0.1h0.104l-0.104,0.101l0.205,0.101l0.099,0.101l0.102-0.101l0.198,0.199v-0.099l0.102,0.2h0.104h-0.104l0.305,0.203
	l0.198,0.201l0.102-0.201l0.203-0.203l0.201,0.104l0.101,0.1l0.1,0.101l0.203,0.301h0.102l0.3,0.104v0.201h0.203h0.102l0.3,0.199
	l0.305,0.405h0.5v0.2l-0.099,0.404l0.403,0.099l0.3,0.201l0.305-0.1l0.1,0.1l0.2,0.305l0.305-0.305h0.102l0.1,0.201l0.099,0.104
	l0.406,0.1l0.099,0.2l0.102-0.1l0.199,0.201l0.205-0.201l0.3-0.2l0.203,0.1l0.2-0.1l0.102,0.1l0.201-0.1v-0.204h0.1l0.104,0.204h0.2
	v0.2l0.1,0.1l0.102,0.102l0.2,0.1l0.203,0.203l0.1,0.302h0.102v0.303h0.099h0.102l0.203-0.103l0.604-0.2l0.501-0.102l0.104,0.102
	h0.2l0.402,0.2l0.304-0.102v-0.2h0.201l0.099-0.1h0.203l0.102-0.101l0.201-0.1l0.099-0.305h0.203l0.201-0.1l0.403-0.101l0.102-0.1
	h0.1l3.624,3.324l1.412,1.308l1.106,1.107l0.406,0.304v0.101l0.3,2.114l0.1,1.613h0.104h0.3l0.201-0.104h0.102l0.203,0.203l0.3-0.1
	l0.205-0.104h0.3l0.3,0.203h0.104l0.303,0.102l0.2,0.099l0.203,0.102l0.1-0.102l0.102-0.3h0.1l0.403-0.104l0.302-0.3l0.303,0.099
	l0.302-0.2h0.404l0.3-0.304h0.102v-0.301l0.104-0.1l0.1-0.102v-0.203l0.2,0.203h0.201h0.099h0.104h0.201l0.102,0.502h0.198h0.102
	l0.403-0.101l0.102-0.1l0.1,0.1l0.104-0.2h0.1v-0.305v-0.1h0.2v0.1l0.404,0.205l0.102,0.2l-0.102,0.2l0.102,0.204l0.2,0.1l0.303-0.1
	l0.102-0.102h0.099l-0.099-0.203l0.099-0.2h0.201l0.2-0.1h0.104v0.1h0.1l0.201,0.301v0.103l0.304,0.102l0.201,0.4h0.1l0.101-0.199
	h0.1l0.205,0.3h0.1l0.102,0.104v0.1l-0.102,0.102l0.2,0.099v0.102l0.404,0.1l-0.1,0.204l0.1,0.199h0.2l0.201-0.1h0.305v-0.2
	l0.099-0.203l0.201-0.102l0.1,0.102l0.104,0.1l0.101-0.1l0.201-0.302l0.1,0.102h0.102l0.302,0.3l0.102,0.403l0.1,0.102v-0.102
	l0.2,0.201v-0.1l0.104,0.1h0.201l0.1,0.1l0.102-0.1l0.2-0.1l0.104,0.1h0.1l0.099,0.1l0.102-0.1h0.1h0.102h0.302l0.201-0.1l0.102,0.1
	l0.104-0.1h0.1h0.102l0.198-0.102h0.102l0.1,0.201v0.1h0.104v0.204h0.102v0.101h0.099v0.2h0.102v0.102l0.1-0.102l0.304,0.204h0.1
	v0.4l-0.203,0.101l0.104,0.1l0.1-0.1v0.1h0.102v-0.1h0.1h0.102l0.099-0.101v0.2h0.104l0.201-0.1l0.1,0.1h0.101h0.1v-0.1l0.203-0.101
	v0.101l-0.102,0.203l0.102,0.102h0.102l0.1-0.205h0.101l-0.101,0.305v-0.1v0.198h-0.1v0.102l0.1-0.102l0.101,0.102v0.1l0.1,0.104
	h-0.1v0.102h0.201l0.102,0.1h-0.102l0.102,0.102h0.102h0.099l-0.099,0.099h0.099v0.1h0.102v-0.1h0.1l0.102,0.201h0.1v0.104h0.104
	v-0.104h0.2v0.203h0.3v-0.203h0.104h0.401l0.099,0.104h0.102h-0.102l-0.2,0.3v0.102h0.2l0.305,0.303v0.2l0.201,0.102l0.099,0.198
	v0.205h0.205v0.201l0.1,0.1v0.202l-0.305,0.201v0.102h-0.099l-0.1-0.102h-0.102l0.102,0.201h0.1l0.099,0.2l-0.099,0.403
	l-0.201,0.102v0.1l-0.203,0.102v0.104l-0.302,0.399l0.102,0.205l0.099,0.1l0.102,0.3h-0.302l-0.1,0.102l-0.2,0.104l-0.104,0.399
	h-0.099l-0.102-0.1h-0.1v-0.1h-0.102l-0.099,0.1v0.201l-0.203,0.099v0.104l-0.102,0.102l-0.1,0.1l-0.2,0.505l-0.102,0.201v0.1
	l-0.102,0.304h-0.201v0.201l-0.101,0.2l-0.201,0.1l-0.102-0.201h-0.102l0.102-0.2l-0.102-0.203l-0.1,0.203l-0.101,0.302l-0.1,0.203
	h-0.102l-0.203,0.401l-0.3,0.305l-0.102,0.1h-0.1v0.2h-0.104l0.104,0.1h0.1v0.305h0.102v0.2v0.1h-0.201l-0.304-0.1l-0.1-0.1v0.1
	h-0.2l-0.305-0.2h-0.102l-0.1,0.101v0.1l-0.099-0.1l-0.102,0.1h-0.203l-0.201,0.403v0.102l-0.102,0.199l-0.099,0.505l-0.203,0.401
	v0.203l0.104,0.102l0.1,0.099l-0.1,0.201v0.305l-0.205,0.099l-0.201,0.506l-0.198,0.099l0.198,0.102l0.201,0.1h0.403l0.102,0.102
	l0.201-0.102l0.203,0.102v0.202l0.102,0.1v0.201l0.099,0.102l-0.099,0.099v0.104h-0.201v0.1l-0.104,0.102v0.3l-0.102,0.205h-0.201
	l-0.099-0.205l-0.203,0.205h-0.102l-0.1,0.1l-0.2-0.203h-0.1v-0.102l-0.304-0.2l-0.102,0.102l-0.301,0.099h-0.104l-0.099,0.102
	h-0.102l-0.201-0.102h-0.1h-0.202l-0.102-0.099v-0.102h-0.301l-0.204,0.102v0.304l-0.199,0.399l-0.2,0.505l-0.305,0.301h-0.102
	l-0.1,0.405v0.1v0.1l-0.3,0.604v0.205v0.1h0.201v0.102l-0.102,0.604l-0.203,0.3l0.104,0.505l0.3,0.1V46.9l-0.2,0.198l0.102,0.303
	l-0.102,0.1h-0.1v0.205l0.1,0.099v0.201l0.3,0.203l-0.399,0.102l-0.205,0.3h-0.1v0.2h-0.2v0.203l0.2,0.102l-0.2,0.198l0.102,0.102
	v0.203v0.102v0.1l-0.406,0.2l0.305,0.203l0.102,0.102l0.3-0.102l0.203,0.102l0.2,0.2l0.506,0.1v0.102v0.1l0.2,0.304h0.1v0.201h0.203
	v0.302l-0.104,0.201l0.104,0.102l0.101,0.099l0.201,0.506l0.303,0.2l0.2-0.2h0.303l-0.102,0.099l0.102,0.205h-0.102v0.1v0.201
	l0.2,0.099l0.104,0.201l0.201-0.201h0.1l0.2,0.305l0.102,0.201l0.104-0.305v-0.201l0.1,0.102l0.099,0.203l0.201,0.102l-0.1,0.198
	l0.1,0.102l0.205,0.1l0.1,0.104v0.302l0.099,0.1h0.102l0.1,0.305l0.102,0.099l0.305-0.099l0.099,0.2h0.1h0.201l0.205,0.301
	l-0.102,0.202l0.102,0.201l-0.102,0.201l0.2,0.202l0.102,0.201l-0.102,0.2l0.102-0.099l0.198,0.099l0.102,0.203v0.102l-0.5,0.704
	l-0.806,0.401v0.102l0.1,0.104l0.3,0.198l0.201,0.102v0.403l-0.399-0.202l-0.201-0.102h-0.104l-0.303-0.201v-0.1l-0.198,0.1
	l-0.104-0.198h-0.102l-0.201-0.205h-0.198l-0.104,0.102l-0.2-0.102l-0.102,0.102h-0.201v-0.102h-0.403h-0.201l-0.403-0.1l-0.1,0.201
	l-0.302-0.303h-0.303l-0.2-0.3h-0.102l-0.305,0.201l-0.3,0.2h-0.305v0.305h-0.198h-0.201v0.099v0.1l-0.102,0.201l0.102,0.102
	l-0.205,0.104v0.2l-0.3,0.1l-0.1,0.201l-0.102,0.104l-0.202-0.104l-0.102,0.104l-0.1-0.104l-0.305,0.202l-0.099-0.099v-0.205h-0.201
	h-0.2l-0.102,0.102l-0.203-0.102h-0.1h-0.102l0.102-0.301h-0.102v-0.099h-0.099l-0.201,0.099l0.1-0.202l-0.1-0.201h-0.104
	l-0.1-0.102l-0.102,0.102l-0.099,0.1l-0.102-0.1h-0.1l-0.305,0.403l-0.099,0.102l-0.102-0.102h-0.1l-0.104-0.202l-0.102,0.202
	h-0.099l-0.1,0.102l1.912,1.813l0.102,0.704l-0.401,0.102l-0.104-0.102l-0.3-0.1h-0.102h-0.203h-0.1l-0.102-0.104h-0.099v-0.201
	L151.593,61h-0.205v-0.201l-0.099,0.1l-0.1-0.1v0.1h-0.102l-0.1,0.102l-0.205,0.2h-0.099l-0.102-0.102h-0.1V61.3v0.104v0.1h-0.1
	l-0.101-0.1L150.08,61.3l-0.102,0.104l-0.1,0.3h-0.3v-0.2h-0.205l-0.1,0.302h-0.102l0.102-0.2l-0.302,0.099v0.102v0.1h-0.203
	l-0.401,0.203v0.2l-0.1,0.102v0.1l0.1,0.102v0.104h-0.1v0.099v0.1l0.1,0.102l-0.503,0.403l-0.303,0.301l-0.102,0.101v0.404
	l0.102,0.099v0.305v0.201v0.102h-0.202v0.198v0.205h0.304l-0.203,0.1l-0.2,0.102l-0.201,0.3l0.1,0.099l1.311,0.104h0.403
	l0.501,0.101h0.102v0.1v0.102l-0.102,0.909v0.3h-0.1l-0.102,0.804l0.102,0.1v0.102l-0.102,0.104l-0.099,0.1h-0.102v0.1l0.2,0.102
	l-0.099,0.1l0.2-0.1v0.1h0.1l-0.1,0.102h0.201l0.203,0.203h0.2l0.1,0.102l0.505,0.098l0.1,0.1l0.102,0.607v0.1v0.604l0.202,0.201
	l-0.104,0.104l0.205,0.1v0.102v0.1l-0.102,0.1l-0.104,0.1l-0.099,0.104l-0.102-0.104l-0.1,0.104l-0.2,0.1h-0.909h-0.3h-0.506h-0.2
	h-0.203l-0.2-0.303v-0.1l-0.1-0.1l-0.102-0.201l-0.201,0.1h-0.202h-0.1h-0.907l-0.202,0.301l0.104,0.203l-0.104,0.201h0.104
	l-0.104,0.1l0.104,0.102h0.099l0.201,0.303l0.102-0.102v-0.102V72.18l0.198,0.201h0.104l0.303-0.1l0.1,0.1l0.101,0.203v0.102h0.102
	h0.102l0.201,0.098l0.1,0.201l0.101,0.102v0.203h0.1l0.104,0.1l0.3,0.102v0.1h0.201v0.102l0.104,0.203h0.1v0.1l0.102,0.1h0.099
	h0.102h0.1l0.102-0.1v0.1v0.1h-0.102l-0.401,0.305h-0.203v0.201l-0.1,0.102l0.203,0.197l-0.104,0.205l0.104,0.1h0.1v0.201h0.302
	l0.1,0.201l0.102-0.102h0.104v0.205l0.1-0.104v0.203v0.102h0.099h0.201l0.102,0.098l0.104,0.102v0.1h0.1l0.101,0.1v0.205h0.199
	l-0.1,0.201l0.1,0.1l0.102,0.102v0.203h0.099v0.098h0.104l-0.104,0.102l0.104,0.1v0.201l-0.104,0.104h-0.099v0.201l0.099,0.1
	l-0.099,0.102h0.099l0.205,0.098v0.305h-0.205l-0.2,0.1l0.102,0.102h0.202l-0.104,0.1v0.102h0.104h0.102h0.1l0.102,0.104
	l-0.102,0.199h-0.1l-0.102,0.1h-0.104l-0.099,0.301v0.205l0.202,0.1l-0.104,0.1v0.102l-0.399,0.305v0.098v0.201l-0.101,0.1v0.102
	l0.101,0.104v0.201l0.199,0.1l-0.1,0.102v0.098l-0.3,0.404v0.102h-0.505l-0.305-0.102l-0.3-0.1v0.201l0.099,0.201l-0.099,0.303
	l0.099,0.199l0.102,0.203v0.102l-0.302,0.1v0.102h-0.303v0.201h-0.102h-0.099l-0.102,0.1h-0.1l-0.104,0.504l-0.1,0.1h-0.101h-0.1
	l-0.102,0.205l-0.201,0.1h-0.202l-0.1,0.1l-0.102,0.301l0.102,0.105l-0.102,0.098v0.201v0.1l-0.1,0.205l0.1,0.1l-0.201,0.102v0.201
	l0.201,0.098l0.102,0.203h-0.102v0.102l0.201,0.1l-0.1,0.201l-0.102,0.305h-0.1l0.1,0.199v0.1h-0.1v0.605l-0.102,0.102l-0.202,0.203
	l-0.1-0.104l-0.303,0.104v0.199l-0.202,0.301h-0.102l-0.1-0.1l-0.2,0.1h-0.404l-0.102,0.102l-0.099,0.404l-0.1,0.098l0.1,0.201
	v0.104l0.099,0.201l-0.198,0.201v0.305l-0.102,0.1l-0.104,0.098v0.102l-0.1,0.305l-0.102,0.1v0.201l-0.099,0.201l0.099,0.104
	l-0.198,0.199h0.1l-0.1,0.1l-0.102,0.201l-0.104,0.1v0.104l-0.1,0.303l-0.302,0.199l-0.1-0.102l-0.099,0.102v0.102h-0.607h-3.121
	h-1.411v0.102l-0.1,0.1v0.102v0.404l-0.104,0.1l-0.1,0.301l0.1,0.1l-0.1,0.104h-0.302v0.1l-0.1,0.102l-0.203,0.1l-0.102,0.102
	l-0.099,0.1h-0.102h-0.1l0.1,0.205l-0.201,0.098v0.1l-0.104,0.303h0.205v0.104l0.201,0.502l0.503,0.098v0.205v0.201v0.504
	l-0.1,0.199v0.305l-0.102,0.1l0.102,0.303v0.1v0.104h-0.203l-0.102,0.1v0.102l-0.2,0.299v0.203l-0.1,0.102l-0.102,0.1v0.102
	l0.102,0.1h0.3h0.203l-0.102,0.205l0.102,0.098V99.48l0.102,0.098l-0.102,0.1l-0.102,0.102h-0.102l0.102,0.1l-0.2,0.102
	l-0.102,0.203l-0.1,0.102v0.1l-0.102,0.1l-0.104,0.1l0.104,0.1l-0.104,0.104h-0.1l0.1,0.102l0.104,0.301h-0.104v-0.1h-0.198v0.199
	v0.102v0.104l-0.102,0.1l0.102,0.102l-0.102,0.098h-0.201l-0.099,0.1h-0.104h-0.099h-0.201l0.1,0.102l-0.201,0.404l0.201,0.201
	l-0.1,0.098l-0.102,0.105l-0.202,0.1l-0.102,0.1l0.102,0.102l-0.201,0.1v0.201l-0.1,0.104l0.1,0.1l-0.1,0.201v-0.1l-0.102,0.1v0.199
	l-0.304-0.098l-0.1,0.098l-0.3-0.098h-0.205l-0.1,0.098l-0.302,0.104h-0.303l-0.102-0.104l-0.2,0.203l-0.1,0.102v0.1h-0.102
	l-0.102-0.1l-0.2,0.1l-0.201,0.201v0.102l0.201,0.104v0.1l0.2,0.199h0.102l0.102,0.1h0.1h0.102l0.2,0.205l0.104,0.1v0.1h-0.205
	l-0.099-0.1v0.1v0.102v0.1l-0.303,0.305v0.102h-0.203v0.197l-0.099,0.102v0.1h-0.401v0.205v0.201h-0.104l-0.1,0.197l-0.102,0.102
	l-0.1,0.104v0.1l-0.102,0.102v0.1h-0.099l0.2,0.404l-0.102,0.102v0.199l0.102,0.1v-0.1l0.1,0.1l-0.1,0.203l0.1,0.102l-0.1,0.1
	l-0.102,0.102l-0.2,0.1l-0.102,0.102l-0.102,0.102v0.4l-0.1,0.201v0.104h0.1l0.102,0.1l-0.201,0.102l0.1,0.1l-0.1,0.102l0.1,0.203
	l-0.201,0.1v0.1l-0.2,0.1h0.102l0.2,0.102l-0.102,0.1l-0.099,0.102h-0.205l-0.1-0.102l-0.1,0.102v0.305l-0.102,0.1v0.098v0.102
	l-0.099,0.203l0.3,0.102v0.1l0.203,0.301l-0.104,0.104l-0.199,0.102l-0.102,0.299h-0.2l-0.104,0.1v0.102l-0.1,0.104v0.1l-0.3,0.102
	v0.1l0.1,0.102l-0.301,0.203l-0.104,0.098l-0.302,0.402l0.102,0.104h0.099l-0.2,0.201l0.102,0.1h0.099h0.205v0.199l0.1,0.102h0.102
	l0.1-0.102h0.099h0.102h0.1l0.205,0.102l0.099,0.104h-0.099l0.099,0.199l0.102-0.1l0.1,0.1v0.201v0.102v0.1v0.104l-0.604,0.199v0.1
	l-0.401,0.102h-0.305l-0.3,0.1h-0.1l-0.101,0.205l-1.009,0.301l-0.102,0.1l-1.008,0.404l-0.704,0.301v0.203l-0.2,0.102h-0.102h-0.1
	l-0.205,0.1l-0.399,0.102l-0.304,0.098l-0.1,0.1l-0.606,0.205l-0.604,0.301l-0.1,0.102l-0.403,0.203l-0.805,0.201l-0.506,0.199
	v0.104l-0.401,0.4l-0.604,0.201l-0.2,0.104h-0.104l-0.399,0.299h-0.102l-0.305,0.102l-0.198,0.1v0.102l0.099,0.104l-0.099,0.1
	l-0.201,0.301l-0.405,0.1v-0.1h-0.199h-0.205l-0.3,0.1v0.203l-0.201,0.102l-0.104-0.199l-0.099-0.305v-0.102l0.302-0.199v-0.205
	v-0.201h-0.203h-0.099l-0.201-0.1v-0.102h-0.102l-0.403,0.303l-0.1-0.102v-0.1l-0.102,0.1h-0.099l-0.102-0.1h-0.102l-0.102-0.102
	v-0.098l-0.1-0.104l-0.102,0.104l-0.099-0.104l-0.102,0.104h-0.203l-0.3,0.098l-0.201-0.098l-0.104-0.104l-0.102,0.104h-0.198
	l-0.102-0.104h-0.1l-0.205,0.104v0.098l-0.3,0.201l-0.403,0.303h-0.201l-0.1,0.104l-0.405,0.199h-0.201h-0.198h-0.205v-0.1l-0.1-0.1
	h-0.102l-0.099,0.199l-0.506,0.102l-0.099,0.1l-0.102-0.1l-0.201-0.102v-0.303l-0.102,0.104h-0.101l-0.1,0.199h-0.102v0.102v0.1
	h-0.1v-0.201l-0.102,0.102l-0.202-0.201h-0.1h-0.102v0.1h-0.201v0.201l-0.099,0.1v-0.1l-0.104-0.201h-0.201l-0.1,0.102h-0.101
	h-0.203l-0.201,0.305l-0.099-0.105h-0.102v-0.1l-0.201-0.1h0.102l-0.102-0.102v-0.1h-0.104h-0.1l-0.401,0.301h-0.104h-0.1l-0.2,0.1
	l-0.201,0.105l-0.203-0.105l-0.101,0.105h-0.1v0.098l-0.102-0.098v0.199h-0.2l-0.104,0.1l-0.601,0.201l-0.204,0.104h-0.101l-0.3,0.1
	v0.102h-0.104l-0.101,0.1h-0.101l-0.1,0.102l-0.2-0.201h-0.305v0.1l-0.401,0.102h-0.104v0.197h-0.1l-0.1,0.104v-0.104l-0.201-0.1
	v0.1v0.104l-0.199,0.102l-0.104-0.102v0.102v0.1v0.201h-0.101h-0.1l-0.101,0.102l-0.101-0.102l-0.1,0.201l-0.101,0.104h-0.104h-0.1
	h-0.102l-0.1,0.199l-0.2,0.1h-0.104v-0.1l-0.201,0.1v0.102l-0.199,0.1l-0.101,0.104l-0.104-0.104l-0.1,0.104l-0.102-0.404v0.1
	l-0.099-0.1h-0.102h-0.1l-0.101,0.1v-0.1l-0.104,0.201h-0.199l-0.102,0.1l-0.1-0.1h-0.2h-0.204l-0.101-0.102l-0.201,0.201
	l-0.099,0.104h-0.104h-0.1v-0.203h-0.302h-0.099l-0.205-0.102l-0.1,0.102h-0.101h-0.101l-0.1,0.203v0.1v0.102l-0.101-0.102
	l-0.403,0.402l-0.301,0.1v0.102l-0.205,0.102v0.1h-0.199v-0.1l-0.304,0.1l-0.102-0.1l-0.2,0.1l-0.1-0.1h-0.101l-0.303,0.1
	l-0.102,0.102v0.201l-0.3,0.104v0.1l-0.204,0.201v0.098l-0.101-0.098h-0.201l-0.2-0.102l-0.203,0.102l-0.3-0.201h-0.102
	l-0.203,0.201h-0.201l-0.2,0.098h-0.104l-0.1,0.102h-0.101l-0.1,0.1l-0.101,0.205v0.1l-0.2,0.1l-0.205,0.102h-0.099h-0.201
	l-0.101-0.102h-0.1l-0.104,0.102l-0.2,0.1l-0.1,0.305h-0.2h-0.404l-0.301,0.199l-0.104,0.1l-0.4-0.1h-0.101h-0.204h-0.2v-0.1
	l-0.201,0.1l-0.304,0.1l-0.301,0.205l-0.203-0.104l-0.101,0.104l-0.2,0.1h-0.101l-0.1,0.102l-0.205,0.1h-0.099l-0.201,0.201
	l-0.101,0.104v0.098l0.101,0.102l-0.2,0.201l-0.404,0.1h-0.1l-0.201,0.1h-0.103l-0.502,0.305l0.101,0.102l-0.101,0.199v0.102h-0.101
	l-0.104,0.102l-0.3-0.102l-0.505,0.102l-0.1,0.1h-0.201l-0.104,0.201h-0.2l-0.3,0.201h-0.102h-0.203l0.101-0.301l-0.101-0.102
	l-0.101-0.1h-0.199l-0.102-0.102l-0.1-0.102H83.7l-0.301-0.199h-0.101l0.101,0.098l-0.2,0.506l-0.204-0.102l-0.4,0.303h-0.102
	l-0.104,0.1h-0.099l-0.402,0.104l-0.104-0.104v-0.1l0.104-0.102l0.302-0.201l-0.101-0.201h-0.201v-0.203l-0.202,0.203h0.099
	l-0.099,0.102h-0.201l-0.201,0.301l-0.505,0.102l-0.199,0.1h-0.104l-0.2-0.201l0.1-0.1v-0.102l0.204-0.201h-0.104l0.104-0.203h0.1
	l-0.1-0.199v-0.1l-0.204-0.102l-0.3,0.201l-0.305-0.1l-0.101,0.1v0.102l-0.101,0.098l-0.099,0.102l0.099,0.102v0.102h0.201
	l0.104,0.301l0.201,0.102v0.1h0.099l-0.3,0.104l-0.104,0.1l-0.201-0.1h-0.2v0.1l-0.1,0.102h-0.104v0.098l-0.3,0.102l-0.102,0.1
	l-0.404,0.104l-0.1,0.402l0.2,0.201h0.103l0.303-0.102l0.3-0.1h0.104h0.3h0.101H79.57l0.201,0.305v0.197h0.104v0.201l-0.104,0.102
	h-0.101l-0.101,0.203v0.102l0.101,0.1l0.101,0.1h0.104v0.102h-0.204l-0.101-0.102h-0.099l-0.102-0.199l-0.1-0.102l-0.104,0.201
	h-0.201l0.101,0.504v0.1l-0.101,0.102l-0.2,0.1h-0.1l-0.102-0.1v-0.201l-0.203-0.102v0.102l-0.2-0.102v0.102H77.96h-0.104
	l-0.099,0.201h-0.101v0.199v0.102h-0.101l-0.201,0.104h-0.099v-0.205v-0.1h-0.104v-0.201v-0.1h-0.201v-0.102l0.1-0.201h-0.1
	l-0.2,0.098v0.104l-0.201,0.201h-0.203l-0.102,0.102l-0.099,0.1l-0.201,0.1l-0.203,0.102v0.104l-0.2,0.1l-0.101,0.102l-0.304-0.102
	l-0.302,0.199l-0.403-0.098l-0.301,0.098l-0.2,0.201h-0.204l-0.2,0.203l-0.2-0.1l0.1-0.104l0.101-0.299v-0.102l-0.101-0.305v-0.1
	l-0.1,0.1l-0.505,0.102l-0.1-0.102l-0.104,0.102l-0.502,0.203l-0.101,0.199l-0.104-0.098h-0.199v-0.201h-0.101h-0.201l-0.203,0.299
	l-0.301-0.098l-0.304,0.098l-0.101,0.102l-0.301-0.102l-0.101-0.199l-0.104-0.1v-0.104h-0.1v-0.102h0.203L70,133.221l0.104-0.1
	L70,133.02v-0.201l0.204-0.402l0.201-0.104v-0.1h0.1v-0.102l0.101-0.1v-0.102h-0.302l-0.1,0.102L70,131.713h-0.1v-0.104l-0.1,0.104
	H69.6l-0.304-0.205v0.102l-0.201-0.102v-0.1h-0.2l-0.1-0.301h-0.204l-0.101-0.102l0.101-0.104l-0.101-0.1v-0.102l0.101-0.098
	l0.204,0.098v-0.098l0.3-0.102l0.101-0.1l0.204,0.1l0.099-0.1l0.102,0.1l-0.102,0.102H69.6l0.201-0.102v-0.203l-0.102-0.1
	l-0.1-0.102h-0.2l-0.104-0.1v-0.102l0.304-0.1l-0.304-0.305l0.202-0.199h-0.303v-0.201l0.303-0.303v-0.201l-0.099,0.1h-0.104
	l-0.201-0.1v-0.102h-0.2v-0.201h-0.201H68.39l-0.1-0.102l-0.201,0.102v-0.201l-0.503-0.201l0.1-0.1v-0.205l-0.201-0.1h-0.104v-0.1
	l0.104-0.1l-0.104-0.1h-0.199l-0.101,0.1v-0.1l-0.101-0.102h-0.199h-0.104l-0.201-0.104v0.104l-0.301-0.104l-0.101-0.1h-0.104
	v-0.102l-0.301-0.1v-0.1l0.1-0.305l-0.1-0.102l0.1-0.199h-0.199l-0.101-0.199h-0.104v-0.104h-0.1v-0.102v-0.1l-0.102-0.102v-0.1
	h-0.1v-0.102h-0.101l-0.1-0.102h0.1l0.2-0.199l-0.1-0.201l0.1-0.102l-0.1-0.1v-0.104l0.1-0.1l0.102-0.201l0.1,0.1l-0.1-0.199
	l0.304-0.203l-0.101-0.1l0.2-0.504l-0.1-0.104h0.1h0.1h0.201l0.104-0.299l0.401-0.1l0.201-0.201v-0.104h-0.201l-0.101-0.301
	l-0.2-0.102l-0.204-0.203l-0.301,0.105l-0.2-0.105h-0.104h-0.1h-0.102h-0.1h-0.101l-0.1-0.1v-0.1v-0.102h0.1l0.101,0.102
	l0.201-0.102h0.203l0.3-0.1v-0.1l-0.199-0.104l-0.204-0.201l0.104-0.201h0.101v-0.102l0.199,0.102l0.102-0.102v-0.098h0.1
	l0.104-0.104l0.301,0.201h0.101v-0.098v-0.104v-0.1l-0.101-0.102l-0.101-0.201h-0.1l-0.101-0.1l-0.203-0.305v-0.199l-0.201-0.1
	l0.1-0.203l-0.199-0.201l0.1-0.102h0.1l0.102-0.1l0.1-0.205l-0.1-0.1v-0.098l-0.201-0.303h-0.1h-0.101l-0.104-0.203l0.104-0.201
	l0.2-0.1v-0.102l0.301-0.303l-0.1-0.201h0.1l0.104-0.1h0.2v-0.1v-0.305v-0.102v-0.1l0.101-0.199l-0.101-0.203v-0.102l0.101-0.1
	v-0.201l0.604,0.1l0.201-0.1v-0.305l0.199-0.098h0.104l-0.104-0.201l0.104-0.102h0.201v-0.203l0.2-0.1v-0.102l-0.101-0.1
	l0.101-0.102v-0.098l0.101-0.203v-0.102l0.103-0.1h0.102v-0.102l-0.204-0.203l-0.101-0.102l-0.101-0.199l0.101-0.102v-0.199
	l0.203-0.203l-0.103-0.1v-0.201l-0.101-0.102v-0.1v-0.104h-0.101h-0.1l-0.201-0.102h-0.203l-0.2-0.098v-0.1l-0.403,0.197v0.102
	l-0.201-0.102l-0.101-0.098l0.101-0.1h-0.101v-0.102l-0.101-0.1h-0.1l-0.101-0.205l-0.104-0.1v-0.102v-0.1v-0.1v-0.205h-0.201h-0.1
	l-0.1,0.205h-0.101l-0.104,0.1l-0.1,0.1l-0.201,0.303l-0.101-0.201l-0.1-0.102v0.102h-0.204l-0.301-0.201l-0.1-0.1l0.1-0.205h-0.1
	h-0.204l-0.101,0.105l-0.099,0.1l-0.401-0.1h-0.204l-0.101,0.1v0.1l-0.1,0.1h-0.2v0.102h-0.104v0.1l-0.301,0.102l-0.101,0.104
	h-0.099l-0.102,0.1h-0.203v0.102l-0.101-0.102l-0.101,0.102l-0.2-0.102l-0.104,0.102l-0.1-0.102h-0.102h-0.099l-0.201,0.102v-0.102
	l-0.101,0.102l-0.103-0.102h-0.102l-0.099-0.1h0.099v-0.104l-0.099-0.201h0.099l0.102-0.201l-0.102-0.199l0.102-0.105l0.103-0.098
	l-0.103-0.102l-0.2-0.1l-0.101-0.201v-0.104l-0.101-0.201h-0.101l0.101-0.1l-0.201-0.199v-0.102v-0.203l-0.104-0.201v-0.1H59.93
	l-0.102-0.203l-0.2,0.102v-0.203l0.101-0.1v-0.1l0.1-0.1h-0.1h-0.305h-0.099v0.1l-0.102-0.201l-0.201-0.303v-0.102l-0.099-0.1
	l0.099-0.305l-0.303-0.299l0.204-0.102v-0.1v-0.102h0.2v-0.104l-0.304-0.1l-0.101-0.102h-0.101l0.101-0.299l-0.101-0.203l-0.1-0.303
	l-0.102-0.303l0.102-0.102v-0.201l0.1-0.301l-0.1-0.102l-0.2-0.1l-0.102-0.201h-0.203l-0.101-0.201v-0.201h-0.301l-0.203-0.201
	l-0.2-0.404l0.2-0.502l0.203-0.404l-0.203-0.404l0.203-0.102l0.102-0.299h0.099l0.101-0.1l0.101-0.404h0.101l-0.101-0.201
	l0.203-0.205v-0.1l0.102-0.1l0.2,0.1h0.503v-0.1l0.102-0.1l0.1-0.201V99.98l0.102-0.201v-0.102v-0.1l-0.201-0.098v-0.205v-0.1
	l-0.2-0.102v-0.1v-0.102v-0.102H58.82l-0.201-0.4l0.101-0.102l-0.101-0.203v-0.201h-0.1l-0.102-0.201l-0.403-0.1l-0.201-0.104h-0.2
	l-0.304-0.299l-0.301-0.102l-0.1-0.201h-0.204l-0.301-0.203v-0.1l0.101-0.102v-0.1h-0.101v-0.102l0.101-0.104h-0.101l0.101-0.098
	h-0.101l0.101-0.102l-0.101-0.1l0.101-0.201h-0.101v-0.1v-0.104v-0.102l-0.1-0.301l0.2-0.098l-0.101-0.104h0.101v-0.102v-0.201
	h0.101V94.24l0.1-0.203h0.101l0.203-0.301h0.101l0.2-0.504v-0.102l-0.2-0.303l-0.101-0.199h-0.1v-0.303l-0.104-0.203h-0.101
	l-0.301-0.1l-0.201-0.4L55.8,91.52l-0.2-0.201h-0.203l-0.201-0.301h-0.403H54.69l-0.1-0.305l-0.404-0.199v-0.201v-0.104l0.204-0.1
	v-0.102v-0.1l-0.101-0.201l-0.204-0.203l-0.3-0.301v-0.1l-0.102,0.1l-0.1,0.102h-0.204l-0.199,0.199h-0.405l-0.199,0.1v0.104h-0.405
	l-0.2,0.102v0.301l-0.301,0.305h-0.203l-0.201,0.1l-0.2-0.201l-0.1-0.104l-0.205-0.201v-0.1v-0.1l-0.503-0.406h-0.102l-0.3,0.102
	l-0.201,0.1l-0.304-0.1H48.85l-0.502,0.203l-0.204-0.104h-0.1l-0.2,0.305l-0.102,0.1v0.102v0.1v0.104h0.102l0.099,0.102v0.1
	l-0.099,0.199v0.203v0.201l-0.102,0.201l-0.304,0.305h-0.101l-0.403-0.205l-0.201-0.301l-0.1-0.506l-0.405-0.299h-0.1l-0.1,0.102
	v0.502l-0.101,0.201l-0.101,0.201l-0.204,0.305l-0.3-0.104l-0.101,0.303l-0.404,0.201h-0.301l-0.304-0.102l-0.201-0.201
	l-0.303-0.098l-0.101-0.305h-0.1h-0.102l-0.099-0.1l-0.102-0.303l-0.304-0.502l-0.199-0.102l-0.102-0.104h-0.304L42.2,90.313
	l0.101,0.102L42.2,90.916v0.102l0.506,0.502v0.104l-0.102,0.199h-0.1l-0.204,0.1H42h-0.1h-0.102l-0.103-0.1l-0.2-0.199l-0.302-0.104
	h-0.303l-0.201,0.104H40.59h-0.202h-0.102l-0.4-0.104l-0.504,0.104h-0.201l-0.505,0.199h-0.404h-0.3l-0.304-0.102h-0.402
	l-0.202,0.102l-0.401,0.4l-0.304,0.104h-0.301l-0.1-0.104h-0.305l-0.505-0.199h-0.1l-0.301,0.1l-0.404,0.1h-0.604h-0.1l-0.301,0.205
	l-0.101,0.1l-0.104,0.301l0.104,0.203v0.1l-0.104,0.102l-0.201,0.201l-0.201,0.404v0.299v0.104l0.201,0.301l-0.1,0.504l0.201,0.506
	v0.1v0.201v0.1l-0.201,0.404l-0.102,0.1H32.53l-0.906-0.604l-0.1-0.1l0.1-1.715v-0.301l-0.1-0.807l-0.201-0.502l-0.1-0.205
	l-0.404-0.1l-0.2-0.1h-0.404l-0.101,0.1l-0.403,0.807l-0.401,0.908l-0.203,0.199l-0.604,0.404v0.1H28.4l-0.2-0.1l-0.503-0.102
	h-0.102l-0.404-0.604v-0.199l-0.1-0.305l-0.505-0.906V91.52l-0.1-0.201v-0.1v-0.406l0.204-0.805l0.2-0.199h0.3l0.203-0.102v-0.203
	v-0.199l-0.1-0.102h-0.104l-0.5-0.1l-0.305,0.1l-0.3,0.199l-0.305,0.102l-1.209-0.102h-0.301l-0.405-0.398L23.769,88.9l-0.201-0.402
	l-0.305-0.102l-0.4-0.098l-0.1,0.098h-0.305l-0.4,0.102l-0.304,0.1v0.102h-0.2h-1.01l-0.504-0.102h-0.102h-0.501h-0.104l-0.6,0.102
	L18.43,88.9h-0.301h-0.304l-0.2-0.102l-0.806-0.301l-0.809,0.1l-0.2-0.1h-0.2l-0.101-0.102l-0.404-0.402l-0.2-0.1l-0.104-0.102
	h-0.099h-0.501l-0.305,0.102h-0.1l-0.101-0.102l-0.404-0.1h-0.301l-0.404,0.201l-0.604-0.201l-0.4,0.1h-0.104l-0.201-0.1h-0.301
	V87.49l-0.304-0.102l-0.604-0.703l-0.301-0.102l-0.305-0.1l-0.199-0.102l-0.201,0.102l-0.204,0.1h-0.3l-0.201,0.102l-0.202,0.199
	H7.853H7.653L7.55,87.09l-0.302,0.4l-0.199,0.1l-0.204,0.203l-0.3,0.506H6.443L6.24,88.396H6.14l-0.705,0.201L4.63,88.799H4.429
	V88.9l-0.304,0.203l-0.4,0.1l-0.103,0.102L3.32,89.604h-0.2H2.916H2.715v0.205l-0.3,0.199l-0.203,0.201H2.11h-0.2v0.104
	l-0.503,0.705l-0.102-0.205l-0.201-0.299l0.102-0.1l0.1-0.305v-0.402l-0.201-0.504l0.303-0.705v-0.102v-0.098v-0.104l-0.201-0.301
	l-0.102-0.201v-0.404v-0.504l-0.202-0.201V86.484z"/>
</svg>
