<?xml version="1.0" encoding="utf-8"?>
<!-- Generator: Adobe Illustrator 16.0.0, SVG Export Plug-In . SVG Version: 6.00 Build 0)  -->
<!DOCTYPE svg PUBLIC "-//W3C//DTD SVG 1.1//EN" "http://www.w3.org/Graphics/SVG/1.1/DTD/svg11.dtd">
<svg version="1.1" id="Layer_1" xmlns="http://www.w3.org/2000/svg" xmlns:xlink="http://www.w3.org/1999/xlink" x="0px" y="0px"
	 width="115.833px" height="79px" viewBox="0 0 115.833 79" enable-background="new 0 0 115.833 79" xml:space="preserve">
<path id="Rio_de_Janeiro_1_" fill="none" stroke="#0079FF" d="M1.52,73.428l0.192-0.192V73.04v-0.192l0.395-0.197h0.194v-0.192
	h0.195l0.194-0.2h0.389l0.201-0.196l-0.201-0.385l0.394-0.197L3.28,71.287l0.387-0.2l-0.194-0.197l0.194-0.192H3.473l0.194-0.389
	H3.473v-0.192H3.28l0.192-0.196v-0.201v-0.192V69.33l0.194-0.192v-0.196l0.194-0.192v-0.394l0.194-0.196v-0.192H3.861l0.194-0.389
	l-0.194-0.192l0.194-0.201v-0.196v-0.192H4.25h0.192H4.84h0.192h0.195v-0.197l0.194-0.192l-0.194-0.196l0.389-0.393l0.588-0.39
	l0.194-0.192l0.194,0.192h0.194h0.199h0.197l0.389-0.581l0.387,0.389l0.587-0.389v-0.201l0.197-0.192l0.776-0.389h0.201l0.583-0.389
	l0.587,0.389l0.389-0.196l0.387-0.394l0.397-0.196l0.387-0.385h0.194h0.389l0.192,0.192l-0.192,0.389h0.192v0.201h0.201v0.192
	l0.583-0.192h0.194l0.192-0.201l0.196-0.389l0.201-0.192h0.192h0.389v0.192h0.194h0.195h0.393l1.368-0.581l0.192,0.192l-0.192,0.196
	h0.192v-0.196l0.583-0.389h0.395v0.196l0.389-0.196l0.389-0.782h0.393v-0.192v-0.197h-0.393l0.192-0.2l-0.192-0.192v-0.196
	l0.192-0.39h0.396l-0.195-0.192l0.582-0.59h0.589l0.195-0.192h-0.195v-0.196h0.195l0.387-0.192l0.197-0.192v-0.397h0.192
	l0.201-0.192v-0.196v-0.192l-0.393-0.389l-0.389-0.394l0.192-0.196l-0.192-0.192h-0.194l-0.195-0.196v-0.39h-0.201l-0.192,0.197
	l-0.196-0.394h-0.192h-0.389l-0.201,0.196l-0.581-0.393l-0.389,0.196v0.196l-0.194-0.393h-0.201h-0.195l-0.192-0.192l-0.196,0.192
	l-0.192-0.39l-0.389,0.197l-0.201-0.197v0.197v0.192l-0.194-0.192v0.192l0.194,0.393h-0.194h-0.195v-0.585h-0.192l0.192-0.39h-0.192
	h-0.196l-0.393-0.196h-0.195v0.196l-0.389,0.192v0.197l0.194,0.192v0.196h-0.194l-0.194-0.196h-0.394l-0.389,0.196l-0.194,0.196
	h-0.195l-0.194,0.197l-0.395-0.197l-0.192-0.196h-0.195l0.195,0.196l-0.583,0.778h-0.194l-0.192-0.192h-0.397h-0.192l0.192,0.192
	h-0.192v-0.192l0.389-0.389h-0.196h-0.192l-0.389-0.394l-0.393,0.196l-0.196-0.393l-0.389,0.782H9.913l-0.194-0.39L9.518,55.67
	v0.196l-0.195,0.197L8.935,55.67l-0.192,0.196L8.545,55.67H8.353v-0.586v-0.192l0.192-0.589l-0.192-0.192l-0.201,0.192l-0.194-0.192
	l-0.583,0.192v-0.39l0.196-0.192l-0.196-0.389l-0.192-0.201H6.985l-0.199-0.196H6.398V52.55v-0.196H6.204l-0.192-0.192l0.192-0.397
	v-0.192l-0.192-0.778l-0.396-0.393l-0.389-0.389H4.84L4.443,49.82H3.667l0.194-0.397l0.194-0.192H4.25l0.192-0.197h0.201
	l0.389-0.192h0.389l0.393-0.389h0.197l0.581,0.389l0.393-0.196l0.389,0.196h0.389l0.195,0.192V48.84l0.395-0.389v-0.192l0.582-0.2
	v-0.39l0.196-0.196l0.588-0.192h0.194l0.192,0.192l0.389-0.192l0.196,0.192l0.588-0.192v0.192h0.387v-0.192l0.397-0.196v-0.196
	l0.581-0.197l0.782-0.777l0.194,0.196v-0.196v-0.192l0.194-0.394h0.195h0.194l0.192-0.196l0.397,0.196h0.192h0.583v0.394h0.195
	h0.201l0.192-0.201l0.389-0.389l0.195,0.196h0.395h0.389l0.192,0.192l0.196-0.192h0.387l0.201-0.389v0.192l0.194-0.192h0.192h0.197
	l0.192,0.192v-0.192l0.196,0.782l0.192-0.201l0.201,0.201l0.195-0.201l0.387-0.192v-0.196l0.389-0.192v0.192h0.201l0.389-0.192
	l0.192-0.389h0.197h0.192h0.201l0.194-0.201l0.194-0.389l0.195,0.196l0.194-0.196h0.192h0.196v-0.39v-0.192v-0.196l0.201,0.196
	l0.387-0.196v-0.2V42.79l0.389,0.192v0.2l0.195-0.2h0.192v-0.385h0.201l0.778-0.197v-0.192h0.59l0.389,0.39l0.192-0.197h0.195
	l0.194-0.192h0.201v-0.196l0.582-0.192h0.194l0.395-0.203l1.165-0.389l0.201-0.192h0.387v-0.389l0.197,0.192v-0.192h0.192
	l0.196-0.201l0.393,0.201l0.389-0.201l0.389-0.196h0.192h0.201l0.778-0.581h0.192h0.201v0.191l0.196,0.197h-0.196l0.389,0.192v0.196
	h0.197l0.192,0.201l0.389-0.59h0.393h0.196l0.192-0.197h0.389l0.201,0.389v0.196l0.192-0.196v-0.389h0.389v-0.191h0.196h0.192
	l0.393,0.388l0.197-0.197v0.389h0.192v-0.192v-0.197h0.196l0.192-0.384h0.197l0.196-0.201v0.584l0.389,0.197l0.197,0.192
	l0.192-0.192l0.979-0.197l0.192-0.384h0.196l0.192,0.192v0.191h0.397h0.385h0.389l0.786-0.384l0.192-0.201h0.389l0.782-0.585
	l0.582-0.389v-0.192l0.397-0.201h0.192l0.196,0.201h0.385l0.197-0.201l0.201,0.201l0.389,0.192l0.582-0.192h0.393l0.197-0.201
	l0.192,0.201l0.196-0.201l0.192,0.201V38.3l0.197,0.197h0.196l0.197,0.192h0.192l0.196-0.192v0.192l0.192,0.197l0.782-0.586h0.197
	v0.197l0.389,0.192h0.192h0.393v0.389v0.397l-0.585,0.384v0.197l0.192,0.59l0.201,0.389l0.389-0.196v-0.394l0.582-0.196h0.397h0.385
	v0.196l0.786-0.196l0.389-0.581l0.192-0.192l-0.192-0.201v-0.196l0.385-0.192l0.59-0.197h0.196l0.774-0.582h0.201l0.389-0.201
	l1.171-0.389l0.777-0.774v-0.201l0.979-0.389l1.56-0.389l0.782-0.393l0.192-0.197l1.171-0.581l1.175-0.397l0.192-0.192l0.59-0.192
	l0.774-0.197l0.396-0.192h0.192h0.197l0.389-0.196v-0.393l1.363-0.582l1.953-0.786l0.196-0.192l1.953-0.582l0.197-0.397h0.192
	l0.581-0.192h0.59l0.777-0.197v-0.192l1.171-0.389v-0.201v-0.192v-0.196v-0.389l-0.192-0.192l-0.196,0.192l-0.192-0.385h0.192
	l-0.192-0.201l-0.397-0.197h-0.192h-0.196h-0.192l-0.192,0.197h-0.196l-0.192-0.197v-0.389h-0.397h-0.192l-0.196-0.192l0.389-0.389
	h-0.192l-0.196-0.201l0.585-0.778l0.201-0.192l0.581-0.393l-0.192-0.197v-0.192l0.581-0.196v-0.192l0.192-0.201v-0.197l0.201-0.192
	h0.389l0.196-0.581l0.385-0.197l0.201-0.201l-0.394-0.582V21.91l-0.581-0.196l0.192-0.393v-0.197v-0.192l0.196-0.192v-0.59
	l0.192-0.196l0.192,0.196h0.397l0.192-0.196l0.197-0.192l-0.39-0.197h-0.196l0.389-0.192v-0.192l0.39-0.196l-0.192-0.393
	l0.192-0.197l-0.192-0.192l0.389-0.197l-0.196-0.192h-0.192v-0.201l0.192-0.389v-0.778l0.196-0.197l0.196-0.197l0.389-0.192
	l0.197-0.196l0.192-0.192l-0.192-0.197l0.192-0.393l-0.192-0.192v0.192l-0.197-0.192v-0.389l0.197-0.197l-0.39-0.782h0.192v-0.192
	l0.197-0.196v-0.192l0.192-0.201l0.196-0.197l0.192-0.385h0.201v-0.389V11.17h0.777v-0.192l0.192-0.197v-0.385h0.394V10.2
	l0.585-0.59V9.418V9.221V9.029l0.192,0.192h0.397V9.029l-0.2-0.192l-0.39-0.397h-0.196h-0.192l-0.196-0.192h-0.197l-0.389-0.389
	V7.666l-0.389-0.201V7.268l0.389-0.389l0.389-0.192l0.197,0.192h0.196V6.687l0.192-0.197l0.389-0.393l0.197,0.201h0.585l0.586-0.201
	l0.192-0.192h0.397l0.581,0.192l0.192-0.192l0.59,0.192V5.708l0.196-0.192v0.192l0.192-0.389l-0.192-0.192l0.192-0.201V4.537
	l0.389-0.192l-0.196-0.196l0.196-0.192l0.394-0.197l0.196-0.201l0.192-0.192l-0.389-0.389l0.389-0.782l-0.192-0.197h0.389h0.192
	h0.201l0.192-0.192h0.389l0.197-0.192l-0.197-0.196l0.197-0.192h0.192l0.393-0.201l0.196,0.393l0.39,0.196l0.192,0.192v0.192
	l0.393,0.197l0.197-0.197l-0.197,0.397h0.39l0.196-0.201h0.581h0.201v0.201h0.389v0.389l0.192-0.196l0.196,0.196v0.192v0.197
	L91.68,3.759l0.196,0.389v0.196l0.394-0.196l0.389,0.196h-0.192L92.27,4.926v0.201h0.196L92.27,5.708l-0.201,0.196h-0.192
	l0.192,0.585l0.397,0.197v0.778h0.192v0.393h-0.192v0.389L92.27,8.439l0.389,0.196l-0.192,0.201H92.27v0.192l0.196,0.389v0.389
	H92.27V9.61h-0.201V10h0.201V10.2h0.196l-0.397,0.778v0.192h0.201h0.196h0.385v0.201l-0.385,0.196v0.192h0.385v-0.192h0.389
	l0.197,0.192h0.2v0.197l0.192-0.197h0.196v0.197l0.385,0.192v0.192h0.197h0.2H95l0.582,0.397l0.589-0.201l0.197,0.393l0.389,0.196
	v0.192l0.192,0.197l0.192-0.389l0.201,0.389l0.585-0.197l0.389,0.389V13.32h0.192l0.201,0.197h0.389h0.192v0.393l0.39,0.192
	l0.393,0.197l0.196,0.192h0.39l0.389-0.389h0.201V13.91l0.192,0.192l0.192-0.192l0.196,0.192h0.192h0.196V13.91l0.192,0.192h0.201
	l0.777,0.197h0.192l0.201,0.192h0.196v0.196l0.192-0.196l0.389,0.585h0.192h0.197l0.2,0.196v-0.196h0.192h0.197l0.192-0.389h0.389
	h0.2h0.192v0.192h0.197v0.197h0.389l0.192,0.196h0.192h0.2v0.197v-0.197h0.197v-0.196v0.196l0.192-0.196l-0.192,0.196h0.192h0.389
	h0.196l0.394-0.196l0.192-0.197h0.389l0.59-0.192l0.192-0.196l0.196,0.196h0.192l0.197,0.192h0.192l0.393,0.197l0.389,0.585
	l0.39-0.192h0.397h0.192l0.192,0.581v0.394l0.196,0.196h0.192l0.196-0.196v0.196h0.201v0.192h0.192v0.197h0.196v0.389l-0.196,0.782
	l0.196,0.582h-0.196l-0.394,0.979h-0.196l-0.389,0.192l-0.192,0.589l-0.59,0.778l-0.39,0.393l-0.192,0.196l-0.589,0.582
	l-0.192,0.782v0.979l0.585,1.171l0.196,0.389l0.39,0.192h0.389l0.201,0.196v-0.196v0.196l-0.397,2.146v1.175l0.59,2.146l0.777,3.509
	l0.201,0.979v0.782l-0.397,0.778l-0.192,0.393l-0.389,0.192l-1.172,0.586l-0.979,0.589l-1.363,0.969l-0.782,0.59l-1.367,0.581
	l-1.171,0.396l-1.368,0.586l-3.901,0.974l-1.561,0.39l-1.56,0.59l-1.171,0.581l-0.782,0.196l-0.581,0.394l-1.958,0.97l-1.363,1.171
	h-0.389l-0.389,0.397l-0.201,0.192v0.389h0.201l-0.201,0.192l0.201,0.197l-0.59,0.393h-0.192l-0.782,0.39l-0.586,0.581l-0.389,0.397
	v0.389l-0.2,0.581h-0.192l-0.192,0.201h-0.39l-0.389,0.192l-0.394,0.777l-0.196,0.201l-0.192,0.389h-0.196l-0.192-0.389
	l-0.397,0.192l-0.385,0.389l-0.196,0.39l-0.39,1.171l-0.2,0.393v1.167v0.201v0.192l0.397,1.56l0.192,0.389h0.581v0.197l0.397,0.585
	l0.389,0.39h0.389l0.192-0.192l-0.192-0.197h0.394v-0.192l0.389,0.192l0.192-0.192v-0.393l0.197,0.2v-0.2l0.192,0.2l-0.192,0.192
	l0.385,0.192l-0.192,0.197h-0.192l-0.197,0.389v-0.196h-0.192l0.192,0.389l-0.192-0.192l-0.196,0.192h-0.192l-0.201-0.192
	l-0.389,0.192l-0.192,0.397v0.192v0.192v0.196l-0.389-0.196v0.196l-0.782,0.192l-0.389,0.786v0.385v0.196l0.192-0.196l-0.192,0.196
	v0.201l-0.197,0.192h-0.2l-0.192,0.196v-0.196h-0.196l-0.385,0.389l-0.197,0.196l-0.2,0.586v0.389l0.2,0.39h0.197v0.196l0.192,0.196
	l0.192-0.196l0.196-0.196v0.196l-0.196,0.196h0.196h0.192l-0.192,0.196l-0.196-0.196l-0.192,0.196h0.192l-0.192,0.192v0.197h0.192
	v0.192v0.397l-0.192-0.397l-0.59-0.192l0.2-0.197l-0.393-0.192l-0.971-0.393l-6.052-0.389l-2.149-0.197H72.17h-1.568l-0.39,0.197
	l-0.581-0.197h-2.149h-1.363l-1.172,0.197l-0.196,0.192v0.393h-0.192h-0.196l-0.59-0.196l-2.731,0.196l-1.752,0.196l-1.368,0.192
	l-0.974-0.192h-1.171l-0.389,0.192h-0.201h-0.197l-0.192,0.197l-0.192-0.197h-0.197l-0.192,0.197v-0.197h0.192l-0.393-0.389
	l-0.778-0.196h-0.782l-0.197-0.196v-0.192h-0.582l0.389-0.197v-0.389l0.192,0.196h0.197l-0.197,0.192h0.197h0.192l0.201-0.192
	v-0.389h-0.393l-0.197-0.201h-0.192l-0.197,0.201l-0.192-0.394l0.389-0.196v-0.192l-0.389-0.196l0.192-0.192h0.197l0.192,0.192
	l0.197-0.394l0.192-0.389l0.397-0.389l-0.196-0.192v-0.196l0.389-0.394l0.582-0.389l-0.389-0.192l-0.192-0.197l0.389-0.393v-0.196
	l0.192-0.192l0.979-0.582v-0.397v-0.192l-0.192-0.196v-0.192l0.192-0.192l-0.192-0.196l0.192-0.201h-0.192h-0.197v-0.192
	l-0.192,0.192l-0.201-0.192h-0.196l-0.582-0.196l-0.192,0.196h-0.397h-0.192l0.192,0.394l-0.192-0.201l-0.197,0.201v0.196
	l-0.192,0.192l-0.197,0.192l-0.393-0.192l-0.192-0.192l-0.389,0.192v0.192h-0.389l-0.979,0.196v0.192l-0.192,0.197h-0.197h-0.196
	l-0.197,0.2h-0.192l0.192,0.192l-0.389,0.192h-0.192h0.192l-0.582,0.39v0.196l-0.201,0.192h0.201l-0.393,0.59v0.192l0.192,0.196
	l0.201-0.196v0.196l0.192,0.192l0.389,0.397l0.196,0.192l0.192,0.581l0.197-0.192l-0.197-0.581l-0.192-0.196v-0.201h-0.389
	l-0.197-0.389l0.197-0.192l0.192,0.192h0.196v-0.192l0.389-0.39l0.196-0.2h0.197l0.389,0.397h0.389h0.201l-0.201-0.197l0.201-0.2
	h0.192l0.192-0.192v0.192l0.197-0.192h0.192v0.192l-0.192,0.2l-0.389,0.39v0.192l0.192,0.389h0.197l-0.197,0.201l-0.192-0.201
	l-0.192,0.397l-0.201-0.397h-0.389l-0.196-0.192l-0.389,0.192l-0.393,0.397l0.197,0.192l0.196-0.192v0.192l0.197,0.196l-0.197-0.196
	h-0.196v0.196l0.196,0.192h0.585l-0.389,0.192l0.192,0.196h-0.192h-0.393l0.196,0.201h0.197l0.389-0.201l0.192,0.201l-0.389,0.389
	l0.196,0.192l0.389-0.192h0.393v0.192v-0.192v0.192h0.192h0.197h-0.197h-0.192l0.192,0.196h0.389v0.394h-0.389v0.192v-0.192
	l0.197,0.192l-0.197,0.389l0.197,0.197h-0.197h-0.192v0.192l0.192,0.196l0.197-0.389h0.389h-0.196l0.196,0.192l-0.389,0.196h0.192
	v0.196h-0.192l-0.582,0.389v0.197l0.192,0.192h-0.192h-0.201h-0.778l-0.782,0.397h-0.778l-0.393,0.192v0.192h-0.197l-0.192-0.192
	l-0.196-0.192l-0.393-0.201v-0.196h-0.389l-0.192-0.192l-0.585-0.197h-0.393h-0.197l-0.385,0.197l-0.196-0.197l-0.201,0.197
	l0.201,0.192l-0.201-0.192l-0.192,0.192h0.192v0.196l0.589-0.196v0.196l0.192-0.196l-0.192-0.192h0.192h0.787l0.389,0.192h-0.389
	h0.192v0.196l-0.192-0.196l-0.197,0.196h0.778h0.389v0.201h0.201l0.192,0.192l0.389,0.192h-0.389h-1.363l-2.539,0.196l-0.589,0.192
	l-0.192,0.196v0.192v-0.192h-0.582l-0.397,0.192l-0.192,0.201l-0.778,0.192l-0.393,0.196v0.389v0.192v-0.192h-0.389h-0.197h0.197
	V69.33l-0.389-0.192l-0.393-0.196h-2.146l-3.124,0.196l-2.342,0.389l-2.733,0.394l-0.977,0.389h-0.194h-0.195l-0.192-0.192v-0.397
	H26.5l0.196-0.192h0.192l0.195-0.196v-0.192h0.194l0.393-0.389l0.583-0.201l0.194,0.201l0.393,0.389h0.389l0.583,0.192h0.395
	l0.192-0.192v-0.389v-0.201l-0.387-0.192l-0.396-0.196l-0.192-0.192l0.192,0.192l0.396,0.196l0.776,0.394l0.979,0.389h0.979
	l2.535-0.196l1.171-0.394l1.56-0.192h0.196l0.192,0.192l0.979,0.394v0.389l0.192-0.389v-0.192h-0.192v0.192l-0.197-0.192
	l-0.192-0.201l-0.197-0.192h-0.196l-0.197-0.389l-0.581-0.196l-0.197-0.192h-0.393v-0.192h-0.389l-0.389-0.397l-0.192-0.192
	l-0.393,0.192v0.196l-0.197-0.196h-0.192l-0.389-0.582l-0.201,0.192v-0.192l-0.197-0.393l-0.97-0.586v-0.192l-0.201,0.192
	l-0.192-0.192v-0.196h-0.197l-0.385-0.192h-0.196l-0.394,0.192v-0.192l-0.196-0.201l0.196,0.394l-0.389,0.196H31.38l-0.194-0.196
	l0.389-0.192l0.194-0.201l-0.194-0.192h-0.588l-0.389,0.192l-0.197,0.201l-0.192,0.192l0.389,0.196l-0.197,0.39v0.192h0.197h-0.197
	h-0.192l-0.395,0.393H29.62l-0.192-0.196l0.192-0.196l-0.192-0.192h-0.196v0.192v-0.192h0.196v-0.197l0.387-0.192l0.201,0.192
	v-0.192h0.194v-0.196h-0.194l-0.588,0.196h-0.585h-0.192h-0.395l-0.387,0.192h-0.389h-0.201l-0.194,0.197h-0.195L26.5,65.817
	l-0.192,0.196v0.196h-0.197l-0.199,0.586l-0.389,0.192l-0.195-0.192l0.389-0.586l-0.194-0.196l0.194-0.196l-0.194-0.192
	l-0.387,0.192l-0.397,0.196l-0.192,0.196v0.196l0.192,0.192l-0.192,0.586h-0.389v0.394l-0.581,0.389l-0.784,0.389h-0.195v0.192
	l-0.194-0.192v0.192h-0.194l0.194-0.192h-0.194l-0.393,0.192h0.192v0.201l-0.192,0.192l-0.197-0.192v0.192h-0.387l0.194-0.394
	h-0.194l-0.977,0.394l-0.194,0.196l-0.195-0.196v-0.192l-0.201,0.192v-0.192h0.201l0.195-0.59l0.387-0.192V67.77h-0.192
	l-0.389-0.385h-0.201v-0.201l-0.192,0.394l-0.196-0.192l-0.192,0.192l-0.197,0.192v0.196l-0.192-0.196l-0.194,0.196v0.192h-0.201
	l-0.195-0.192l0.195-0.389l-0.195-0.192v0.192h-0.389v0.192v-0.192l-0.192,0.192v0.196h-0.197v0.192l-0.192-0.192l-0.395,0.389
	v-0.389h-0.195v-0.389l0.195-0.192l0.194-0.201h0.59v-0.389l0.192,0.192l0.196-0.192v-0.197l0.192-0.389h0.195v-0.196l-0.387,0.196
	l-0.196-0.196l-0.389,0.196v0.196v-0.196l-0.192-0.196h0.389h-0.197v-0.196l0.197-0.192l0.192-0.197h-0.192v-0.192v-0.196
	l-0.197,0.196l-0.192-0.196h-0.201l-0.194,0.196l-0.195-0.196h-0.192l0.192,0.196h-0.192l0.192,0.192h-0.389l0.196,0.39v-0.192
	l0.582,0.192l-0.389,0.196l-0.192,0.196h-0.196v0.196h-0.192v0.192l-0.201-0.192l0.201-0.196l-0.396-0.393l-0.389,0.196
	l-0.194-0.389v0.192h-0.192v0.393l-0.201-0.196v0.196h-0.196v0.389l0.196,0.197h-0.196v0.192l-0.192,0.196h0.389v0.201h-0.389
	L14.01,67.77l0.194,0.196h0.389l-0.389,0.192l-0.389-0.389l-0.194,0.196V67.77v-0.192h-0.194v0.192l-0.201-0.192h-0.192
	l-0.195,0.389l-0.389,0.389l-0.194-0.196h-0.192h-0.397l-0.582,0.389H10.89l-0.395,0.201h-0.192v0.192l-0.197,0.196L9.719,69.33
	l0.194-0.389v-0.192H9.719l-0.396,0.192v-0.192v0.192v-0.192H9.131l-0.585,0.192v-0.192H8.353l-0.201,0.389l-0.194-0.196v0.196
	l-0.195-0.196L7.375,69.33v0.196H7.182v0.192l-0.197,0.201l0.197,0.196H6.985l-0.199,0.192v0.581l0.396,0.197v0.2v-0.2l-0.197,0.2
	H6.787v0.192v0.197h0.199l-0.199,0.385H6.592v0.196l0.194,0.2L6.398,72.65v0.197H6.204h0.194h0.194L6.398,73.04H6.204v0.389
	l0.194,0.192l0.194,0.201l-0.194,0.196h0.194L6.398,74.21h0.194h0.194h0.199v-0.192h0.197l0.192-0.196h0.196l-0.196-0.201h0.196
	v-0.192l0.192,0.192v-0.192h0.195l0.194-0.581h0.201v0.389h0.582v0.192h0.196l-0.196,0.192v0.397H8.742H8.545v0.192H8.353H8.152
	h0.201v-0.192l0.192,0.192v-0.192h0.197v-0.196H8.545v-0.201l-0.393,0.397v-0.196l-0.389-0.201l0.195,0.397L7.763,74.21l0.195-0.192
	h0.194l-0.389,0.389H7.571l-0.196,0.192v-0.192l-0.192,0.192h0.192l-0.389,0.192h0.389l0.196-0.192v0.192h0.192l0.195-0.385h0.194
	h0.393h0.197l0.581-0.196l-0.389,0.389l-0.389,0.979l-0.587,0.39v0.192l0.587,0.2l-0.192-0.2v-0.192h0.192l0.197-0.197l0.389-0.777
	l0.588-0.394v-0.192l0.583-0.196l0.587-0.192v-0.196v0.196l-0.199,0.192l-0.389,0.389v0.192l-0.197,0.397l0.197,0.192l0.587,0.196
	l0.194-0.196v0.196l0.389-0.196l0.59,0.389h-0.201h0.201l0.192,0.197h0.194v0.192l-0.194,0.2l-0.192-0.393h-0.397h-0.192
	l-0.194,0.393l-0.195,0.192L10.89,76.36l-0.199,0.581v0.197l-0.585,0.782l-0.192,0.192H9.719l-0.201,0.196v-0.586H9.323H9.131
	v-0.192H8.935l-0.192,0.192v0.197v-0.59l-0.197-0.192l-0.192,0.192l-0.201,0.2H7.763l0.195,0.192l-0.387-0.192l-0.196-0.2v0.2v0.192
	H7.182l-0.396-0.192l-0.583,0.192v0.197v0.192V77.92H6.011l-0.197,0.192l0.197,0.196l-0.197-0.196L5.616,77.92H5.421l-0.389-0.39
	l-0.589-0.2h0.201l-0.201-0.39v-0.192L4.25,76.36v-0.2l-0.583-0.192V75.77l-0.588,0.197L3.28,75.77l-0.201-0.192v-0.196L2.69,75.189
	l0.192-0.196l-0.582-0.201H1.712V74.21H1.52l-0.197-0.192l0.197-0.196V73.428z M93.24,49.623v-0.2h0.197v0.2H93.24z M92.851,49.82
	l0.196-0.197l0.192,0.197h-0.192l0.192,0.192h-0.389V49.82z M50.113,68.355v-0.196V68.355z M40.941,68.941h0.192H40.941z
	 M23.769,67.966v0.192V67.966z M7.375,70.5v0.196h0.196H7.375V70.5z M30.791,65.817v-0.192V65.817h0.196v0.196h-0.196h0.196h-0.196
	V65.817z M27.868,65.817v-0.192h0.192L27.868,65.817z M47.775,68.355h-0.201v-0.196h0.201V68.355z M7.182,70.5v0.196V70.5z
	 M7.763,74.407L7.571,74.21l-0.196,0.196h0.196H7.763z M7.182,72.65h0.192H7.182z M10.495,75.381v-0.192V75.381z M9.719,69.919
	h0.194H9.719v0.196V69.919z M10.691,68.941h0.199h0.194v0.196H10.89v0.192v-0.192v0.192h-0.199v-0.192h0.199v-0.196H10.691z
	 M28.254,66.209h0.194H28.254z M8.742,69.137h0.192h0.196H8.935v0.192H8.742v0.196V69.33V69.137z M39.381,69.718h0.192H39.381z
	 M22.987,68.547v0.201V68.547v0.201V68.547z M46.796,68.547v-0.192h0.196v0.192H46.796z M28.254,68.159v-0.192V68.159z
	 M49.724,68.159h0.192H49.724z M10.495,77.92v-0.197h0.196h-0.196V77.92z M7.763,72.257v-0.196h0.195H7.763V72.257z M28.449,67.966
	v0.192V67.966z M29.427,67.184v-0.196h0.192v0.196H29.427z M49.724,68.547h0.192v-0.192v0.192H49.724z M7.958,72.847V72.65V72.847
	v0.192V72.847z M10.105,73.236h0.197v0.192h-0.197v0.192l-0.387,0.201l-0.201,0.196H9.131l0.387-0.196l0.395-0.394h0.192V73.236z
	 M9.323,69.33v-0.192h0.195v-0.196h0.201l-0.201,0.196v0.192H9.323z M40.941,69.33v-0.192V69.33z M10.302,73.04v-0.192h0.192v0.192
	H10.302z M51.284,69.137h0.192v0.192v-0.192H51.284z M29.427,66.795h0.192H29.427z M23.179,68.547v-0.192l0.196,0.192H23.179z
	 M49.916,69.33h0.197v0.196h-0.197V69.33z M8.353,69.526V69.33h0.192v0.196V69.33v0.196H8.353z M52.455,60.547v-0.39v-0.192h0.192
	l-0.192,0.192l0.192,0.197L52.455,60.547z M6.985,72.061l0.197-0.192l0.192,0.192l-0.389,0.396V72.061z M25.329,67.578l0.195-0.192
	l0.389-0.201l0.199,0.394l-0.393,0.192v-0.192l-0.194,0.192L25.329,67.578z M28.649,67.578v-0.192l0.192-0.201l0.197-0.196h0.192
	v0.196l-0.192,0.201l-0.197,0.385L28.649,67.578z M48.745,63.278v0.196v0.201l0.197-0.201v-0.196H48.745z M19.666,73.428h-0.192
	l0.192-0.192l-0.192-0.196l-0.389,0.196l0.192-0.389l-0.192-0.197h-0.389h-0.59l-0.389,0.197l0.196,0.192l-0.585,0.581v0.397h-0.393
	l0.201-0.196h-0.395v-0.201l0.194-0.192l0.201-0.389v-0.192l-0.201-0.197l-0.389,0.39v-0.39l-0.389,0.197l-0.192-0.197v-0.192
	l0.389-0.2h0.192l0.195-0.196h0.194l0.201-0.192h0.389l0.192-0.192l-0.192-0.197l0.192-0.192l0.196,0.192v-0.192v-0.2l0.588-0.39
	l-0.201,0.59h0.201v0.192h0.194l0.192-0.393h0.197l-0.197-0.197h0.585v-0.192h0.192v-0.389h-0.192l0.588-0.192v-0.196h0.194v0.196
	h0.581v0.192h0.396V70.5h0.194h-0.194h-0.195h-0.393v0.196h0.192l0.201-0.196v0.389h0.195h0.583h0.192v0.397v0.192h0.201h0.194
	v-0.192h0.194v-0.2l0.582-0.197l0.196,0.197l-0.196,0.2l-0.387,0.192l0.194,0.197l-0.194,0.385h0.194h0.192l0.397-0.385v0.192
	l0.192,0.389h0.583l-0.194,0.393h-0.389l-0.192,0.197h-0.397l0.196-0.197l-0.196-0.192l-0.192-0.2l-0.583,0.2l-0.395,0.39
	l-0.192-0.197h-0.197l-0.192,0.39h0.192v0.196l-0.387,0.192v-0.192l-0.195-0.196l-0.589,0.196h-0.192h-0.389L19.666,73.428z"/>
</svg>
