<?xml version="1.0" encoding="utf-8"?>
<!-- Generator: Adobe Illustrator 16.0.0, SVG Export Plug-In . SVG Version: 6.00 Build 0)  -->
<!DOCTYPE svg PUBLIC "-//W3C//DTD SVG 1.1//EN" "http://www.w3.org/Graphics/SVG/1.1/DTD/svg11.dtd">
<svg version="1.1" id="Layer_1" xmlns="http://www.w3.org/2000/svg" xmlns:xlink="http://www.w3.org/1999/xlink" x="0px" y="0px"
	 width="126.985px" height="110.115px" viewBox="0 0 126.985 110.115" enable-background="new 0 0 126.985 110.115"
	 xml:space="preserve">
<path id="Rio_Grande_do_Sul_1_" fill="none" stroke="#0079FF" d="M5.582,48.415l0.104-0.64l-0.104-0.64v-0.213l0.532-0.854
	l0.747-0.638l0.322-0.11h0.852l0.642-0.212l0.104-0.105l0.426-0.32l0.75-0.64l0.957-1.28l0.319-0.427l0.533-0.426l0.429-0.64
	l0.746-0.428l0.426-0.212l0.215-0.215l0.318-0.213l0.321-0.43v-0.317v-0.213l0.107-0.532l0.211-0.107h0.642l0.211-0.105l0.747-1.388
	l0.109-0.322l-0.109-0.423l0.322-0.642l0.427-0.533l0.213-0.64l0.317-0.107h0.535l0.428-0.32l0.212-0.107l1.067-0.104h0.213
	l0.106-0.641l0.213-0.319l-0.319-0.322l0.106-0.424l0.213-0.217l0.216-0.105l0.745-0.212l0.212-0.215l0.319-0.425l0.109-0.213
	v-0.428l-0.109-0.747l0.109-0.32l0.212-0.107l0.319-0.213h1.173l0.429-0.532l0.213-0.425l0.318-0.428l1.28-1.069l0.427-0.213
	l0.213-0.21l0.106-0.213l-0.212-0.217l-0.212-0.318v-0.215v-0.212l0.212-0.32l0.428-0.105l0.53-0.109l0.535-0.105l0.427-0.107
	l0.105-0.104v-0.107l-0.321-0.745v-0.215v-0.107l0.429-0.641l0.428-0.104l0.425,0.21h0.962l0.318,0.109l0.106,0.107l0.105,0.318
	l0.11,0.215l0.104,0.212h0.213l0.106-0.212v-0.32l0.321-0.853v-0.213l-0.533-0.322l-0.428-0.317l-0.642-0.217l-0.105-0.318
	l0.105-0.212l0.642-0.215l0.533-0.107l0.64-0.533l0.106-0.107l0.213-0.104h0.108l0.107-0.107l-0.107-0.211l0.213-0.109l-0.105-0.213
	l0.105-0.107l0.107-0.212h0.211l0.217,0.107v0.104l-0.11,0.213v0.107l0.428,0.215h0.107l0.104-0.105v-0.217v-0.105l0.217-0.212
	l0.318-0.107l0.215-0.428l0.106-0.213h0.213l0.211,0.32h0.218h0.104l0.106-0.213l0.424-0.427l0.641-0.32l0.109-0.105v-0.217
	l-0.215-0.317h-0.106v-0.213l0.212-0.215h0.428l0.106-0.107l0.106-0.423l0.106-0.217h0.109h0.213l0.428,0.107h0.212l0.105-0.213
	l0.318-0.535l0.642-0.53h0.215l0.213,0.107l0.212,0.318l0.215,0.212l0.106,0.11l0.106-0.11l0.105-0.107l-0.105-0.423l0.105-0.107
	l0.212-0.109l0.429-0.105l0.429,0.215l0.317,0.107l0.106-0.217v-0.213l-0.106-0.212l-0.746-0.32l-0.106-0.213l0.106-0.107
	l0.106-0.104l0.322-0.107l0.53,0.425l0.109,0.107l0.213-0.107l0.105-0.317h0.212l0.322,0.104h0.105l0.213-0.104l0.105-0.215v-0.107
	l0.429-0.426v-0.427v-0.641v-0.317l0.105-0.217h0.213h0.427l0.107-0.105l0.105-0.317l0.109-0.535l0.318-0.64h0.107l0.212,0.104
	l0.109,0.641l0.212,0.107h0.106h0.105l0.107-0.107l0.215-0.211h0.318l0.641,0.211l0.105-0.105V9.273l-0.105-0.427V8.634l0.105-0.215
	h0.106l0.108,0.109l0.213,0.53h0.213h0.105l0.106-0.212l0.11-0.318l0.317-0.534V7.781l0.106-0.215h0.106l0.106,0.105l0.32,0.322
	l0.213,0.425h0.106l0.216-0.107l0.105-0.213l0.107-0.104h0.427h0.318l0.212-0.107V7.672l-0.104-0.105l-0.319-0.213V7.141h0.106
	h0.428l0.106-0.109l0.212-0.213h0.106l0.321,0.213v0.109l0.318,0.426l0.105,0.105l0.217,0.109l0.212-0.109V7.459l-0.106-0.318V6.926
	V6.818h0.106l0.213,0.107l0.211,0.215l0.217,0.318h0.105l0.319-0.105V6.926l0.108-0.212l0.107-0.107h0.317l0.213-0.105l0.109-0.215
	V6.074V5.861l0.105-0.322l0.212-0.318V5.009l0.107-0.428l0.212-0.213h0.109l0.106,0.105v0.107v0.428l0.213,0.104h0.211h0.321h0.107
	h0.428l0.106-0.215l0.211-0.425l0.429-0.105l0.213-0.322V3.729l0.106-0.217l0.322-0.105h0.211h0.213V3.193V2.871l0.105-0.104h0.215
	l0.213,0.104l0.106,0.218h0.216l0.213-0.322l0.105-0.32l0.105-0.105h0.321l0.213,0.53l0.107,0.11h0.104l0.106,0.107h0.106h0.109
	l0.105-0.107l0.426-0.322l0.216,0.107l0.211,0.532h0.213l0.216-0.105h0.106l0.106-0.104l0.211-0.107l0.107-0.11h0.215h0.106
	l0.213,0.11v0.107l0.106,0.104v0.213v0.322l0.104,0.105h0.11l0.212-0.535h0.106h0.212h0.109l0.425-0.21h0.215h0.107l0.318,0.317
	l0.212,0.105h0.11h0.212V3.406V3.193V3.089l-0.212-0.218V2.767V2.659V2.446h0.104h0.107h0.213l0.105,0.213l0.216,0.107l0.746-0.213
	l0.106-0.213l0.106-0.322l0.212-0.212h0.105l0.109-0.105l0.106,0.105l0.106,0.212l0.105,0.107h0.107h0.104h0.11h0.318v0.11
	l0.106,0.104h0.105v0.105v0.107v0.105l-0.105,0.212l-0.319,0.535v0.105v0.107v0.109h0.106h0.106l0.212-0.322l0.641-0.317
	l0.216-0.107h0.105l0.531,0.317h0.216l0.105-0.105l0.107-0.534V2.554h0.105l0.105-0.107l0.11,0.107l0.211,0.428v0.107h0.107
	l0.318-0.107l0.64-0.215V2.554V2.446l-0.105-0.32V2.019V1.914l0.321-0.32h0.106h0.317H73.2l0.108,0.107L73.2,1.914l-0.319,0.427
	v0.318l0.107,0.107h0.104l0.429-0.32h0.106l0.105,0.213h0.107v0.212l-0.213,0.322l-0.106,0.105v0.32h0.106l0.105,0.109l0.217,0.105
	l0.105-0.105V3.193l0.106-0.322h0.105l0.318,0.11v0.425l0.109,0.105h0.107l0.317-0.105l0.215-0.107V3.193l0.426-0.212h0.106
	l0.105,0.107v0.423v0.107h0.11h0.104L76.4,3.512h0.106h0.213h0.108l0.107,0.107h0.212h0.105v0.109h0.106v0.105l-0.106,0.317v0.107
	l0.216,0.109v0.105l0.106-0.105l0.213-0.217l0.104-0.105H78l0.109,0.213l0.105,0.322v0.105l0.106,0.104h0.106l0.213-0.21V4.259
	l0.104-0.107h0.11h0.106l0.212,0.322l0.212,0.107h0.107l0.108-0.107l0.318-0.105l0.105-0.109h0.322h0.106l0.213-0.107l0.211,0.322
	l0.535,0.107h0.322V4.474V4.259V4.151V4.046l0.53-0.317h0.109h0.105v0.105l-0.105,0.317v0.107v0.215l0.318,0.317l0.107,0.107
	l0.104,0.11h0.106l0.109-0.11l-0.109-0.425V4.368h0.109h0.106v0.105h0.105l-0.105,0.425l0.105,0.322l0.212-0.107l0.217-0.215h0.105
	l0.213,0.215l0.213,0.107l0.215,0.213h0.106V5.326l0.106-0.105l-0.106-0.212l-0.106-0.218v-0.21V4.474h0.106h0.318h0.215
	l0.106-0.105l0.318,0.213l-0.105,0.105l-0.319,0.104l-0.215,0.218v0.104l0.428,0.107h0.106l0.211,0.318h0.107v0.104h0.109L86,5.539
	l0.106-0.213l0.106-0.317l0.213-0.218l0.109-0.104h0.105l0.107,0.104l-0.107,0.535h0.107h0.104l0.213-0.105h0.215l0.107-0.107
	l0.211,0.107v0.105v0.213v0.215l0.106,0.107h0.215l0.213-0.107l0.318,0.107h0.106h0.11l0.317-0.218h0.107v0.218L88.88,5.967
	l0.105,0.107v0.104l0.213,0.107l0.109,0.105l0.213-0.105h0.317l0.216,0.105v0.215h-0.106h-0.533h-0.106h-0.109v0.107v0.104
	l0.216,0.107h0.211h0.322l0.319,0.32v0.107v0.105l-0.429,0.322l0.109,0.105h0.213l0.213-0.105l0.212-0.109h0.11L90.8,7.781v0.53
	l0.213,0.322h0.213V8.528l-0.106-0.322l0.106-0.107V7.994h0.32h0.213v0.104l-0.213,0.535l0.106,0.105l0.213-0.105l0.215-0.105
	l0.318,0.318h0.106h0.106V8.739V8.634l-0.213-0.215V8.206h0.213l0.534-0.107v0.107l0.212,0.105l0.215,0.217h0.107l0.105-0.109
	l0.107-0.32l0.105-0.104h0.216l0.211,0.104v0.107L94.32,8.419l0.104,0.215h0.107h0.105h0.107l0.108-0.105V8.206h0.213h0.106v0.105
	h0.104l-0.211,0.64l0.106,0.107h0.212L95.6,8.739h0.213h0.105v0.107v0.104l-0.105,0.43l0.105,0.211l0.107,0.107h0.104l0.11-0.213
	V9.381h0.105V9.273l0.213,0.107l0.429-0.107h0.317l0.106,0.213h0.106v0.428l0.109,0.107l0.105,0.104h0.107v0.107l0.317,0.32v0.213
	v0.107h0.215l0.107-0.213l0.105-0.107l0.107-0.109l0.212-0.105l0.216,0.105v0.109l-0.106,0.425l0.211,0.107l0.213,0.215l0.322-0.215
	l0.213,0.105h0.104v0.109v0.213l0.107,0.105l-0.107,0.107v0.21l0.322,0.109l0.213-0.109l0.105,0.217v0.213l0.319,0.213l0.109,0.215
	l0.105,0.104l0.106-0.104l0.106-0.107l0.213,0.107h0.321l0.212,0.212l0.321,0.213h0.319v0.105l0.105,0.322v0.104h0.106l0.321-0.104
	h0.106l0.213,0.104l0.105,0.107l-0.105,0.322l0.105,0.105h0.322v0.105v0.212v0.218l0.212,0.212l0.321,0.211v0.322v0.107l0.107,0.104
	v0.105h0.212l0.105-0.317l0.106-0.105l0.109,0.105l0.106,0.212l0.425,0.213h0.215l0.106,0.105l-0.106,0.217l0.213,0.213
	l-0.106,0.104l0.534,0.105l0.212,0.217v0.105v0.107v0.213l-0.105,0.215l-0.217,0.104l-0.104,0.107l0.321,0.105l0.105,0.107
	l0.106,0.213l-0.106,0.319l0.106,0.107h0.106h0.105l0.322-0.319h0.106l0.211,0.319v0.105l0.429-0.105v0.105h0.106l-0.106,0.217
	l0.106,0.318l-0.106,0.212v0.11l0.213,0.104l0.105-0.215l0.11,0.11v0.104l0.104,0.105v0.32v0.322h0.107l0.533,0.317h0.213h0.107
	v0.322l0.211,0.105l0.106,0.107l0.215,0.317l-0.105,0.322l0.317,0.105l0.322,0.317l-0.109,0.217l0.109,0.213h0.213l0.213-0.213
	h0.105l0.216,0.213l0.211,0.32l0.213,0.107l0.107,0.104h0.108h0.106v-0.319h0.106h0.106l0.317,0.107h0.429h0.211l0.218,0.212
	l0.104,0.107h0.213h0.428l0.107,0.213h0.104h0.106l0.106-0.32l0.109-0.104h0.105l0.107,0.104v0.426v0.215l0.105-0.105h0.105
	l-0.105-0.322h0.105l0.106-0.105h0.216l0.212,0.105l0.107,0.107v0.105h0.105l0.212,0.109l0.322-0.109v-0.105h-0.107l-0.104-0.107
	l0.317-0.213v0.107l0.213,0.428l0.109,0.105l0.106-0.105l0.211-0.215h0.107l0.105,0.105h0.109h0.106l0.213,0.322v0.317l0.106,0.109
	l0.322-0.109l-0.11-0.213l-0.212-0.317h0.104l0.107-0.215l0.215-0.107v-0.105l0.106-0.107v0.107l0.213,0.105v0.107l-0.106,0.105
	l-0.106,0.215v0.107h0.213l0.211,0.212l0.216-0.212l0.213,0.104h0.106h0.428l0.106-0.104l0.105-0.213l0.106-0.109l0.216,0.109
	l0.213-0.109v-0.105l0.105-0.107h0.105l0.106,0.213h0.11h0.104l0.107,0.215l0.105,0.212l0.213-0.104l-0.105-0.107l-0.107-0.105
	l0.107-0.109h0.105l0.322,0.215h0.104l0.107-0.105h0.105l-0.105-0.215v-0.107l0.213,0.107l0.108-0.107l0.213,0.107h0.106h-0.106
	l-0.321,0.105l0.215,0.109v0.213v0.104v0.107h0.425l-0.107,0.105l0.107,0.109l0.215-0.322l0.213,0.107l-0.106-0.107v-0.212h0.106
	l0.105,0.319h0.107l0.104,0.105l0.11,0.109l0.106-0.109l-0.106-0.105l0.106-0.212h-0.106l0.212-0.107v-0.105h0.106v0.425
	l-0.106,0.105l0.106,0.109l0.319-0.109v0.109h0.109l-0.109,0.105l0.215,0.213l-0.215,0.212l-0.107,0.218h0.107l0.215,0.104
	l0.106,0.318l0.105,0.107l0.106-0.107v0.107v0.109v0.105v0.212h0.216l0.105,0.213l-0.105,0.105l-0.109,0.109h-0.106v-0.109h-0.106
	h-0.212l-0.428,0.109v-0.215l-0.213,0.215h-0.105l-0.106-0.109v-0.213l-0.11,0.107h-0.104l-0.107,0.215l-0.105,0.107l-0.106,0.105
	l0.106,0.107l-0.106,0.104h0.106l-0.213,0.105l-0.104,0.109h-0.11v0.107h0.11v0.213h0.104l0.106,0.105h-0.211l-0.11,0.104v0.107
	v0.11h-0.107v-0.218h-0.317h0.106h-0.213v0.107v0.215l-0.108,0.213l0.108,0.107l-0.216,0.105v-0.105h-0.105l0.213-0.32l-0.107-0.104
	l-0.105,0.104h-0.107l-0.104-0.104v-0.11l-0.106,0.11h-0.216l-0.105,0.212v0.213l0.212,0.105h-0.106v0.109l-0.105,0.105
	l-0.213-0.105v0.105v-0.105l-0.107,0.105v0.107v0.104l-0.104,0.107h0.104v0.105v0.107h0.107v0.215l-0.212-0.107v0.32v0.104h0.104
	l-0.104,0.428l0.212-0.105v0.105h-0.107v0.107l-0.104,0.105l-0.11,0.107l0.322-0.107v0.212l0.105-0.104h0.213h-0.105v0.104h-0.107
	v0.11h-0.105v0.107v0.105l-0.212,0.104l0.104,0.107l-0.215,0.105l0.11,0.107h0.317h-0.105v0.215h-0.107v0.317l0.213,0.107
	l0.107,0.109l0.212,0.105l-0.212,0.107l-0.107-0.107v0.107v0.211l-0.105-0.105l-0.107,0.105v0.217l-0.215,0.213l0.322-0.107h0.105
	v0.107h-0.105v0.104h-0.107v0.107l-0.104,0.105v0.104l-0.748,0.323h0.32v0.107v-0.107l0.317-0.105h0.11h0.104l0.107-0.107h0.105
	v0.107h-0.213l0.107,0.105h-0.107h-0.104l0.104,0.107v0.104h-0.215v0.213h0.11l-0.11,0.109v0.213h0.11h-0.11h-0.212h-0.105
	l0.105,0.213l-0.105,0.104v-0.104h-0.107h-0.321l0.108,0.104v0.215v0.107h-0.215v0.105l-0.105,0.107l0.105,0.105l0.106,0.109h-0.212
	l-0.106-0.109l-0.105,0.109h-0.107h-0.109l-0.105,0.105v-0.215l-0.213,0.215v-0.105l-0.106-0.109h0.106h-0.212v-0.105l0.212-0.107
	V35.19h0.106h-0.213l-0.216,0.105v0.107v0.105v0.109h0.11v0.213h0.105h-0.105v0.104v0.32l0.105-0.107l-0.105,0.107l0.105,0.109
	l-0.216,0.105l0.11-0.215l-0.321,0.215v-0.105v-0.109h0.106l0.104-0.213h-0.317v-0.107h-0.213l0.106-0.104h-0.211v-0.107
	l-0.218,0.212h0.218l0.104,0.107v0.105l-0.322,0.107h0.107l-0.107,0.109h0.107l0.11,0.105h-0.11l-0.318,0.213h0.106h0.104v0.104
	h0.218h-0.11v0.322l-0.107,0.107h0.107v0.105l0.11,0.105v0.107h0.104v-0.213l0.106-0.105v0.105h0.106v0.105l0.213,0.107h-0.106
	l0.106,0.104h0.215l0.105,0.11v0.107h0.106h0.106l-0.106,0.104h0.318v0.107l-0.105,0.105h0.215l0.213,0.105l-0.428-0.641h-0.213
	l-0.212-0.212l-0.215-0.211h-0.106l-0.106-0.43h0.106h0.106h0.215l0.318-0.104h0.106v-0.107h0.322l0.105-0.105l0.427-0.215
	l0.107,0.109l0.213-0.109l0.211-0.107l0.106-0.213l0.11-0.104h0.212v0.104h0.105h0.107l0.105,0.107h0.216l0.211,0.105l0.32,0.107
	h0.215l0.106,0.215v0.105h0.106l0.104,0.107h-0.104v0.104l0.212,0.107l-0.107,0.105v0.109h0.107h0.11h0.104l0.106,0.107v0.105
	l0.106-0.105v0.105h0.213h0.104l0.322,0.213h0.106l0.212-0.107l0.107,0.107v0.104l0.109,0.11v-0.11v0.11h0.105l-0.215,0.107v0.104
	h0.109h0.105h0.318l-0.318,0.318v0.217l-0.322,0.317l-0.853,0.958l-1.813,2.667l-0.212,0.322l-0.107,0.213l-0.213,0.213
	l-0.104,0.215l-0.428,0.853l-0.429,0.853l-0.424,0.747l-0.322,0.745l-0.213,0.322l-0.64,1.492l-0.428,0.958l-0.212,0.535
	l-0.213,0.534l-0.64,1.705l-0.213,0.533l-0.215,0.534v0.213l-0.213,0.322l-0.107,0.423l-0.427,1.283l-0.318,0.744l-0.429,0.748
	l-0.533,0.963l-1.17,1.492l-0.535,0.744l-1.388,2.027l-1.707,2.346l-0.106,0.213l-0.959,1.494l-0.428,0.639L108.08,67.4l-0.75,0.852
	l-0.531,0.641l-0.747,0.639l-0.322,0.215l-1.386,1.172l-1.28,1.174l-0.853,0.641l-0.212,0.32l-0.534,0.639l-0.428,0.533
	l-1.172,0.852l-1.173,0.963l-1.065,0.748l-0.962,0.529l-1.492,0.855L93.68,78.92l-1.492,0.852l-1.068,0.746l-0.642,0.535
	l-0.853,0.852l-1.492,1.598l-0.105,0.322v0.426l-0.322-0.426l-0.317,0.107l-0.535,0.428l-0.533,0.318l-0.642,0.746l-0.53,0.641
	l-0.746,1.066l-0.534,0.961l-0.427,1.063l-0.747,1.922l-0.105,0.533l-0.322,1.492l-0.318,1.07L81.2,95.877l-0.64,1.066l-0.746,1.6
	l-0.429,0.746l-0.53,0.748l-1.175,1.492l-0.961,0.852l-3.839,3.096l-1.704,1.492l-1.496,1.172l-0.425,0.32l-1.603,1.068h-0.105
	l-0.212,0.107l-0.106-0.107h-0.213h-0.108l-0.107-0.105v-0.109l-0.105-0.32v-0.211l-0.107-0.107l-1.279-0.109h-0.105v-0.105
	l0.105-0.107l-0.105-0.105v-0.107l-0.107-0.215l0.107-0.104l0.105-0.213l-0.213-0.213l0.107-0.215l0.105-0.107v-1.064l0.212-1.174
	l0.11-1.705l-0.322-1.602l0.105-1.6l1.069-1.598l1.492-0.857l0.746,0.109l0.959-1.176l-0.959-0.318l0.319-0.32l0.109,0.213h-0.109
	l0.109,0.107h0.105l-0.215-0.32l1.602-0.746l0.424-0.639l-0.105-0.107l0.322-0.322l0.957-0.211l0.213-0.535l-1.598-1.387v0.107
	l-0.107-0.107l-0.105-0.105l-0.534-0.107l-0.318-0.211l-0.109-0.43l-0.425,0.107l-0.105,0.215h-0.109l-0.107-0.109l-0.105-0.105
	l-0.319-0.213l-0.216-0.107l-0.212,0.107h-0.105l-0.213-0.322h-0.109l-0.213,0.215l-0.317-0.215l-0.106-0.104V90.33h-0.108
	l-0.107,0.107l-0.213-0.426l-0.211-0.322v-0.105l-0.11-0.213v-0.107v-0.215h-0.105h-0.105h-0.425l-0.217,0.105v-0.105l-0.105,0.105
	l-0.318-0.211v-0.107h-0.216l-0.106-0.211l-0.317-0.105v-0.217l-0.217-0.105l-0.212-0.213V87.77v-0.107l-0.533-0.213l0.104-0.105
	l0.11-0.428l-0.11-0.211v-0.213l-0.211-0.109v-0.105h0.106l0.104-0.213l-0.211-0.107v-0.211l-0.213-0.109l-0.106-0.213v-0.32
	l-0.215-0.318l-0.107-0.107v-0.105h-0.104l-0.106-0.107l0.106-0.105l-0.213-0.109v-0.105l-0.106-0.107l0.106-0.318h-0.322
	l0.109-0.109v-0.107l-0.215-0.422l0.105-0.107l-0.105-0.111l0.215,0.111l0.106-0.111l-0.321-0.104v-0.213h-0.212v-0.105
	l-0.106,0.105l-0.106-0.105l-0.215-0.107l-0.107,0.107v-0.107h-0.213l-0.215-0.109h-0.106l-0.106-0.105l-0.104-0.213h-0.107
	l0.107-0.105l-0.107-0.107H60.19v-0.215v-0.107v-0.105l-0.216-0.107l-0.106,0.107l-0.317-0.107l-0.107-0.209l-0.215-0.107v-0.111
	l-0.318-0.104l-0.212-0.107h-0.11h-0.105l-0.213-0.213v-0.105h0.106V80.09h0.106v-0.105h-0.106l-0.106-0.107h-0.429l-0.104-0.105
	H57.63v-0.107h-0.106l-0.106-0.105h-0.106h0.106h-0.106h-0.109l-0.105,0.105h-0.107v0.107l-0.211,0.213l-0.106-0.107l-0.215,0.322
	V80.09h-0.213v-0.105l-0.107-0.107h0.107l-0.107-0.105l-0.532-0.213v-0.215l-0.213-0.213l-4.694-3.52l0.107-0.213l-0.107-0.104
	l-0.105-0.111l-0.106-0.211l0.212-0.107V74.76v0.105V74.76l-0.105-0.215l-0.106,0.109l-0.106-0.322l-0.105-0.107l-0.217-0.105
	l0.107-0.107l-0.425-0.641l-0.106-0.104l-0.109-0.111h-0.319v-0.104h-0.104v-0.107l-0.322-0.105v-0.213L48.67,72.52V72.41h-1.387
	l-0.212-0.211h-0.105l-0.107-0.107l-0.109,0.107h-0.212l-0.106-0.213l-0.534-0.107l-0.424,0.213l-0.217-0.105l-0.104,0.105h-0.319
	l-0.106,0.107l-0.322-0.426h-0.104l0.104-0.109l-0.317-0.213L43.87,71.24h0.106l-0.106-0.105h-0.106v0.105h-0.105l-0.318-0.105
	l-0.11,0.105h-0.105v-0.215h0.105l-0.105-0.107v-0.105l-0.318-0.105V70.6l0.105-0.105v-0.109l-0.105-0.107l-0.322-0.105
	l-0.106-0.107l0.106-0.105l-0.106-0.105l-0.211-0.107l0.105-0.109h-0.105v-0.105l-0.107-0.107V69.32v0.104l-0.215-0.104
	l-0.213,0.104l-0.106,0.107h0.106v0.105v0.109l-0.212,0.318l-0.105,0.107h-0.109v0.105v0.107h-0.213l-0.106-0.107l-0.318-0.105
	l-0.11-0.107h-0.212v-0.105h-0.105h-0.106l-0.321-0.213v-0.109h-0.107h-0.104l0.104-0.105l-0.104-0.107h-0.213V69.32l-0.856-0.107
	h-0.105v-0.105h-0.105v-0.535l-0.107-0.105l0.107-0.107l-0.213-0.215h-0.322v-0.105l0.215-0.107l-0.104-0.105l-0.217-0.107v-0.109
	h0.106l-0.106-0.105V67.4l-0.211-0.107L37.259,67.4h-0.105v-0.107h-0.109l-0.106-0.105h-0.106v-0.213h0.106v-0.109V66.76v-0.107
	l0.106-0.213h-0.213l-0.212-0.322v0.109l-0.105-0.109l0.105-0.105v-0.316h-0.105l-0.217-0.107v-0.215h-0.105h-0.106l-0.213,0.104
	h-0.106v-0.104l-0.109-0.107h-0.211l-0.213-0.105l0.106-0.213l0.106-0.109v-0.105l-0.106-0.107h-0.106v-0.213h-0.211l-0.11-0.211
	l-0.318,0.105l-0.106-0.105v-0.109v-0.213l-0.213-0.107l-0.109-0.104v-0.213l-0.318-0.109l-0.105,0.109v-0.109l-0.217-0.105
	l-0.104-0.213l-0.107-0.107v-0.215l-0.105-0.213h-0.107v-0.105h-0.104l-0.11,0.105L32.672,62.6h-0.105v-0.107h-0.213L32.246,62.6
	h-0.108l-0.106,0.105l-0.106,0.215l-0.106-0.105l-0.104,0.213l0.211,0.105h-0.106v0.213l0.213,0.217l-0.106,0.209h-0.106
	l-0.104,0.213l0.104,0.107l-0.104,0.109v0.105h-0.213h-0.216v-0.105l-0.106-0.109l-0.105,0.215h-0.107l-0.104-0.215h-0.11
	l0.11,0.109h-0.11v0.318l-0.105,0.105l0.105,0.107h-0.318v0.105l-0.106,0.217l-0.322-0.107l0.107,0.213l-0.213,0.105h-0.425h-0.109
	v0.107l-0.213,0.322v0.104l-0.317-0.104l-0.106,0.104l-0.216,0.428h-0.213v0.107h-0.105l-0.216-0.217l-0.106,0.109h-0.212
	l-0.105,0.107l-0.106,0.105l-0.322-0.105l-0.318-0.107l-0.215,0.107v0.105l-0.318-0.105v-0.107l-0.107-0.428v-0.744l0.107-0.322
	l0.105-0.107l-0.105-0.105v-0.213v-0.105h-0.107l0.213-0.43l-0.105-0.104v-0.322l0.318-0.426v-0.215L26.485,62.6l-0.106-0.107
	l-0.105-0.318l-0.107-0.109v-0.105h0.107l-0.212-0.107v-0.211v-0.105h-0.216v-0.107h-0.106h-0.106l-0.212-0.109v-0.105V61
	l-0.107-0.105h-0.109l-0.211,0.213h-0.106l-0.106-0.426h-0.106l-0.215,0.105h-0.107v-0.105l0.107-0.217h-0.107l-0.105-0.105
	l-0.212-0.105v-0.211l0.212-0.111v-0.107h-0.212l-0.215-0.211l-0.107-0.211l0.107-0.217l-0.213-0.105l-0.107-0.107l0.213-0.211
	l-0.318-0.107h-0.427l-0.107-0.109l-0.105-0.105v-0.107h0.105v-0.105l-0.212-0.107h-0.106l-0.105,0.213h-0.109v-0.213l0.109-0.104
	l-0.109-0.105l-0.107-0.109l-0.104,0.109h-0.107v-0.109l-0.105-0.213V57.48v-0.105l-0.106-0.107v0.107l-0.216,0.105l-0.317-0.105
	h-0.107V57.16l-0.215-0.107v-0.105l-0.106-0.107h-0.106v0.107h-0.317l-0.11-0.107h0.11v-0.105h-0.216v-0.213l-0.106-0.109v-0.105
	h0.106v-0.21H19.98l-0.106-0.324l-0.105,0.111h-0.217l-0.212-0.219l0.106-0.104l-0.106-0.105l-0.211-0.43l-0.217,0.109l-0.105,0.213
	H18.7l-0.106-0.213l-0.106-0.109v-0.21l-0.216-0.107h-0.424v-0.105l-0.106-0.217l0.213-0.105v-0.317l-0.106-0.107l-0.106,0.212
	l-0.322-0.317v-0.217l-0.317,0.107h-0.106l-0.216,0.109l-0.105-0.109l0.215-0.213l-0.109-0.317l-0.213,0.104L16.354,53h0.107h0.104
	v-0.107l-0.212-0.212l-0.105-0.213h-0.322v-0.105l0.322-0.109v-0.105l-0.109,0.105l-0.106-0.105V52.04l-0.212,0.107l-0.107-0.107
	l-0.215,0.107l-0.212-0.212v-0.213h-0.105l-0.213-0.109l-0.429-0.105h-0.318l-0.105-0.213l0.105-0.319v-0.107L13.9,50.761
	l-0.106-0.213h-0.212l-0.105-0.105l-0.217-0.107h-0.212h-0.318V50.23h-0.215l-0.319,0.425v-0.107l-0.106,0.107v-0.107l-0.109-0.105
	l-0.213-0.107l-0.317,0.107h-0.322l-0.105-0.212h-0.213h-0.427l-0.107,0.104v0.213h-0.213l-0.215-0.105H9.635v-0.107H9.74V50.23
	H9.635l-0.213,0.212l-0.105,0.213h0.105l-0.105,0.105H9.207l-0.319-0.105v0.213h0.213v0.215l-0.213,0.104H8.677l-0.218,0.426
	l-0.211,0.215v0.212H8.035v0.213l0.106,0.109H8.035h0.106v0.105l0.106,0.213l-0.106,0.107l-0.106,0.104H7.93L7.607,53.11
	l-0.105,0.317l-0.213,0.105H6.861l-0.105-0.105V53.32l-0.106-0.105L6.543,53.32v0.107l-0.216,0.213H6.222l-0.107-0.213L5.903,53.11
	L5.797,53l-0.11,0.215l-0.53,0.213l-0.109-0.213L4.94,53.32l-0.318,0.213v0.217H4.517H4.301H4.088v-0.217l0.106-0.105L3.981,53.32
	H3.664l-0.216-0.105H3.129H3.024l-0.11,0.318l-0.425-0.105L2.062,53.32l-0.105-0.21L1.85,53l0.106-0.638L1.85,52.253l-0.746-0.317
	l-0.321-0.107l-0.213,0.107l0.213-0.213h0.745l0.534-0.215l1.067-0.64l0.319-0.32l0.216-0.532l0.317-0.32l0.319-0.322l0.961-0.532
	L5.582,48.415z"/>
</svg>
