<?xml version="1.0" encoding="utf-8"?>
<!-- Generator: Adobe Illustrator 16.0.0, SVG Export Plug-In . SVG Version: 6.00 Build 0)  -->
<!DOCTYPE svg PUBLIC "-//W3C//DTD SVG 1.1//EN" "http://www.w3.org/Graphics/SVG/1.1/DTD/svg11.dtd">
<svg version="1.1" id="Layer_1" xmlns="http://www.w3.org/2000/svg" xmlns:xlink="http://www.w3.org/1999/xlink" x="0px" y="0px"
	 width="214.25px" height="135px" viewBox="0 0 214.25 135" enable-background="new 0 0 214.25 135" xml:space="preserve">
<path id="São_Paulo_1_" fill="none" stroke="#0079FF" d="M2.767,70.894l-0.164-0.16v-0.161v-0.16l0.164-0.317l0.475-0.639
	l0.481-0.475l0.159-0.16L4.837,68.5l0.159-0.16l0.317-0.475l0.956-0.481h0.159l0.159-0.157l1.277-0.317L8.5,66.591h0.159
	l0.323-0.638l0.792-0.639l0.159-0.317l1.279-0.799l0.475-0.157l0.64-0.478l0.956-0.321l0.477-0.317l0.317-0.157l0.479-0.317
	l0.477-0.481l0.797-0.157l0.64-0.317l0.475-0.164l0.159-0.157h0.162l0.161-0.318l0.475-0.478l0.159-0.164l1.115-0.792l0.159-0.481
	l0.164-0.157l0.316-0.318l0.799-1.113l0.635-2.073l0.162-0.481l0.794-0.956h0.321v-0.157l0.317-0.16l0.318-0.481l1.115-0.792
	l0.159-0.481v-0.314l0.481-1.117l0.475-0.317l0.956-0.321l0.159-0.318l0.323-0.317l0.633-1.113v-0.164V47.31l-0.316-0.639v-0.475
	l-0.799-0.638l-0.159-0.318l0.317-0.481l0.323-0.635l0.317-0.157h0.157l0.956,0.157h0.481l0.635-0.318l0.157-0.164l0.323-0.475
	l0.477-0.475l0.157-0.481l0.161-0.475l0.164-0.642l0.949-0.795l0.164-0.161v-0.157v-0.16v-0.157l0.159-0.639l0.159-0.799
	l-0.159-0.157l-0.159-0.956l-0.321-0.478l-0.159-0.157l0.159-0.321l-0.159-0.799l0.159-0.317l0.157-0.157h0.64l0.479-0.161h0.161
	l0.157-0.317l0.476-0.164l0.323-0.792v-0.481l0.317-0.475l0.157-0.481l0.639-0.795l0.317-0.161h0.956h0.161l0.956-0.635l0.157-0.321
	l0.161-1.113l-0.317-0.317l-0.159-0.478v-0.795l0.159-0.799v-0.157V26.28l-0.318-0.481l0.159-0.792l0.797-1.755l0.159-0.157
	l0.159-0.157v-0.164l0.157-0.16l0.161-0.157l1.113-0.639l0.481-0.478l0.159-0.475l0.797-1.277l0.317-0.317l0.639-0.478l0.317-0.164
	v-0.157l0.799-1.431l0.318-0.16l0.157-0.639l0.159-0.161h0.159l0.481-0.314l0.475-0.324l1.438-0.318h0.956l0.635-0.157l0.481-0.161
	h0.157l0.317-0.157l0.321-0.321l0.317-0.161l0.799-0.631l0.157-0.325l0.317-0.956l0.477-1.113l0.64-1.274V9.553l0.795-1.117V8.272
	h0.318h0.16l0.321-0.318l0.475-0.314V7.316h0.317h0.323h0.317l0.477-0.475l0.162-0.161l0.633-0.157l0.481-0.321V6.042h0.317
	l1.274-0.317l1.115-0.317h0.159l0.321-0.157h0.161l0.475-0.799l0.323-0.321l0.316-0.157l0.476-0.635l0.164-0.324h0.316h0.478
	L63.151,2.7l0.317-0.161h0.475l0.323-0.157l0.317-0.16l0.316,0.16l0.481,0.157L65.857,2.7l0.956,1.113l0.479,0.161v0.321h0.477
	l0.317,0.157h0.164l0.633-0.157l0.956,0.317l0.64-0.317h0.476l0.639,0.157l0.159,0.16h0.159l0.481-0.16h0.792h0.157l0.164,0.16
	l0.317,0.157l0.639,0.639l0.161,0.16h0.316l0.317,0.157l1.279-0.157l1.273,0.475l0.317,0.161h0.48h0.476l0.481-0.317l0.949-0.161
	h0.164h0.792h0.161l0.797,0.161h1.596h0.317V5.725l0.48-0.157l0.633-0.16h0.481l0.159-0.157l0.633,0.157l0.481,0.16l0.318,0.635
	l0.157,0.164l0.64,0.631h0.477l1.912,0.161l0.481-0.161l0.475-0.317l0.481-0.157l0.792,0.157h0.164l0.157,0.161v0.317V7.48
	l-0.321,0.161h-0.475L92.15,7.955l-0.323,1.274V9.87v0.157l0.159,0.317v1.277l0.797,1.434l0.159,0.481v0.314l0.639,0.956h0.161
	l0.795,0.161l0.317,0.157h0.161v-0.157l0.956-0.639l0.321-0.317l0.635-1.434l0.639-1.277l0.159-0.157h0.64l0.316,0.157l0.64,0.157
	l0.157,0.324l0.317,0.796l0.159,1.273v0.478l-0.159,2.711l0.159,0.157l1.433,0.956h0.321l0.161-0.157l0.317-0.642v-0.157V16.88
	v-0.157l-0.317-0.799l0.157-0.799l-0.317-0.475v-0.164v-0.475l0.317-0.639l0.318-0.317l0.164-0.161v-0.157l-0.164-0.321l0.164-0.478
	l0.159-0.157l0.477-0.324h0.157h0.956l0.64-0.157l0.476-0.157h0.157l0.799,0.314h0.481l0.157,0.164h0.476l0.48-0.164l0.635-0.632
	l0.321-0.16h0.635l0.481,0.16h0.475h0.639l0.799-0.317h0.317l0.798-0.164l0.633,0.164h0.161h0.32h0.159l0.317-0.164h0.479
	l0.477,0.164l0.317,0.317l0.162,0.157h0.161h0.157h0.476l0.323-0.157h0.157l0.16-0.317v-0.164l-0.799-0.792V9.392l0.158-0.795
	l-0.158-0.161l0.158-0.164h0.48l0.16,0.164l0.315,0.161l0.48,0.795l0.16,0.478l0.157,0.157h0.16h0.157l0.158,0.481l0.48,0.157
	l0.317,0.317l0.481,0.161h0.475l0.64-0.318l0.159-0.481l0.475,0.164l0.322-0.481l0.159-0.317l0.159-0.318V8.597l0.158-0.161h0.157
	l0.641,0.475l0.158,0.799l0.317,0.475l0.639,0.324h0.159l0.479-0.481l0.16-0.317V9.392V9.071l0.157-0.317V8.597l-0.157-0.161h-0.16
	V8.272V8.115V7.955l0.16-0.157l0.318-0.481h0.156l0.323,0.164l0.794-0.321h0.795l0.481,0.157l0.318-0.157l0.475-0.161h0.16
	l0.795,0.642v0.157v0.157l0.325,0.318l0.156,0.164l0.318,0.318l0.317-0.157h0.32l0.477-0.481V7.641l0.317-0.161h0.641V7.316
	l0.315-0.157h0.641l0.315-0.317h0.323l0.157-0.161l0.16-0.157v0.157l0.475,0.478l0.322,0.321l0.159,0.318v0.157v0.161l-0.322,0.157
	v0.164v0.318l0.64,0.317l0.157,0.481h0.16h0.639l0.317,0.475h0.321l0.317,0.317l0.639,0.164l0.317,0.635l0.477,0.157h0.158
	l0.164,0.321V12.1h0.157l0.159,0.317l0.317,0.478v0.161l-0.317,0.795h-0.159l-0.321,0.478h-0.158l-0.159,0.321v0.475h-0.158v0.318
	v0.16h-0.159l0.159,0.164l-0.316,0.157l0.157,0.475v0.16v0.164v0.157h0.159l-0.159,0.317l0.159,0.157l-0.159,0.16h0.159
	l-0.159,0.157h0.159l-0.159,0.164v0.16h0.159v0.157l-0.159,0.161v0.157l0.477,0.321h0.322l0.157,0.317l0.477,0.161l0.479,0.475
	h0.317l0.317,0.164l0.639,0.157l0.161,0.317h0.156v0.318l0.159,0.321l-0.159,0.161l0.318,0.635h0.163v0.161v0.161v0.157l0.318,0.161
	v0.157v0.324l0.317,0.157v0.157v0.161l-0.161,0.317v0.321l-0.156,0.317l-0.161,0.157v0.16h-0.795l-0.318-0.16l-0.16,0.16v0.157
	l-0.321,0.324l0.159,0.318h-0.159l-0.158,0.638l-0.159,0.157h-0.157l-0.16,0.475l-0.321,0.161l0.321,0.638l-0.321,0.639
	l-0.317,0.795l0.317,0.639l0.321,0.317h0.477v0.321l0.158,0.317h0.321l0.16,0.317l0.318,0.157l0.156,0.161l-0.156,0.478v0.317
	l-0.161,0.161l0.161,0.478l0.156,0.478l0.159,0.321l-0.159,0.475h0.159l0.159,0.161l0.481,0.157v0.164h-0.318v0.161v0.157
	l-0.322,0.161l0.479,0.475l-0.157,0.481l0.157,0.157v0.16l0.317,0.478l0.161,0.318v-0.157h0.157h0.481h0.156l-0.156,0.157v0.16
	l-0.159,0.157v0.321l0.315-0.16l0.161,0.321h0.157v0.157l0.163,0.317v0.321v0.161l0.318,0.317l-0.159,0.157h0.159l0.158,0.317v0.164
	l0.159,0.317L146,40.14l0.162,0.161L146,40.457l-0.16,0.164l0.16,0.317l-0.16,0.318h-0.157l0.157,0.317v0.164h-0.157l0.157,0.157
	H146l0.162,0.161l0.159-0.161v0.161l0.317-0.161h0.157h0.16l0.157,0.161l0.164-0.161l0.317,0.161l0.158-0.161l0.159,0.161v-0.161
	h0.321l0.16-0.157h0.157l0.158-0.164l0.477-0.161v-0.157h0.164v-0.161h0.317l0.157-0.157v-0.157l0.158-0.161h0.323l0.635,0.161
	l0.157-0.161l0.159-0.164h0.322h0.157l-0.157,0.325l0.157,0.157l0.477,0.318h0.322v-0.161l0.157,0.161l0.16,0.317l0.317-0.478
	l0.157-0.157l0.164-0.157h0.159l0.158-0.325h0.157h0.317v0.325v0.157v0.157v0.161l0.164,0.157l0.159,0.325h0.158l0.159,0.157v0.161
	h0.158l-0.158,0.157l0.158,0.157l0.318,0.161v-0.161l0.638-0.314v0.157l0.318,0.157h0.32l0.317,0.161h0.159h0.159v0.164v0.157
	l0.158,0.161v0.317l0.162,0.157l-0.32,0.321v0.318l-0.159,0.16l0.159,0.314l0.158,0.16l0.323,0.321v0.16h-0.161l-0.162,0.157v0.161
	l-0.158,0.321v0.157l-0.159,0.16l0.159,0.157v0.161l-0.318,0.157v0.321h-0.317l-0.164,0.161l0.164,0.317h-0.164l-0.315,0.157v0.481
	l-0.317,0.157l-0.956-0.157v0.317l-0.159,0.157v0.161l0.159,0.321l-0.159,0.317v0.157V49.7v0.481v0.157h-0.317l-0.164,0.157h-0.157
	l0.157,0.317l-0.475,0.481v0.161l-0.317,0.157l-0.164,0.317l0.164,0.321h0.159h0.158l0.317,0.478v0.157l0.157,0.157l-0.157,0.324
	l-0.16,0.157h-0.157l-0.158,0.16l0.315,0.318l-0.157,0.321l0.317,0.157v0.317l0.321,0.481l0.159,0.157h0.158l0.159,0.317
	l0.158,0.161v0.157v0.164v0.157h-0.158l-0.477-0.321l-0.164,0.164h-0.157v0.157l-0.16,0.16l-0.315-0.16v0.16h-0.159l-0.164,0.318
	l0.323,0.317l0.315,0.164v0.157l-0.475,0.157h-0.321l-0.317,0.161l-0.16-0.161h-0.157v0.161v0.157l0.157,0.161h0.16h0.157h0.16
	h0.157h0.164l0.317,0.164l0.475-0.164l0.323,0.321l0.317,0.161l0.158,0.475h0.318v0.164l-0.318,0.317l-0.635,0.157l-0.164,0.475
	h-0.317h-0.157h-0.158l0.158,0.164l-0.317,0.796l0.159,0.157l-0.48,0.321l0.157,0.317l-0.157-0.157l-0.16,0.318l-0.157,0.157v0.164
	l0.157,0.157l-0.157,0.16l0.157,0.318l-0.317,0.317h-0.157l0.157,0.161h0.16v0.16h0.157v0.157l0.16,0.161v0.157v0.161h0.157v0.164
	h0.164l0.159,0.314h0.315l-0.157,0.317l0.157,0.161l-0.157,0.481v0.157l0.475,0.157v0.161h0.164l0.159,0.157l0.476,0.164v-0.164
	l0.318,0.164h0.163h0.316l0.158,0.161v0.157l0.159-0.157h0.315l0.164,0.157l-0.164,0.16v0.157h0.164l0.317,0.157v0.324l-0.156,0.157
	l0.795,0.317V68.5l0.317-0.16l0.159,0.16h0.479h0.317v0.321h0.318v0.16l0.317,0.157h0.164l0.156-0.157v0.317l-0.479,0.479v0.317
	h0.479l-0.32,0.317l0.481,0.481l-0.481,0.157v0.16l0.164,0.157h0.317l0.157,0.16l0.16,0.157v0.321l-0.317,0.16h-0.161l0.161-0.16
	l-0.161-0.157l-0.156,0.157l-0.323-0.157l-0.158,0.157l-0.475,0.16v0.157l-0.323-0.157l-0.158,0.157v0.16l0.158,0.157l-0.158,0.164
	l0.158,0.16h0.323l0.156,0.475h0.318v0.157l0.317,0.161v-0.161l0.481,0.324h0.317l0.157-0.163v0.163h0.158l0.323,0.475l0.157-0.16
	h0.478v0.16l-0.16,0.157v0.161h-0.157v0.156l-0.317,0.164l-0.323,0.636v0.32l0.164,0.161l-0.164,0.156l0.164,0.475h-0.322v0.161
	h0.158v0.164l0.164,0.156l0.159,0.318l0.475,0.16l0.16-0.16l0.479-0.157l0.477,0.157l0.321-0.475h0.317h0.158v0.317h0.316
	l0.164,0.157l0.158-0.318l0.794-0.32l0.164-0.161l0.157,0.161l0.799-0.161l0.157-0.156v0.156l0.16,0.481v0.161l-0.16,0.475
	l-0.157,0.164l0.317,0.156l0.316-0.32h0.322l0.317-0.317l0.475-0.157l0.639,0.157l0.479-0.318l0.479,0.161l0.158-0.161l0.318-0.156
	v-0.164l0.32-0.161l0.317-0.156l0.157-0.157l0.161-0.161h0.32l0.317-0.317v-0.164l0.317-0.156h0.157l-0.157,0.32v0.161h0.318v0.156
	v0.318h0.163v0.156v0.325h0.157l0.318-0.164h0.158v-0.161V76.47h0.159l0.157-0.317h0.163h0.317v-0.161l0.318,0.161v-0.161
	l0.32,0.161v0.317l0.161,0.157h0.156l0.318-0.157l0.158-0.161v-0.156l-0.158-0.8h0.317l0.164-0.317l0.156,0.161l0.161,0.313h0.157
	l0.158,0.161h0.323V75.51h-0.164l-0.159-0.157l-0.158-0.156v-0.161l0.158-0.32h0.159l0.164-0.161v-0.317h-0.164v-0.314l-0.317-0.481
	h0.158h-0.158h-0.475h-0.164l-0.475,0.157l-0.479,0.161h-0.162l-0.317-0.318l0.159-0.635l0.638-0.164l0.161-0.157l0.475-0.16v-0.157
	h0.164l0.156-0.16V71.85h0.318l0.317,0.157l0.164-0.157l0.475-0.164h-0.157v-0.157l-0.317-0.16l-0.164-0.475h-0.317v-0.16
	l-0.157-0.161l0.157-0.16l0.158-0.157v-0.16l0.159-0.157l0.481,0.157l0.475-0.317l0.322,0.16v0.157l0.159,0.317h-0.159l-0.164,0.321
	h0.164l-0.322,0.317v0.16l-0.157,0.157l0.315,0.317h0.164l0.316-0.157l0.799-0.16l0.317-0.475h0.317l0.157-0.16h-0.157l0.321-0.321
	v0.321h0.317l0.159,0.317l-0.477,0.317l-0.164,0.16v0.157l0.164,0.164l0.635-0.164h0.157l0.164-0.157h0.16l0.634-0.478l0.322,0.16
	l0.316-0.799l-0.159-0.157h0.159l0.476,0.317h0.164l0.157,0.161l0.16,0.16h0.316l0.158,0.157l0.159,0.16l-0.159,0.475h0.321h0.16
	l0.475-0.317h0.317l0.164-0.317h0.317l0.157-0.157l0.799-0.16l0.475,0.16l0.164-0.16h0.159v-0.161l0.158-0.317l-0.158-0.16
	l0.794-0.481h0.162l0.317-0.157h0.159l0.638-0.157l0.318-0.317l-0.159-0.16v-0.157l0.159-0.164l0.317-0.317h0.157l0.324-0.157
	l0.157-0.16h0.158l0.317-0.157l0.159-0.164l0.321,0.164l0.476-0.324l0.48-0.157l0.317-0.157v0.157h0.317h0.322h0.159l0.633,0.157
	l0.164-0.157l0.477-0.317h0.639h0.317l0.157-0.481l0.317-0.157l0.164-0.161h0.158l0.159,0.161h0.317h0.157l0.324-0.161l0.316-0.157
	v-0.157h0.633l0.324,0.157h0.316l0.317,0.317l0.322,0.321l0.157,0.635v0.157l-0.157,0.324l0.157,0.157h0.159v0.16v0.314h0.317
	l0.162,0.16h0.16l0.157,0.164l0.161,0.317l-0.161,0.157v0.317l0.477-0.157l0.159,0.157l0.163-0.157l0.157,0.157l-0.157,0.481v0.157
	v0.478h0.157l0.161,0.161l0.156-0.161l0.318,0.321l0.158-0.16v-0.161l0.164,0.161l0.159,0.317h0.156l0.318-0.639l0.16,0.321
	l0.321-0.161l0.317,0.321h0.157h0.16l-0.317,0.317v0.157h0.157l-0.157-0.157h0.157h0.324l0.157,0.157h0.158l0.477-0.635
	l-0.159-0.161h0.159l0.157,0.161l0.322,0.16l0.159-0.16h0.158l0.159-0.161l0.317-0.16h0.321l0.158,0.16h0.159v-0.16l-0.159-0.157
	v-0.16l0.317-0.157v-0.16h0.159l0.321,0.16h0.16h0.157l-0.157,0.317h0.157v0.479h0.158h0.159l-0.159-0.321v-0.157l0.159,0.157
	v-0.157v-0.16l0.164,0.16l0.317-0.16l0.157,0.317l0.16-0.157l0.157,0.157h0.159h0.163l0.159,0.321v-0.161l0.317-0.16l0.475,0.321
	l0.164-0.161h0.317h0.157l0.16,0.321l0.157-0.16h0.164v0.317l0.159,0.16h0.158l0.157,0.157l-0.157,0.16l0.317,0.321l0.321,0.317
	v0.157v0.16l-0.164,0.157h-0.157v0.324l-0.16,0.157l-0.315,0.157h-0.159v0.16h0.159l-0.159,0.157h-0.481l-0.475,0.481l0.159,0.157
	h-0.323l-0.157,0.317v0.161l0.157,0.156l-0.157,0.164h0.321v0.161v0.156h-0.321l-0.317,0.639l-0.317,0.161v-0.161h-0.322
	l-0.477,0.317v0.161h-0.157l0.157-0.161l-0.157-0.156l-1.116,0.475h-0.321h-0.159h-0.158V76.47h-0.317h-0.157l-0.164,0.157
	l-0.16,0.317l-0.157,0.164h-0.159l-0.476,0.156v-0.156h-0.164v-0.164h-0.157l0.157-0.317l-0.157-0.157h-0.317h-0.159l-0.315,0.313
	l-0.324,0.161l-0.316,0.32l-0.317,0.161l-0.479-0.317l-0.477,0.317h-0.164l-0.633,0.317l-0.161,0.157v0.164l-0.479,0.317
	l-0.315-0.317l-0.318,0.475h-0.16h-0.162h-0.159l-0.158-0.157l-0.159,0.157l-0.479,0.317l-0.317,0.32l0.158,0.161l-0.158,0.157v0.16
	h-0.159h-0.157h-0.324h-0.157h-0.158v0.157v0.16l-0.159,0.164l0.159,0.157l-0.159,0.317h0.159v0.157l-0.159,0.16v0.321l-0.158,0.157
	v0.16l-0.159,0.157v0.16v0.157v0.164l-0.157,0.16h0.157v0.157h0.159l-0.159,0.317h0.159l-0.159,0.157l0.159,0.16l-0.316,0.164
	l0.157,0.157l-0.321,0.16l0.164,0.314l-0.164,0.16h-0.317l-0.158,0.164h-0.159v0.157h-0.159l-0.322,0.16v0.157v0.16l-0.157,0.157
	v0.321l-0.16,0.16l0.16,0.157h0.157v0.475h0.481l0.475,0.164l-0.157,0.16l0.317,0.157v0.16l0.164,0.157l-0.164,0.161l0.48-0.161
	v0.161l0.476,0.156v0.164l0.157,0.317v0.157l0.164,0.317h-0.164l0.481,0.164l0.317,0.317h0.159l0.162,0.157l0.16,0.161h-0.16h-0.321
	l-0.799,0.156l-0.157-0.156h-0.158h-0.159v0.156l-0.158,0.161h-0.316l-0.164,0.164h-0.317h-0.158l0.158-0.164l0.157-0.317
	l-0.475-0.161h-0.317l-0.481,0.317v-0.317v-0.157l0.16-0.16l-0.16-0.321h-0.475l-0.164,0.321l-0.157,0.16h-0.478l-0.157,0.157v0.317
	l-0.159,0.161h-0.164l-0.158,0.164v0.156l-0.157,0.157l-0.16-0.157h-0.157l-0.322,0.318l-0.159,0.156h-0.475l-0.317,0.318v-0.157
	l-0.164-0.161l-0.159,0.161l-0.158,0.157h0.158h-0.158v0.163v0.318l0.158,0.156l0.159,0.161l0.321-0.317h0.16v0.317h0.317h-0.317
	h-0.317l-0.164,0.157h-0.159h-0.158l-0.157,0.481v0.156h0.157l-0.317,0.318v0.324l-0.157-0.161V92.08h-0.323l-0.158,0.161
	l0.158-0.317h-0.158l-0.159,0.156l-0.315,0.161l0.475,0.157l-0.159,0.163h0.159v0.161l-0.159,0.157v-0.157h-0.158v-0.161
	l-0.318-0.163l-0.163,0.163l0.163-0.32h-0.32V92.08l-0.317,0.161l-0.159-0.161h-0.159v0.161v0.157l0.318,0.163l-0.159,0.318h0.159
	v0.317h-0.159h-0.159h-0.163h-0.157V93.04v-0.16l-0.161-0.157l-0.475,0.157l-0.32,0.317v0.157l0.32,0.16v-0.16v0.16v0.321h0.159
	h-0.159l0.159,0.16v0.157h-0.159h-0.481l-0.156,0.317h-0.318h0.159l-0.159-0.157l-0.158,0.314v-0.314h-0.323h-0.156l0.156-0.16
	l-0.156-0.157h-0.161h-0.157l-0.481,0.157l-0.475,0.317l-0.481,0.639v0.16l-0.317,0.157l-0.157-0.157l-0.317,0.157h-0.16V95.27
	h-0.162l-0.317,0.157l-0.316,0.481v0.799l0.157,0.475l0.159,0.475h0.158h0.321v0.324l-0.321,0.314l0.321,0.642v0.475v0.317
	l-0.162-0.16v0.16v0.164l-0.317,0.157l-0.316,0.16l-0.16-0.16l-0.157,0.16v-0.16l-0.481-0.157l-0.317,0.317h-0.157l-0.164,0.157
	h-0.158v0.157h-0.317v-0.314h-0.477v-0.317l-0.164-0.164h-0.315v-0.317l-0.159-0.16h-0.639l-0.16,0.16l-0.475,0.157h-0.159
	l-0.162-0.157l0.162-0.317h-0.322h-0.157v-0.157h-0.317l-0.159,0.157v-0.157h-0.164h-0.315l-0.16,0.157l-0.157-0.321h-0.161h-0.156
	h-0.164h-0.317h-0.639v-0.16h-0.159l-0.794,0.16v-0.16l-0.32-0.157h-0.799l-1.274,0.157l-1.748,0.481l-0.32,0.157l-0.161,0.317
	l-0.315-0.157l-0.479,0.317l-0.161,0.164v0.157l-0.157,0.16h-0.16l0.16-0.16l-0.16-0.157l-0.157-0.164l-0.481,0.164l-0.956,0.475
	l-0.317,0.157v0.324h-0.157l-0.16,0.157l0.477-0.157l-0.159,0.157l-0.157,0.317v0.317l-0.317,0.157v0.164h0.157l-0.157,0.16h-0.164
	l-0.477,0.318v0.317l0.159,0.157l0.159-0.157v0.157h0.158l-0.158,0.163l-0.159,0.157l-0.317,0.161v0.317v0.32h0.158h-0.315
	l-0.164,0.157v0.161l-0.16-0.161l0.16-0.157h-0.317h-0.799l-0.316,0.318l-0.158,0.156l0.158,0.161h-0.158h-0.159l-0.158,0.157v0.32
	l-0.157,0.317v-0.156l0.157-0.318l-0.157-0.163l-0.164-0.157l-0.16,0.157l-0.157,0.163v-0.163h-0.159h-0.158v-0.475l0.317-0.161
	l-0.159-0.32l-0.158-0.157l-0.481-0.161h-0.317h-0.316v0.161v0.157l-0.164-0.318h-0.158l-0.157,0.161h0.157l0.158,0.32v0.157h-0.315
	v0.161v0.156l0.157,0.161h-0.157v0.157l-0.16,0.32h-0.157l0.157-0.32l-0.475-0.157l-0.956,0.157l-0.956,0.481l-2.555,1.112
	l-2.387,1.435l-1.912,0.956l-0.317,0.317l-0.481,0.164l-1.591,1.113l-1.115,0.635L146,112.318v0.16v0.475l-0.16,0.16l-0.316,0.321
	l0.159,0.157l0.157,0.16v0.157H146l-0.16,0.16l0.16,0.157h-0.16v0.164l-0.157-0.164l-0.159,0.164v0.16h-0.158l-0.481,0.157
	l-0.634,0.317l-0.322,0.317l-1.115,0.796l-0.956,0.642l-0.159,0.157v0.317l-0.317,0.157l-0.639,0.481v0.161l-0.635,0.156
	l-3.345,2.073H136.6v0.157l-0.794,0.481l-0.163,0.317l-1.115,0.317l-0.956,0.639l-2.072,1.273l-0.793,0.639l-2.867,2.229
	l-1.597,1.595l-0.794,0.952l-0.157,0.481l-0.164,0.475h-0.475v0.164l0.157,0.475l0.159,0.16v0.157v0.324l-0.316,0.314l-0.16,0.642
	v0.157h0.16v0.161v0.156v-0.156h-0.16h-0.157l-0.481,0.313l-0.639,0.643l-1.273,0.956l-1.591,1.748h-0.159v-0.317l0.317-0.318
	l1.433-1.273l-0.158-0.164l0.158-0.156h-0.158h-0.159l-0.159,0.156l-0.315-0.156v0.156v0.164v0.161h-0.324l-0.157,0.156
	l-0.159-0.156l-0.317,0.156l-0.322,0.161l-0.798-0.643l-0.158-0.156l-0.157-0.318h-0.317l-0.317-0.156l-0.164-0.325l0.481-0.156
	l0.157-0.318v-0.317h0.16l0.157-0.157l-0.317-0.163l-0.317-0.161v-0.157l-0.321-0.317v-0.157l-0.317-0.481v-0.16l-0.157-0.157
	l0.157-0.317l-0.157-0.481l0.157-0.157v-0.16h-0.157l-0.317-0.157v-0.164l0.157-0.157h-0.157v-0.16l-0.161-0.157l-0.162-0.16
	l-0.158-0.317l-0.159,0.16v0.157v0.16h-0.158h-0.157v0.157v0.16l-0.161,0.157v0.164v0.317h-0.162l-0.158-0.317h-0.159v0.157
	l-0.315,0.317l-0.161,0.317l-0.32,0.321v-0.321h0.157v-0.475h-0.157l-0.159,0.157v-0.157h-0.317v-0.16v-0.157l-0.479-0.481h-0.161
	v-0.157l-0.315-0.16l-0.477-0.157l-0.164,0.157h-0.317l-0.956,0.635l-0.157,0.639v0.317h-0.317l-0.164,0.164l-0.317,0.475
	l-0.157,0.16l-0.16,0.318h-0.157l-0.322-0.318l-0.159-0.16l-0.157-0.157v-0.317l-0.16-0.164v-0.157h-0.317v-0.317l-0.157-0.16
	v-0.157h-0.164v-0.164v-0.157v-0.16v-0.157h0.164v-0.16l0.317-0.157l0.157-0.324v-0.157v-0.157l0.16-0.16l-0.16-0.157l0.16-0.16
	l-0.16-0.164v-0.157v-0.157v-0.317v-0.16h0.16v0.16l0.157-0.317h-0.157l0.157-0.164l0.159-0.16v-0.157v-0.157h-0.477l0.16-0.16
	l-0.16-0.321l0.16-0.317l0.157-0.16v-0.157v-0.317l0.481-0.321l0.157-0.16l0.317-0.157v-0.317h0.159v-0.321l0.158-0.16v-0.157
	l-0.158-0.161v0.161h-0.316h-0.16v-0.161l-0.157-0.156h-0.158v-0.157h-0.164v-0.164h-0.316l-0.16-0.317v-0.161l-0.157-0.156
	l-0.16-0.321l-0.157,0.16l-0.164-0.16l-0.158-0.16l-0.159,0.16l-0.157-0.16l-0.317,0.32h-0.323v0.161l-0.317,0.156l-0.159,0.318
	l-0.317-0.157h0.16l-0.16-0.161l0.16-0.156h-0.16l0.16-0.161l-0.16-0.16l-0.321-0.16v0.16v0.16v0.317l-0.159-0.156l-0.159-0.161
	l-0.639,0.161l-0.317,0.156h-0.159v-0.317h-0.159l-0.159,0.317l-0.322,0.161l-0.157-0.479l-0.317-0.16h-0.323l-0.159-0.317
	l-0.157-0.161l-0.317,0.318l-0.318-0.318l-0.164,0.161l0.322,0.317h-0.159l-0.321-0.16l-0.799,0.16h-0.159v0.16h-0.159l-0.157-0.16
	h-0.161h-0.317l-0.321,0.321l-0.159-0.321h-0.316v-0.16h-0.317v-0.318h-0.164l-0.317,0.161l0.159-0.479h0.159v-0.157h-0.159
	l-0.317,0.157l-0.316-0.157h-0.164l-0.159,0.157l0.159,0.161l0.164-0.161l-0.164,0.161v0.156v0.161l-0.159,0.157l-0.159,0.32h-0.159
	l-0.159,0.161h-0.157l-0.164-0.321h-0.16v0.16h-0.316v-0.16H96.61l-0.159,0.321l-0.322-0.161l-0.157-0.16h-0.635h-0.159h-0.162
	h-0.317l-0.161,0.16v0.161h-0.316v0.317h-0.64h-0.157l-0.317-0.161h-0.164h-0.317l-0.475-0.478h-0.164v-0.16h-0.159l0.159-0.318
	v-0.156h-0.159v-0.161h-0.159l0.159-0.478l-0.159-0.161v-0.156l0.159-0.161l0.159-0.157l-0.317-0.16h0.159v-0.164l-0.159-0.313
	v-0.161v-0.157h0.159l0.159-0.16l0.164,0.16l0.157-0.324l0.16-0.157l-0.16-0.16v-0.314l-0.157-0.324h0.157l0.476-0.157v-0.317
	l0.159-0.157l0.164-0.16h0.157v-0.157v-0.164h-0.157l0.157-0.317l-0.157-0.16l0.317-0.314l0.157-0.324v-0.157h-0.157l-0.16,0.321
	l-0.157-0.164v-0.157l0.317-0.478l0.318-0.479h0.157l0.481-0.478l-0.159-0.157h-0.323l-0.157-0.16h-0.478v-0.321h-0.157
	l-0.323-0.317h-0.159l-0.157,0.16l-0.16-0.16v-0.157v-0.16l-0.157-0.164l-0.164-0.157l0.164-0.317l-0.164-0.157h-0.159l0.159-0.16
	l-0.159-0.157h-0.316v-0.164l-0.64-0.475l-0.159-0.16l0.321-0.157v-0.324v-0.475v-0.317l0.318-0.164l-0.157-0.157v-0.16h-0.161
	l-0.479-0.314v-0.16l-0.159-0.164l-0.157,0.164l-0.161-0.164l-0.164,0.164v-0.164l-0.475-0.157l0.159-0.16h-0.159l0.159-0.157
	l-0.477-0.161h-0.157v-0.156l-0.164-0.157l0.164-0.164h-0.164v-0.16l-0.317-0.157l-0.159-0.161l-0.159-0.156v-0.318h-0.159v-0.163
	h-0.162h-0.161h-0.157l0.157-0.157h-0.157h0.157l0.161-0.161h-0.161v-0.156l-0.157-0.161h-0.161v-0.157l0.161-0.163v-0.157
	l-0.318-0.161h-0.159v-0.156h0.316v-0.161h-0.157v-0.157l-0.159-0.163l-0.159,0.163l-0.164-0.32h0.323h0.159l-0.159-0.161v-0.156
	h-0.159v-0.161l-0.321,0.161v0.156l-0.318-0.156h-0.159v-0.161l-0.159-0.157l-0.164-0.16l-0.159-0.164v-0.475l-0.316,0.317
	l-0.16-0.317l-0.157-0.157v-0.317l-0.159-0.164h0.159l0.157-0.16l-0.316-0.157h0.159l0.317,0.157l-0.16-0.157v-0.157h0.16
	l0.316-0.16l0.323-0.157v-0.164v-0.16v-0.317l-0.164-0.314v-0.164l0.164-0.16l-0.323-0.157l0.159-0.16v-0.157V97.98v-0.16
	l0.323,0.16h0.159l-0.159-0.324v-0.157l0.159-0.317l-0.159-0.16v-0.157h-0.159v-0.157h-0.164l-0.159-0.164h-0.159v-0.16v-0.157
	h-0.157v-0.16l-0.317-0.157v-0.16l-0.323-0.161l0.164-0.16V95.27h-0.164v-0.16v-0.157l-0.159-0.16l0.159-0.321l0.323-0.317v-0.157
	l-0.159-0.16l0.159-0.321l-0.159-0.317l0.159-0.157l-0.481-0.317l-0.157-0.161l0.157-0.163h0.159l-0.159-0.318l0.159-0.156v-0.318
	l0.323,0.161v-0.161v-0.163v-0.318v-0.156l0.157-0.157l0.16-0.161h0.157l0.159,0.161h0.159l-0.159-0.161l0.159-0.163h-0.317v-0.318
	h-0.157l-0.16-0.156H84.98v-0.161v-0.157h-0.159h-0.164h-0.159v-0.156l0.481-0.164l0.157,0.164l0.16-0.164l-0.16-0.161v-0.156
	l-0.48-0.318h-0.476v-0.16v-0.321l0.16,0.164l0.157-0.32v-0.318l-0.157-0.317v-0.481l-0.317-0.635l-0.161-0.164l0.161-0.314h-0.161
	l-0.162-0.16v-0.157v-0.324l-0.476-0.792l-0.157-0.157l0.157-0.164H82.75l-0.164-0.16v-0.157l-0.159,0.157l-0.159-0.314l-0.318-0.16
	l-0.157-0.157l0.316-0.481l-0.159-0.16l-0.157-0.157H81.47l-0.315,0.157l-0.318-0.157h-0.323l-0.157-0.157h-0.161l-0.157-0.16
	v-0.164H79.88l-0.159-0.157l-0.157-0.16l-0.481,0.16h-0.317l-0.159-0.16l-0.162-0.157l-0.161,0.157l-0.317-0.317h-0.316v-0.479
	v-0.16l0.159-0.317v-0.157h0.157v-0.157l-0.48-0.324l-0.316-0.157h-0.478l-0.479-0.479v-0.16l0.159-0.16l0.164-0.475l-0.164-0.317
	V77.9l-0.475-0.317l-0.161,0.16V77.9l0.161,0.32l-0.161,0.161H75.58h-0.161L75.257,77.9H74.94l-0.477-0.157V77.9l-0.479,0.481
	l-0.318-0.161h-0.323l-0.315,0.479h-0.159h-0.317l-0.481-0.16l-0.316,0.317l-0.476,0.16h-0.481l-0.316-0.16l-0.323,0.16H70v-0.16
	l-0.16-0.157l-0.639-0.317l-0.317,0.157h-0.318l-0.157,0.317h-0.323H67.61l-0.157-0.317l-0.318-0.318v-0.156l-0.481-0.321
	L66.337,77.9h-0.321l-0.159,0.164v0.475h-0.159l-0.159,0.317l-0.479-0.157l-0.317,0.157l-0.477-0.317h-0.159l-0.321,0.317
	l-0.318-0.157l-0.159-0.16l-0.159-0.318l-0.159-0.156L62.67,77.9l-0.633-0.157l-0.323,0.321l-0.317,0.156l-0.316-0.156l-0.48-0.164
	l-0.16-0.317h-0.318h-0.157l-0.164,0.16L59.643,77.9l-0.633,1.116l-0.481,0.16h-0.159H58.21l-0.157-0.16l-0.161-0.16h-0.48h-0.476
	l-0.157-0.157l0.157-0.956v-0.16v-0.157l-0.481-0.161l-0.157-0.481l-0.159-0.156l-0.317-0.636l-0.956-0.639l-0.159-0.156h-0.639
	H53.91l-0.318,0.156H53.43l-0.317-0.481h-0.477l-0.322,0.164h-0.318l-1.273-0.639h-1.273l-0.956-0.317l-0.48-0.32l-0.317-0.161
	l-0.48-0.157h-0.16l-0.475-0.317l-0.159-0.639H46.26l-0.317-0.317l-0.317-0.16l-0.481,0.16h-0.157l-0.635-0.16h-0.322l-0.634-0.157
	l-0.322,0.157h-0.316l-0.64-0.321H41.64l-0.475,0.639h-0.164l-0.635,0.317h-0.321l-0.16-0.157l-0.633,0.157l-0.159,0.164
	l-0.321-0.164l-0.476-0.157l-0.641-0.478L37.34,71.85h-0.797h-0.318l-0.481,0.317h-0.475l-0.16-0.317l-0.157-0.639v-0.16h-0.323
	l-0.159-0.157h-0.157l-0.317-0.16l-1.755,0.478h-0.159l-0.48-0.16l-0.317-0.317l-0.159-0.161l-0.159-0.16l-0.956-0.799h-0.481
	l-0.792-0.475l-0.639-0.157h-0.16h-0.639L26.502,68.5l-0.317-0.16h-0.159l-0.318,0.16l-0.157,0.164l-0.323,0.475l-0.159,0.475v0.164
	l-0.157,0.635v0.16l0.157,0.956l-0.639,0.157l-0.317,0.164l-0.639,0.317h-0.16v-0.16v-0.639l-0.316-0.475l-0.159-0.16l-0.638,0.16
	l-0.317,0.157l-0.318,0.317l-0.481-0.157h-1.113l-0.799-0.317l-0.317-0.16h-0.157l-0.16-0.161h-0.321v0.161h-0.317l-0.797,0.478
	h-0.159l-0.475-0.317l-0.324-0.16h-0.157l-0.635-0.639l-0.321-0.481h-0.161l-0.316,0.164l-1.432,0.956l-0.956,0.317h-0.481
	l-0.633-0.317l-0.64-0.161l-0.157-0.16h-0.161H9.614l-0.797,0.321L8.5,70.572l-1.115-0.795l-0.476-0.164l-1.113,0.164l-0.164,0.16
	l-0.318,0.157l-0.317,0.16v0.157l-0.321,0.16l-0.318,0.321L4.04,71.211l-0.639,0.157L3.084,71.85l-0.161-0.481L2.767,70.894z
	 M196.509,89.851v0.161h-0.159v-0.161l0.159-0.157h-0.159v0.157 M192.365,98.138V97.98V98.138h0.16h0.157l-0.157,0.157h0.157v0.16
	l-0.157,0.157v-0.157l-0.16-0.16V98.138z M168.941,100.21v-0.16V100.21z M187.905,93.04h0.159H187.905z M192.048,92.723h-0.157
	l0.157-0.161V92.723h-0.157H192.048z M195.234,88.737v-0.16V88.737z M185.676,94.313v-0.16V94.313z M185.993,102.44v-0.161V102.44z
	 M195.076,90.329h0.158v0.157h-0.158V90.329z M185.355,102.44v-0.161V102.44z M186.468,100.849h-0.156v0.157h-0.161v0.16
	l0.481,0.157l-0.164,0.161l0.164,0.156h0.159l0.317,0.321l0.159-0.321l0.156,0.157h0.161l0.162,0.164l-0.162,0.16l-0.161-0.16v0.16
	v0.318v0.156v0.161v0.157h0.161l-0.161,0.163v0.157l-0.315,0.317l-0.477-0.156l-0.32-0.481l0.156-0.318l-0.317-0.475l-0.315,0.157
	v-0.157l-0.159,0.157h-0.164l-0.156-0.157l-0.161,0.157h-0.157v0.161l-0.317-0.161l-0.164,0.317l-0.952,0.161h-0.162l-0.477,0.157
	l-0.475-0.157l-0.322-0.479v-0.639v-0.156h0.158l0.321-0.318h0.16v-0.16l0.316-0.157h0.158l-0.158-0.164h0.158l0.799-0.792
	l0.316-0.164v-0.635h0.158v-0.157l0.164-0.164v-0.16v-0.157l0.157-0.475v-0.324l0.317-0.157l0.317,0.157l0.164,0.164h0.475v0.16
	h0.317l0.164,0.157h0.159l0.158,0.157v0.16l0.159,0.157h0.159l0.156,0.324h0.161l-0.161,0.157v0.317l-0.156,0.317h0.156v0.164
	l-0.315,0.157l0.159,0.16h0.156l-0.156,0.157h0.156h0.161l-0.161,0.157l-0.475-0.157h-0.317l-0.32,0.317h0.156V100.849z
	 M192.208,93.354h0.157H192.208z M187.585,99.893v-0.164l0.162,0.164H187.585z M146.479,113.271h0.159H146.479z M195.234,89.212
	h0.159H195.234v0.161l-0.158-0.161H195.234z M194.277,89.537h-0.157v-0.164h0.157V89.537z M176.112,99.251h0.164H176.112z
	 M180.578,100.849v-0.164h0.157v-0.16v0.16v0.164H180.578z M148.069,113.435h0.164v0.157h-0.164V113.435z M148.233,113.909v-0.157
	h0.16v0.157H148.233z M196.19,90.329v0.157V90.329h0.159v-0.161v0.161v0.157L196.19,90.329z M175.953,99.568v-0.157h0.159v0.157
	H175.953z M185.993,94.628l0.157-0.157h0.161v0.157H185.993z M174.521,101.006v-0.157h0.161h0.157l-0.157,0.157v0.16h-0.161V101.006
	z M189.18,93.836l0.158-0.157l0.159,0.157v0.16l-0.159-0.16l-0.158,0.16V93.836z M189.18,99.568l0.317-0.157l0.157-0.16v0.16
	l0.64,0.317l-0.158,0.164l-0.318-0.164l-0.32,0.321l-0.159-0.321L189.18,99.568z M191.567,93.04v-0.16l0.48,0.16v0.157l-0.48,0.157
	l-0.476,0.481v-0.321v-0.16l-0.157-0.157l0.157-0.157v-0.16v0.16l0.16,0.157h0.157L191.567,93.04z"/>
</svg>
